<?xml version="1.0" encoding="utf-8"?>
<!-- Generator: Adobe Illustrator 24.0.0, SVG Export Plug-In . SVG Version: 6.00 Build 0)  -->
<svg version="1.1" id="图层_1" xmlns="http://www.w3.org/2000/svg" xmlns:xlink="http://www.w3.org/1999/xlink" x="0px" y="0px"
	 viewBox="0 0 267.66 129.03" style="enable-background:new 0 0 267.66 129.03;" xml:space="preserve">
<style type="text/css">
	.st0{fill:url(#SVGID_1_);}
	.st1{fill:url(#SVGID_2_);}
	.st2{fill:url(#SVGID_3_);}
</style>
<g>
	<linearGradient id="SVGID_1_" gradientUnits="userSpaceOnUse" x1="43.3307" y1="107.729" x2="120.2958" y2="107.729">
		<stop  offset="0" style="stop-color:#F5E0C8"/>
		<stop  offset="0.8038" style="stop-color:#F7E5D0;stop-opacity:0.1952"/>
		<stop  offset="0.9988" style="stop-color:#F7E7D3;stop-opacity:0"/>
	</linearGradient>
	<path class="st0" d="M43.33,98.95c0,0,31.02-2.66,35.23,22.99c15.88-18.68,41.73-3.49,41.73-3.49s-9.15-20.66-37.79-12.16
		C67.79,82.76,43.33,98.95,43.33,98.95"/>
	<linearGradient id="SVGID_2_" gradientUnits="userSpaceOnUse" x1="112.4309" y1="77.9616" x2="168.6915" y2="77.9616">
		<stop  offset="0" style="stop-color:#F5E0C8"/>
		<stop  offset="0.8038" style="stop-color:#F7E5D0;stop-opacity:0.1952"/>
		<stop  offset="0.9988" style="stop-color:#F7E7D3;stop-opacity:0"/>
	</linearGradient>
	<path class="st1" d="M112.43,71.54c0,0,22.68-1.94,25.76,16.81c11.6-13.65,30.51-2.55,30.51-2.55s-6.69-15.1-27.62-8.89
		C130.31,59.71,112.43,71.54,112.43,71.54"/>
	<linearGradient id="SVGID_3_" gradientUnits="userSpaceOnUse" x1="28.3305" y1="10.7841" x2="72.5237" y2="10.7841">
		<stop  offset="0" style="stop-color:#F5E0C8"/>
		<stop  offset="0.8038" style="stop-color:#F7E5D0;stop-opacity:0.1952"/>
		<stop  offset="0.9988" style="stop-color:#F7E7D3;stop-opacity:0"/>
	</linearGradient>
	<path class="st2" d="M28.33,5.74c0,0,17.81-1.53,20.23,13.2c9.12-10.72,23.96-2.01,23.96-2.01s-5.25-11.86-21.7-6.98
		C42.38-3.56,28.33,5.74,28.33,5.74"/>
</g>
</svg>
