<?xml version="1.0" encoding="utf-8"?>
<!-- Generator: Adobe Illustrator 24.0.0, SVG Export Plug-In . SVG Version: 6.00 Build 0)  -->
<svg version="1.1" id="图层_1" xmlns="http://www.w3.org/2000/svg" xmlns:xlink="http://www.w3.org/1999/xlink" x="0px" y="0px"
	 viewBox="0 0 267.66 129.03" style="enable-background:new 0 0 267.66 129.03;" xml:space="preserve">
<style type="text/css">
	.st0{opacity:0.33;fill:url(#SVGID_1_);}
</style>
<linearGradient id="SVGID_1_" gradientUnits="userSpaceOnUse" x1="218.5243" y1="62.0106" x2="52.7637" y2="62.0106">
	<stop  offset="0.2745" style="stop-color:#EAC181"/>
	<stop  offset="1" style="stop-color:#FFFFFF;stop-opacity:0.33"/>
</linearGradient>
<path class="st0" d="M212.59,46c-1.36-0.37-2.01-1.43-3.18-1.79c-1.65-0.5-3.66-0.22-4.09-0.07c-2.56,0.88-5.15,6.56-5.15,6.56
	s1.71-4.2-5.47-6.31c-8.29-2.44-15.96,10.81-15.96,10.81s-2.96,0.13-8.53,1.58c-4.49,1.17-4.64,2.92-8.04,3.3
	c-11.59,1.28-7.54-0.93-10.5-2.13c-2.2-0.89-3.78-1.45-5.17-1.26c-1.39,0.19-2.57,3.15-2.57,3.15s-0.43-2.03-2.97-2.47
	c-2.54-0.44-8.55,1.2-8.55,1.2s2.63-3.68-2.88-6.18c-5.51-2.5-11.05-4.88-17.11-2.12c-6.06,2.76-9.37,9.05-9.37,9.05
	s-5.06-3.16-10.71-0.23c-4.73,2.45-5.84,6.23-7.82,6.88c-3.05,1.01-4.27-1.06-6.55,1.12c-3.76,3.6,0.1,3.61-2.91,3.78
	c-3.01,0.17-24.61,1.59-22.08,2.44c2.53,0.84,30.58,1.19,32.44,0.81c1.86-0.38,5.99,4.35,18.46,2.86c3.24-0.39,7.03-3.82,10.05-4.39
	c3.02-0.57,12.51-2.05,17.61-2.2c5.09-0.14,6.11,4.35,10.32,4.15c6.34-0.31,5.28,1.96,9.7,0.69c6.79-1.96,8.24-1.45,8.24-1.45
	s-1.94,0.73,1.08,1.4c3.02,0.66,14.91-0.77,24.03-2.84c9.12-2.07,25.41-6.21,25.41-6.21s-12.29,7.35-20.16,9.12
	c-7.87,1.77-5.89,0.87-9.47,1.61c-3.57,0.74-14.66,3.25-14.66,3.25s11.78-1.42,15.34-1.53c3.56-0.11,6.6-0.39,10.71-1.28
	c4.09-0.88,19.51-5.57,26.45-7.04V46.71C217.11,47.06,214.85,46.62,212.59,46z"/>
</svg>
