<svg id="图层_1" data-name="图层 1" xmlns="http://www.w3.org/2000/svg" xmlns:xlink="http://www.w3.org/1999/xlink" viewBox="0 0 267.66 129.03"><defs><style>.cls-1{opacity:0.33;fill:url(#未命名的渐变_6);}</style><linearGradient id="未命名的渐变_6" x1="12.41" y1="72.12" x2="245.86" y2="72.12" gradientUnits="userSpaceOnUse"><stop offset="0.27" stop-color="#eac181"/><stop offset="1" stop-color="#fff" stop-opacity="0.33"/></linearGradient></defs><title>云1</title><path class="cls-1" d="M39,70.52a41.32,41.32,0,0,0,22-5.08l21,1.73a23.89,23.89,0,0,1,18-21.92c17.85-5,34.22.68,48.83,7.41,16.45,7.59,26.69,10.65,26.69,10.65s14.65-1.11,21.45,4,8.28,10,18,9.23,36.52-.34,29.64,3-25.12.49-39.35,5.26C198.66,87.08,184.33,82,184.33,82s6.58,14.66-11.1,18.49c-13.52,2.94-21.15-10.16-21.15-10.16s-24.32,5.18-33.36.78-13.56-2.9-13.56-2.9-15.74,5.28-29.58,4.47S58.39,85,42,87,17.47,85.5,14,81C6.7,71.53,26.2,69.85,39,70.52Z"/></svg>