<?xml version="1.0" encoding="utf-8"?>
<!-- Generator: Adobe Illustrator 24.0.0, SVG Export Plug-In . SVG Version: 6.00 Build 0)  -->
<svg version="1.1" id="图层_1" xmlns="http://www.w3.org/2000/svg" xmlns:xlink="http://www.w3.org/1999/xlink" x="0px" y="0px"
	 viewBox="0 0 267.66 129.03" style="enable-background:new 0 0 267.66 129.03;" xml:space="preserve">
<style type="text/css">
	.st0{opacity:0.33;}
	.st1{fill:url(#SVGID_1_);}
</style>
<g class="st0">
	<linearGradient id="SVGID_1_" gradientUnits="userSpaceOnUse" x1="257.0727" y1="60.8661" x2="30.8396" y2="60.8661">
		<stop  offset="0.2745" style="stop-color:#EAC181"/>
		<stop  offset="1" style="stop-color:#FFFFFF;stop-opacity:0.33"/>
	</linearGradient>
	<path class="st1" d="M53.8,75.77l17.06-0.79c0,0,29.01,5.26,39.98,4.93c6.68-0.2,18.99-4.03,25.62-4.54
		c10.85-0.82,30.31,2.03,46.86,2.73c10.85,0.45,28.02-2.41,33.12-2.28c21.2,0.52,40.62-2.08,40.62-2.08s-21.64-1.34-28.23-3.3
		c-2.54-0.75-2.95-1.58-4.44-2.43c-5.36-3.03-0.07-4.18-4.19-7.19c-1.7-1.24-9.16-1.46-15.45-1.14c-6.37,0.33-12.18,1.91-12.18,1.91
		s7.17-8.27,1.5-13.11c-7.54-6.43-29.07-9.34-35.55-3.62c-1.38,1.21-5.34,5.74-9.52,7.57c-2.44,1.07-3.68,0.11-7.05,0.68
		c-11.66,1.96-8.39,11.6-13.7,10.7c-6.23-1.05-11.71,2.61-16.54,2.07c-13.2-1.45-13.56-9.26-29.48-4.3
		c-5.54,1.73-2.18,5.01-14.11,6.49c-14.67,1.83-39.59,2.62-37.09,5.72L53.8,75.77z"/>
</g>
</svg>
