<svg id="图层_1" data-name="图层 1" xmlns="http://www.w3.org/2000/svg" xmlns:xlink="http://www.w3.org/1999/xlink" viewBox="0 0 267.66 129.03"><defs><style>.cls-1{opacity:0.33;fill:url(#未命名的渐变_6);}</style><linearGradient id="未命名的渐变_6" x1="8.85" y1="37.42" x2="268.44" y2="111.99" gradientUnits="userSpaceOnUse"><stop offset="0.27" stop-color="#eac181"/><stop offset="1" stop-color="#fff" stop-opacity="0.33"/></linearGradient></defs><title>云2</title><path class="cls-1" d="M39.54,75.14c3.3-2.89,12.17-4.86,22.71-4.93,3.65,0,4.66-8.82,8.13-11,5.63-3.57,14.06-6,19.8-5.43a9.15,9.15,0,0,1,7.58,5.76s-2.57-20.14,25.17-19.85,30.4,19.09,30.4,19.09,1.15,3,6.75,1.8c7.42-1.56,9.58-3.15,13.95-3.15,9,0,12.09,4.07,15.95,6.24,6.22,3.5,4.85,7.62,4.85,7.62s6.39,1,13.82,1.93c4.19.51,5.79,4.1,9.52,5.14,13.65,3.79,29.78,1.06,10.25,4.09-5.59.87-23.61,3-41,4.32-12.11.93-18,7-23.52,4.1C152.87,85,151.1,78.05,151.1,78.05s-11.19,7.07-17,3.6l-5.86-3.47s8.29,7.36-9.64,6.75c-16.43-.57-33-2.8-33-2.8s-14.92-1.21-19.87-.69c-3.75.39-4.46,1.11-15.09-.24C41,80,37,77.4,39.54,75.14Z"/></svg>