<svg xmlns="http://www.w3.org/2000/svg" viewBox="0 0 307.52 499.92"><defs><linearGradient id="a" x1="-92.19" y1="16.62" x2="-92.19" y2="128.72" gradientTransform="translate(491.61)" gradientUnits="userSpaceOnUse"><stop offset="0" stop-color="#ac8d60"/><stop offset=".23" stop-color="#ac8d60" stop-opacity=".98"/><stop offset=".42" stop-color="#ac8d60" stop-opacity=".92"/><stop offset=".6" stop-color="#ac8d60" stop-opacity=".82"/><stop offset=".76" stop-color="#ac8d60" stop-opacity=".68"/><stop offset=".92" stop-color="#ac8d60" stop-opacity=".5"/><stop offset="1" stop-color="#ac8d60" stop-opacity=".4"/></linearGradient><style>.c{fill:none;stroke:#b68832;stroke-miterlimit:10;stroke-width:.26px}.d{fill:#b68832}.e{fill:#fff}.f{fill:#af8535}.g{fill:#666868}</style></defs><g style="opacity:.06"><path d="M440.7 121.71V29.23l-14.54-12.61-48.78 18.22v4.67l44.09-14.95v103.69H451v-6.54Zm-79.27-28.49 23.45-4.67V76.87L361.43 83Zm0 35h23.45v-12.11L361.43 118Zm0-17.28 23.45-2.33V97l-23.45 3.74Zm0-35.5 23.45-6.54V56.79l-23.45 7.94Zm48.78-30.36-13.13-7.94-49.25 17.78v73.8h6.56V58.19l37.06-12.14v82.2h19.23Zm0 0" transform="translate(-143.5 -16.62)" style="fill:url(#a)"/></g><circle class="c" cx="267.43" cy="354.5" r="38.14" transform="matrix(.16 -.99 .99 .16 -268.31 546.06)"/><path class="d" d="M105.56 332.23a4.9 4.9 0 0 1-3.91 1.77 4.72 4.72 0 0 1-3.8-1.66l1.12-1.56a3.78 3.78 0 0 0 2.71 1.08 3.14 3.14 0 0 0 2.42-1 3.89 3.89 0 0 0 1-2.75 3 3 0 0 1-1.39 1.18 4.68 4.68 0 0 1-2 .45 4.44 4.44 0 0 1-3.24-1.17 4.11 4.11 0 0 1-1.2-3.08 4.37 4.37 0 0 1 1.37-3.3 4.61 4.61 0 0 1 3.28-1.3 4.83 4.83 0 0 1 3.81 1.63 6.77 6.77 0 0 1 1.42 4.6 7.79 7.79 0 0 1-1.59 5.11Zm-1.57-8.34a2.71 2.71 0 0 0-2.14-.91 2.74 2.74 0 0 0-1.83.66 2.14 2.14 0 0 0-.77 1.7 2.18 2.18 0 0 0 .72 1.73 2.77 2.77 0 0 0 1.88.63 3.59 3.59 0 0 0 1.87-.56 2.21 2.21 0 0 0 1.09-1.21 3.06 3.06 0 0 0-.82-2.04ZM110.57 332.99a3.18 3.18 0 0 1-1.39-2.72 3.52 3.52 0 0 1 .51-1.89 2.87 2.87 0 0 1 1.44-1.19 2.74 2.74 0 0 1-1.58-2.73 3.18 3.18 0 0 1 1.22-2.62 6.46 6.46 0 0 1 6.81 0 3.2 3.2 0 0 1 1.2 2.62 3 3 0 0 1-.45 1.61 2.62 2.62 0 0 1-1.3 1.08 2.8 2.8 0 0 1 2.12 3 3.27 3.27 0 0 1-1.4 2.78 6 6 0 0 1-3.57 1 6 6 0 0 1-3.61-.94Zm3.41-4.79a3.32 3.32 0 0 0-2 .54 1.59 1.59 0 0 0-.75 1.32 1.63 1.63 0 0 0 .77 1.41 3.88 3.88 0 0 0 2.15.52 3.83 3.83 0 0 0 2.11-.51 1.55 1.55 0 0 0 .78-1.38 1.64 1.64 0 0 0-.69-1.4 3.42 3.42 0 0 0-2-.5Zm.44-1.89a2.73 2.73 0 0 0 1.61-.47 1.48 1.48 0 0 0 .67-1.27 1.39 1.39 0 0 0-.66-1.25 3.43 3.43 0 0 0-1.89-.43 3.39 3.39 0 0 0-1.82.44 1.35 1.35 0 0 0-.71 1.22 1.52 1.52 0 0 0 .64 1.27 2.65 2.65 0 0 0 1.67.49ZM121.78 331.58a1.26 1.26 0 0 1 1-.42 1.23 1.23 0 0 1 .94.42 1.35 1.35 0 0 1 .39.92 1.33 1.33 0 0 1-.38 1 1.23 1.23 0 0 1-.95.41 1.25 1.25 0 0 1-1-.41 1.41 1.41 0 0 1-.37-1 1.33 1.33 0 0 1 .37-.92ZM126.17 324.32a4.36 4.36 0 0 1 1.68-2.54 5 5 0 0 1 3-.89 4.36 4.36 0 0 1 3.09 1 3.61 3.61 0 0 1 1.1 2.75 5.5 5.5 0 0 1-.46 2.28 6.61 6.61 0 0 1-1.34 1.92 20.86 20.86 0 0 1-2.39 2.06l-1.34.85h5.9v2h-9.05v-1.63l2.64-2.11c.07-.07.32-.28.73-.62s.68-.58.82-.71.36-.35.7-.66a6.38 6.38 0 0 0 .72-.76c.14-.19.31-.43.5-.72a2.67 2.67 0 0 0 .51-1.6 1.9 1.9 0 0 0-.58-1.47 2.22 2.22 0 0 0-1.59-.54 2.76 2.76 0 0 0-1.8.58 3.52 3.52 0 0 0-1.06 1.48ZM137.43 323.84a4 4 0 0 1 1.69-2.19 5.15 5.15 0 0 1 2.86-.8 4.94 4.94 0 0 1 3 .89 2.8 2.8 0 0 1 1.18 2.34 3.25 3.25 0 0 1-.53 1.86 2.6 2.6 0 0 1-1.35 1.07 2.85 2.85 0 0 1 2.13 3 3.6 3.6 0 0 1-1.26 2.88 4.58 4.58 0 0 1-3.12 1.09 6.41 6.41 0 0 1-1.95-.3 4.82 4.82 0 0 1-1.76-1.05 4 4 0 0 1-1.16-1.83l1.83-.85a3 3 0 0 0 1.18 1.39 3.1 3.1 0 0 0 1.69.52 3 3 0 0 0 1.77-.49 1.55 1.55 0 0 0 .7-1.34 1.4 1.4 0 0 0-.75-1.36 4.7 4.7 0 0 0-2.09-.38h-1.09v-2h1.2a3.07 3.07 0 0 0 1.83-.49 1.46 1.46 0 0 0 .7-1.24 1.31 1.31 0 0 0-.63-1.18 3 3 0 0 0-1.66-.42 2.79 2.79 0 0 0-1.64.44 3.36 3.36 0 0 0-1 1.3ZM149.26 328.54c0-1.39.63-2.17 1.57-2.17s1.57.78 1.57 2.17-.62 2.19-1.57 2.19-1.57-.8-1.57-2.19Zm2.49 0c0-1.11-.37-1.64-.92-1.64s-.92.53-.92 1.64.38 1.66.92 1.66.92-.56.92-1.66Zm3.1-2.17h.58l-3.82 7.17h-.57Zm-.78 5c0-1.39.63-2.17 1.58-2.17s1.56.78 1.56 2.17-.62 2.19-1.56 2.19-1.58-.82-1.58-2.18Zm2.49 0c0-1.11-.38-1.64-.91-1.64s-.93.53-.93 1.64.38 1.66.93 1.66.91-.58.91-1.65ZM101.72 339.85v3.62h-.91v-.36h-1.64v2.27h-.92v-2.26h-1.63v.4h-.87v-3.66h2.5v-1.26h.92v1.26Zm-3.47 2.41v-1.56h-1.63v1.56Zm2.56 0v-1.56h-1.64v1.56ZM109.21 338.87v6.51h-.93v-.36h-4.3v.36h-.87v-6.5Zm-.93 5.34v-4.54h-4.3v4.54Zm-.25-1.12v.7h-3.76v-.7h1.46v-.86h-1.23v-.73h1.2v-.68h-1.38v-.76h3.56v.76h-1.38v.68h1.22v.73h-.4a5 5 0 0 1 .55.65l-.38.21Zm-1.5 0h.72a4.74 4.74 0 0 0-.49-.64l.44-.22h-.7ZM112.63 338.87a13.12 13.12 0 0 1-.67 1.43v5.08h-.83v-3.8c-.18.23-.36.45-.55.65a6.28 6.28 0 0 0-.46-.89 7.67 7.67 0 0 0 1.71-2.72Zm2.86 4a5.45 5.45 0 0 0 1.67 1.58 3.32 3.32 0 0 0-.61.69 5.92 5.92 0 0 1-1.48-1.61v1.85h-.87v-1.83a5.81 5.81 0 0 1-1.57 1.56 3.85 3.85 0 0 0-.59-.69 5.33 5.33 0 0 0 1.75-1.57h-1.49v-.78h1.9v-.69h-1.42v-2.49h3.81v2.49h-1.52v.66h1.87v.78Zm-1.89-2.2h2.12v-1h-2.12ZM120.22 339.16c-.19.61-.43 1.34-.62 1.91a2.39 2.39 0 0 1 .52 1.51 1.09 1.09 0 0 1-.33.95.76.76 0 0 1-.4.16 3.39 3.39 0 0 1-.47 0 1.93 1.93 0 0 0-.19-.75 1.12 1.12 0 0 0 .31 0 .27.27 0 0 0 .19 0 .56.56 0 0 0 .14-.44 2 2 0 0 0-.51-1.32c.15-.45.29-1 .41-1.52h-.59v5.72h-.76v-6.49H119.62Zm.61 1.93-.56.44a5.31 5.31 0 0 0-.5-.7 6.54 6.54 0 0 0 2.14-2.32l.75.27-.13.22a7.41 7.41 0 0 0 2 1.63 4 4 0 0 0-.41.83 6.33 6.33 0 0 1-.76-.55v.62h-2.57Zm3.37 1c-.3.74-.67 1.61-1 2.25h1.14v.75h-4.19v-.71h2.35a14.06 14.06 0 0 0 1-2.42Zm-3.4 1.89a10.44 10.44 0 0 0-.38-1.75l.66-.17a12.22 12.22 0 0 1 .43 1.71Zm2.47-3.16a11.59 11.59 0 0 1-1.17-1.15 8.27 8.27 0 0 1-1 1.15Zm-1.22 2.91a15.51 15.51 0 0 0-.27-1.72l.66-.09a13.73 13.73 0 0 1 .31 1.7ZM127.5 338.87a11.58 11.58 0 0 1-.68 1.43v5.08H126v-3.8c-.18.23-.36.45-.55.65a6.28 6.28 0 0 0-.46-.89 7.67 7.67 0 0 0 1.71-2.72Zm2.86 4a5.34 5.34 0 0 0 1.67 1.58 3.69 3.69 0 0 0-.62.69 5.89 5.89 0 0 1-1.47-1.61v1.85h-.87v-1.83a5.81 5.81 0 0 1-1.57 1.56 3.54 3.54 0 0 0-.6-.69 5.14 5.14 0 0 0 1.75-1.57h-1.48v-.78h1.9v-.69h-1.42v-2.49h3.85v2.49h-1.52v.66h1.87v.78Zm-1.89-2.2h2.12v-1h-2.09ZM135.1 339.16c-.19.61-.44 1.35-.65 1.9a2.35 2.35 0 0 1 .55 1.51 1.13 1.13 0 0 1-.33 1 .82.82 0 0 1-.42.16 3.62 3.62 0 0 1-.48 0 1.74 1.74 0 0 0-.19-.75 1.19 1.19 0 0 0 .32 0 .29.29 0 0 0 .21-.06c.09-.06.13-.22.13-.43a2 2 0 0 0-.53-1.33c.15-.44.3-1 .43-1.51h-.64v5.73h-.76v-6.49h1.81Zm1 .59h-.95v-.67h1.49c0-.12-.08-.25-.11-.36l.77-.18c.07.17.15.37.2.54h1.49v.67h-1.16l.68.12-.2.36h.89v.68h-4.32v-.68h1a2.43 2.43 0 0 0-.13-.38Zm3.11 4.69h-1.68v.94h-.86v-.93h-1.76v-.71h1.76v-.36h-1.37v-2.17h3.54v2.17h-1.31v.35h1.68Zm-3.11-2.38h1.91v-.31h-1.91Zm0 .79h1.91v-.32h-1.91Zm1.39-2.62a3.47 3.47 0 0 0 .17-.48h-1.16a4.15 4.15 0 0 1 .18.48ZM145.41 342.71a4.11 4.11 0 0 0 1.42.84 3.11 3.11 0 0 0-.58.67 5 5 0 0 1-1.14-.76v.53h-1.32v.48h2.37v.71h-5.53v-.71h2.28v-.48h-1.28v-.45a5 5 0 0 1-1.16.74 3.44 3.44 0 0 0-.55-.66 4.38 4.38 0 0 0 1.47-.91h-1.41V342h1.39v-2.16h-1v-.7h1v-.54h.87v.54h2.26v-.54h.89v.54h1v.7h-1V342h1.34v.71Zm-.46.6a4.86 4.86 0 0 1-.52-.6h-2.05a4.77 4.77 0 0 1-.51.6h1v-.45h.88v.45Zm-2.71-3.47v.32h2.26v-.32Zm0 1.23h2.26v-.32h-2.27Zm0 .93h2.26v-.32h-2.27ZM151.26 341.48v.76h2.32v.77h-1.15l.73.27c-.26.4-.54.84-.77 1.15h1.57v.79h-6.29v-.79h1.43a6 6 0 0 0-.6-1.18l.57-.24h-1.05v-.77h2.31v-.76h-1.47v-.35c-.31.14-.62.27-.94.39a3.35 3.35 0 0 0-.57-.8 5.88 5.88 0 0 0 3.36-2.21l.82.37-.2.29a8.06 8.06 0 0 0 3 1.55 4.63 4.63 0 0 0-.59.75 8.38 8.38 0 0 1-1-.42v.43Zm-2 1.53a5.22 5.22 0 0 1 .64 1.16l-.6.26h1.06v-1.42Zm2.85-2.32a8.1 8.1 0 0 1-1.26-.94 6.35 6.35 0 0 1-1.17.94Zm-.82 2.32v1.42h.91l-.49-.2a6.74 6.74 0 0 0 .64-1.22Z"/><circle class="c" cx="328.02" cy="478.28" r="38.14" transform="rotate(-12.64 181.192 1117.797)"/><path class="d" d="M45.17 452.81h1.24v12.57H44.5v-10l-2.51 1.27-.67-1.79ZM49.71 463.18a1.22 1.22 0 0 1 .94-.4 1.25 1.25 0 0 1 .93.41 1.3 1.3 0 0 1 0 1.84 1.3 1.3 0 0 1-1.88 0 1.38 1.38 0 0 1-.37-.94 1.31 1.31 0 0 1 .38-.91ZM54 456.08a4.26 4.26 0 0 1 1.64-2.49 4.91 4.91 0 0 1 2.91-.87 4.23 4.23 0 0 1 3 1 3.52 3.52 0 0 1 1.09 2.69 5.31 5.31 0 0 1-.46 2.24 6.62 6.62 0 0 1-1.3 1.88 23.25 23.25 0 0 1-2.35 2l-1.31.82H63v2h-8.86v-1.6l2.58-2.06c.07-.07.31-.27.72-.61s.66-.56.79-.69l.7-.65a6 6 0 0 0 .7-.75c.14-.18.3-.42.49-.7a2.75 2.75 0 0 0 .39-.79 2.94 2.94 0 0 0 .11-.78 1.86 1.86 0 0 0-.57-1.44 2.17 2.17 0 0 0-1.55-.53 2.68 2.68 0 0 0-1.77.58 3.49 3.49 0 0 0-1 1.45ZM64.89 456.08a4.27 4.27 0 0 1 1.65-2.49 4.88 4.88 0 0 1 2.9-.87 4.24 4.24 0 0 1 3 1 3.55 3.55 0 0 1 1.08 2.69 5.47 5.47 0 0 1-.45 2.24 6.66 6.66 0 0 1-1.31 1.88 22.18 22.18 0 0 1-2.35 2l-1.3.82h5.77v2h-8.85v-1.6l2.57-2.06.72-.61c.4-.33.67-.56.8-.69l.69-.65a5.32 5.32 0 0 0 .7-.75c.14-.18.3-.42.49-.7a3.09 3.09 0 0 0 .4-.79 2.93 2.93 0 0 0 .1-.78 1.89 1.89 0 0 0-.56-1.44 2.22 2.22 0 0 0-1.56-.53 2.65 2.65 0 0 0-1.76.58 3.32 3.32 0 0 0-1 1.45ZM78.5 460.43c0-1.36.6-2.12 1.53-2.12s1.54.76 1.54 2.12-.61 2.15-1.54 2.15-1.53-.78-1.53-2.15Zm2.43 0c0-1.08-.37-1.61-.9-1.61s-.9.53-.9 1.61.37 1.63.9 1.63.94-.55.94-1.63Zm3-2.12h.57l-3.74 7h-.56Zm-.76 4.87c0-1.36.62-2.12 1.55-2.12s1.53.76 1.53 2.12-.61 2.14-1.53 2.14-1.48-.77-1.48-2.14Zm2.44 0c0-1.08-.37-1.6-.89-1.6s-.91.52-.91 1.6.37 1.63.91 1.63.96-.55.96-1.63ZM54.07 476.21v.86h-6.51v-.86h2.57v-5.42h.92v2.06h2.55v.87h-2.55v2.49ZM56.06 474.1c-.28-.19-.85-.5-1.25-.71l.45-.64a10.18 10.18 0 0 1 1.24.63Zm-1 2.64a22.17 22.17 0 0 0 1.24-2.22l.65.55c-.34.74-.76 1.54-1.14 2.22Zm1.39-4.53a8.19 8.19 0 0 0-1.21-.77l.48-.62a8.29 8.29 0 0 1 1.23.69Zm1.33.37a5.22 5.22 0 0 1-.49.61 5.57 5.57 0 0 0-.68-.52 4.91 4.91 0 0 0 1.23-2l.82.23-.23.53h3.15v.73h-3.54c-.08.13-.16.26-.25.38h3.13v.69h-3.14Zm3 1.07c0 1.75 0 3 .24 3 .09 0 .12-.38.12-.92a3.8 3.8 0 0 0 .51.54c-.06.81-.2 1.18-.69 1.19-.87 0-1-1.19-1-3.05h-2.89v-.74h3.72ZM66.79 475.84a8.67 8.67 0 0 0 2.22.82 3.12 3.12 0 0 0-.53.68 8.39 8.39 0 0 1-2.47-1.18v1.22h-.85v-1.21a8.38 8.38 0 0 1-2.49 1.18 4.65 4.65 0 0 0-.55-.71 8.88 8.88 0 0 0 2.3-.83h-2.06v-.69h2.8v-.37h.85v.37h2.82v.69Zm-3.63-3-.39.33a2.5 2.5 0 0 0-.61-.56 5.79 5.79 0 0 0 1.71-1.93l.87.17c-.11.18-.22.36-.35.54h1.17a4.06 4.06 0 0 0-.22-.52l.77-.22a4.06 4.06 0 0 1 .34.74h2v.65h-2.2v.34h1.87v.55h-1.87v.29h1.88v.55h-1.88v.32h2.37v.65h-4.64v.19h-.85Zm2.3-.8h-1.45v.34h1.49Zm0 .86h-1.45v.29h1.49Zm0 .84h-1.45v.32h1.49ZM76.05 470.97v6.46h-.93v-.25H70.8v.25h-.88v-6.46Zm-.93 5.44v-4.65H70.8v4.62Zm-.26-2.9h-.87v1.87c0 .39-.05.58-.31.71a2.12 2.12 0 0 1-1 .15 2.72 2.72 0 0 0-.27-.77 4.8 4.8 0 0 0 .64 0c.09 0 .12 0 .12-.11v-1a7.42 7.42 0 0 1-1.71 1.27 3.94 3.94 0 0 0-.53-.57 7 7 0 0 0 1.91-1.55h-1.73v-.76h2.06v-.78h.82v.78h.87Z"/><circle class="c" cx="206.94" cy="478.28" r="38.14" transform="rotate(-45 115.12 643.196)"/><path class="d" d="M165.62 454.44a4.69 4.69 0 0 1 7.39 0 9.09 9.09 0 0 1 0 9.4 4.72 4.72 0 0 1-7.4 0 7.68 7.68 0 0 1-1.33-4.7 7.78 7.78 0 0 1 1.34-4.7Zm1.52 7.95a2.51 2.51 0 0 0 2.19 1.15q3 0 2.95-4.4a6.06 6.06 0 0 0-.74-3.28 2.51 2.51 0 0 0-2.24-1.12 2.45 2.45 0 0 0-2.18 1.14 5.86 5.86 0 0 0-.77 3.26 5.74 5.74 0 0 0 .79 3.24ZM176.9 463.26a1.28 1.28 0 0 1 1.89 0 1.32 1.32 0 0 1 0 1.86 1.24 1.24 0 0 1-.94.41 1.26 1.26 0 0 1-1-.41 1.35 1.35 0 0 1-.37-.95 1.29 1.29 0 0 1 .42-.91ZM182.24 452.77h7.57v2.06H184l-.25 2.82a4.14 4.14 0 0 1 2.05-.46 4.35 4.35 0 0 1 3.22 1.14 4.13 4.13 0 0 1 1.12 3 4.09 4.09 0 0 1-1.25 3.11 4.49 4.49 0 0 1-3.2 1.17 6.12 6.12 0 0 1-1.37-.16 5.77 5.77 0 0 1-1.29-.51 3.51 3.51 0 0 1-1.13-1 4.73 4.73 0 0 1-.77-1.46l1.86-.75a2.28 2.28 0 0 0 1.06 1.27 3.33 3.33 0 0 0 1.74.46 2.36 2.36 0 0 0 1.69-.58 2 2 0 0 0 .61-1.51 2.16 2.16 0 0 0-.67-1.68 2.67 2.67 0 0 0-1.85-.6 3.12 3.12 0 0 0-2.18.75l-1.68-.18ZM193.15 452.77h7.57v2.06h-5.81l-.25 2.82a4.12 4.12 0 0 1 2-.46 4.31 4.31 0 0 1 3.21 1.14 4.14 4.14 0 0 1 1.13 3 4.09 4.09 0 0 1-1.25 3.11 4.49 4.49 0 0 1-3.2 1.17 6.12 6.12 0 0 1-1.37-.16 5.41 5.41 0 0 1-1.29-.51 3.55 3.55 0 0 1-1.14-1 4.71 4.71 0 0 1-.76-1.46l1.86-.75a2.24 2.24 0 0 0 1.06 1.27 3.3 3.3 0 0 0 1.74.46 2.32 2.32 0 0 0 1.68-.58 2 2 0 0 0 .62-1.51 2.16 2.16 0 0 0-.67-1.68 2.69 2.69 0 0 0-1.85-.6 3.16 3.16 0 0 0-2.19.75l-1.67-.18ZM205.7 460.38c0-1.38.62-2.16 1.56-2.16s1.56.78 1.56 2.16-.62 2.18-1.56 2.18-1.56-.82-1.56-2.18Zm2.47 0c0-1.1-.37-1.63-.91-1.63s-.91.53-.91 1.63.37 1.65.91 1.65.91-.58.91-1.65Zm3.08-2.16h.58l-3.8 7.12h-.53Zm-.77 4.95c0-1.38.63-2.15 1.56-2.15s1.56.77 1.56 2.15-.62 2.17-1.56 2.17-1.54-.8-1.54-2.19Zm2.47 0c0-1.1-.37-1.63-.91-1.63s-.92.53-.92 1.63.38 1.65.92 1.65.91-.57.91-1.67ZM178.85 471.72v3.59h-.9v-.36h-1.63v2.25h-.91v-2.25h-1.62v.4h-.86v-3.63h2.48v-1.25h.91v1.25Zm-3.44 2.39v-1.55h-1.62v1.55Zm2.54 0v-1.55h-1.63v1.55ZM186.29 470.75v6.45h-.92v-.36h-4.26v.36h-.87v-6.45Zm-.92 5.3v-4.51h-4.26v4.51Zm-.25-1.12v.7h-3.73v-.7h1.44v-.85h-1.18v-.7h1.18v-.68h-1.33v-.75h3.53v.75h-1.37v.68h1.21v.72h-.37a6.82 6.82 0 0 1 .54.64l-.38.21Zm-1.49 0h.72c-.13-.19-.33-.44-.49-.63l.44-.22h-.67ZM190.37 471.8a12.05 12.05 0 0 1-.74 1.59h3.79v3.78h-.92v-.4h-2.88v.43h-.87v-2.57a5.19 5.19 0 0 1-1 .9 4.65 4.65 0 0 0-.6-.66 6.35 6.35 0 0 0 2.21-3.07h-1.86v-.84h6.32v.84Zm2.13 2.41h-2.88v1.73h2.88ZM200.15 476.22c.31 0 .36-.29.42-1.48a2.34 2.34 0 0 0 .84.41c-.09 1.4-.31 1.93-1.17 1.93h-1.05c-.89 0-1.14-.32-1.14-1.36v-.74c-.28.17-.55.32-.82.45a3.38 3.38 0 0 0-.56-.59v2.36h-.91v-3.82c-.18.21-.36.41-.54.59a7.43 7.43 0 0 0-.55-.87 7.33 7.33 0 0 0 1.83-2.7l.87.29a13.76 13.76 0 0 1-.7 1.38v2.63a8.47 8.47 0 0 0 1.38-.82v-3.3h.93v2.6a8.89 8.89 0 0 0 1.52-1.8l.82.56a11.3 11.3 0 0 1-2.35 2.38v1.39c0 .41 0 .48.33.48Z"/><circle class="d" cx="267.43" cy="427.32" r="54.5" transform="rotate(-45 175.613 592.239)"/><path class="e" d="M85.04 398.44a4.89 4.89 0 0 1 1.9-2.88 5.69 5.69 0 0 1 3.37-1 4.9 4.9 0 0 1 3.5 1.19 4.08 4.08 0 0 1 1.26 3.11 6.25 6.25 0 0 1-.53 2.59 7.63 7.63 0 0 1-1.51 2.18 26.65 26.65 0 0 1-2.72 2.34l-1.51.95h6.7v2.33H85.23v-1.87l3-2.39.83-.71c.47-.38.78-.65.93-.8l.8-.75a7.91 7.91 0 0 0 .81-.86l.57-.81a3.28 3.28 0 0 0 .45-.93 3.35 3.35 0 0 0 .12-.89 2.14 2.14 0 0 0-.65-1.67 2.51 2.51 0 0 0-1.8-.62 3.13 3.13 0 0 0-2 .67 4 4 0 0 0-1.21 1.68ZM99.29 396.61a4.91 4.91 0 0 1 4.2-2.06 5 5 0 0 1 4.24 2.06 10.32 10.32 0 0 1 0 10.73 4.91 4.91 0 0 1-4.21 2 5 5 0 0 1-4.23-2 10.32 10.32 0 0 1 0-10.73Zm1.74 9.08a2.86 2.86 0 0 0 2.5 1.3q3.36 0 3.36-5a6.79 6.79 0 0 0-.85-3.74 3.09 3.09 0 0 0-5 0 6.69 6.69 0 0 0-.87 3.72 6.56 6.56 0 0 0 .86 3.72ZM111.6 397.9a4.54 4.54 0 0 1 1.9-2.52 5.78 5.78 0 0 1 3.25-.91 5.56 5.56 0 0 1 3.43 1 3.14 3.14 0 0 1 1.35 2.65 3.72 3.72 0 0 1-.6 2.12 3 3 0 0 1-1.54 1.2 3.35 3.35 0 0 1 1.71 1.09 3.46 3.46 0 0 1 .71 2.32 4.14 4.14 0 0 1-1.43 3.27 5.23 5.23 0 0 1-3.54 1.23 7.12 7.12 0 0 1-2.2-.34 5.53 5.53 0 0 1-2-1.19 4.62 4.62 0 0 1-1.32-2.08l2.08-1a3.28 3.28 0 0 0 1.33 1.57 3.53 3.53 0 0 0 1.92.59 3.37 3.37 0 0 0 2-.55 1.74 1.74 0 0 0 .8-1.52 1.58 1.58 0 0 0-.84-1.54 5.24 5.24 0 0 0-2.37-.44h-1.29v-2.28h1.36a3.55 3.55 0 0 0 2.08-.56 1.66 1.66 0 0 0 .79-1.41 1.5 1.5 0 0 0-.68-1.22 3.4 3.4 0 0 0-1.89-.48 3.12 3.12 0 0 0-1.85.5 3.78 3.78 0 0 0-1.18 1.47ZM124.62 406.67a1.42 1.42 0 0 1 1.09-.46 1.4 1.4 0 0 1 1.07.47 1.52 1.52 0 0 1 0 2.13 1.5 1.5 0 0 1-2.18 0 1.53 1.53 0 0 1-.43-1.09 1.5 1.5 0 0 1 .45-1.05ZM131.5 396.55a5.77 5.77 0 0 1 4.55-2 5.36 5.36 0 0 1 4.31 1.89l-1.26 1.77a4.31 4.31 0 0 0-3.08-1.23 3.81 3.81 0 0 0-2.87 1.21 4.56 4.56 0 0 0-1.16 3.38 4.81 4.81 0 0 1 1.71-1.61 4.61 4.61 0 0 1 2.3-.61 5 5 0 0 1 3.7 1.33 4.83 4.83 0 0 1 1.34 3.57 5 5 0 0 1-1.48 3.76 5.21 5.21 0 0 1-3.81 1.45 5.56 5.56 0 0 1-4.39-1.84 7.63 7.63 0 0 1-1.63-5.22 8.59 8.59 0 0 1 1.77-5.85Zm1.9 9.58a3.26 3.26 0 0 0 2.45.89 2.91 2.91 0 0 0 2-.75 2.48 2.48 0 0 0 .82-1.93 2.56 2.56 0 0 0-.76-2 3.13 3.13 0 0 0-2.19-.69 3.54 3.54 0 0 0-2.17.76 3 3 0 0 0-1.23 1.52 3.89 3.89 0 0 0 1.07 2.2ZM148.03 400.71a16.2 16.2 0 0 1-.92 1.93v6.61h-.69v-5.51a10 10 0 0 1-1 1.28 5.18 5.18 0 0 0-.41-.71 11 11 0 0 0 2.38-3.81Zm4.27 7.44c.51 0 .63-.3.67-1.93a2.76 2.76 0 0 0 .66.24c-.12 2-.4 2.38-1.36 2.38h-2.42c-1.13 0-1.64-.44-1.64-1.13s.17-1.28 3.88-5.56h-3.69v-.68h4.58l.46.25-.11.12c-4.18 4.71-4.42 5.38-4.42 5.82s.36.51.9.51ZM162.29 408.38c.38 0 .44-.25.49-1.72a2.37 2.37 0 0 0 .66.32c-.07 1.63-.27 2.09-1.1 2.09h-1.38c-.86 0-1.09-.25-1.09-1.07v-3.43h-1.8c-.18 2.06-.64 3.75-2.86 4.64a2.18 2.18 0 0 0-.45-.56c2.05-.78 2.41-2.28 2.55-4.08h-2.44v-.69h8.43v.69h-2.71v3.42c0 .33.08.39.46.39Zm.2-6.5h-6.78v-.68h6.79ZM89.09 418.75a5.2 5.2 0 0 0 2.91 3.34 3.59 3.59 0 0 0-.68.87 5.79 5.79 0 0 1-2.93-3.31 5.36 5.36 0 0 1-2.91 3.32 2.89 2.89 0 0 0-.7-.79 4.65 4.65 0 0 0 2.83-3.43h-2.68v-1h2.84c.08-.73.07-1.44.08-2.08h1c0 .64 0 1.36-.09 2.08h3.06v1ZM99.26 419.11c-.31.24-.66.49-1 .72a3.21 3.21 0 0 0 1.82 2.05 3.4 3.4 0 0 0-.61.76 3.88 3.88 0 0 1-1.94-2.34 1.94 1.94 0 0 1-.24.15 2.32 2.32 0 0 1-.37 2.16 1.15 1.15 0 0 1-.92.37h-.63a2.21 2.21 0 0 0-.25-.88 6.54 6.54 0 0 0 .7 0 .44.44 0 0 0 .42-.19 1.16 1.16 0 0 0 .22-.79 12 12 0 0 1-3.15 1.5 3.51 3.51 0 0 0-.48-.77 9.26 9.26 0 0 0 3.5-1.59c0-.1-.07-.2-.11-.3a12.94 12.94 0 0 1-2.81 1.27 4.36 4.36 0 0 0-.46-.72 9.66 9.66 0 0 0 2.91-1.14l-.21-.26a10.75 10.75 0 0 1-2.17.82 4.36 4.36 0 0 0-.48-.73 9.51 9.51 0 0 0 2.5-.82h-1.34v-.79h4.34v.79h-1.7a3.38 3.38 0 0 1-.47.35 3.07 3.07 0 0 1 .69.95 10.37 10.37 0 0 0 1.47-1.18Zm-5.33-1h-.91v-1.76h2.82a2.32 2.32 0 0 0-.19-.42l1-.28a4.47 4.47 0 0 1 .33.7h2.78v1.76h-.95v-.92h-4.87ZM103.31 416a13.18 13.18 0 0 1-.72 1.53v5.44h-.88v-4.08c-.2.25-.39.48-.59.69a7.94 7.94 0 0 0-.5-.95 8.38 8.38 0 0 0 1.84-2.91Zm3.08 4.26a5.86 5.86 0 0 0 1.78 1.7 3.79 3.79 0 0 0-.65.74 6.36 6.36 0 0 1-1.59-1.73v2H105v-2a6.27 6.27 0 0 1-1.69 1.68 3.44 3.44 0 0 0-.64-.74 5.51 5.51 0 0 0 1.88-1.69h-1.59v-.84h2v-.7h-1.46V416h4.09v2.68h-1.63v.7h2v.84Zm-2-2.36h2.29v-1h-2.29ZM111.5 416.31c-.2.66-.46 1.44-.67 2.05a2.53 2.53 0 0 1 .56 1.62 1.18 1.18 0 0 1-.35 1 .76.76 0 0 1-.43.17 2.58 2.58 0 0 1-.5 0 2 2 0 0 0-.21-.8h.33a.31.31 0 0 0 .21 0 .59.59 0 0 0 .14-.47 2.24 2.24 0 0 0-.53-1.42c.15-.48.31-1.11.43-1.63h-.64v6.14h-.81v-7h1.87Zm.65 2.07c-.2.17-.39.33-.59.48a6.23 6.23 0 0 0-.54-.76 7 7 0 0 0 2.3-2.48l.79.28a1.41 1.41 0 0 1-.13.24 7.83 7.83 0 0 0 2.19 1.75 4.6 4.6 0 0 0-.44.89 8.39 8.39 0 0 1-.82-.59v.67h-2.76Zm3.62 1.06a24.76 24.76 0 0 1-1.08 2.42h1.23v.81h-4.51v-.81h2.52a15.85 15.85 0 0 0 1-2.6Zm-3.64 2a13.31 13.31 0 0 0-.42-1.87l.71-.19a12 12 0 0 1 .46 1.84Zm2.65-3.39a11.31 11.31 0 0 1-1.26-1.23 10.32 10.32 0 0 1-1.05 1.23Zm-1.31 3.13a15.25 15.25 0 0 0-.3-1.84l.71-.11a16.86 16.86 0 0 1 .34 1.83ZM121.64 421.26a9.27 9.27 0 0 0 2.41.89 3.38 3.38 0 0 0-.58.74 9.31 9.31 0 0 1-2.68-1.28v1.36h-.92v-1.32a9.13 9.13 0 0 1-2.69 1.28 4.84 4.84 0 0 0-.6-.77 9.55 9.55 0 0 0 2.5-.9h-2.24v-.74h3v-.4h.92v.4h3.06v.74Zm-3.93-3.23-.42.36a2.94 2.94 0 0 0-.66-.61 6.09 6.09 0 0 0 1.85-2.09l.94.18c-.11.2-.24.39-.37.59h1.26a5.89 5.89 0 0 0-.24-.56l.83-.24a5.3 5.3 0 0 1 .38.8h2.22v.71h-2.38v.32h2v.6h-2v.29h2v.6h-2v.4h2.57v.7h-5v.21h-.92Zm2.49-.86h-1.57v.32h1.57Zm0 .92h-1.57v.29h1.57Zm0 .92h-1.57v.37h1.57ZM131.66 416v7h-1v-.27h-4.67v.27h-1v-7Zm-1 5.88v-5h-4.67v5Zm-.28-3.14h-.93v2c0 .42-.07.63-.34.77a2.34 2.34 0 0 1-1.08.16 3.32 3.32 0 0 0-.3-.83 5.58 5.58 0 0 0 .69 0c.11 0 .14 0 .14-.12v-1.05a8.13 8.13 0 0 1-1.86 1.38 3.32 3.32 0 0 0-.58-.62 7.23 7.23 0 0 0 2.08-1.68h-1.87v-.82h2.23v-.84h.89v.84h.93ZM134.19 419.48a10.51 10.51 0 0 0-1.45-.84l.49-.69a11.16 11.16 0 0 1 1.47.76Zm.91 1c-.41.81-.9 1.7-1.38 2.46l-.78-.62a24.56 24.56 0 0 0 1.47-2.46Zm-.48-3.13a11.1 11.1 0 0 0-1.45-.87l.51-.68a10.69 10.69 0 0 1 1.48.79Zm5.37 4.54v.88h-5.06v-.88h2.12v-1.59h-1.55v-.92h1.58v-1.37h-1.89v-.88h2.08a6.22 6.22 0 0 0-.55-1.19l.86-.29a6 6 0 0 1 .61 1.21l-.75.27h2.38v.88h-1.77v1.37h1.45v.89h-1.49v1.59ZM147.95 419.63h-.74v2.33c0 .44-.08.68-.35.83a2.46 2.46 0 0 1-1.17.17 2.85 2.85 0 0 0-.28-.87h.73c.12 0 .15 0 .15-.15v-2.32h-.79a6.94 6.94 0 0 1-.92 3.4 3 3 0 0 0-.6-.58.55.55 0 0 1-.29.33 2.33 2.33 0 0 1-1.13.16 3.65 3.65 0 0 0-.29-.82h.73c.11 0 .15 0 .15-.14v-2.36h-.73a6.34 6.34 0 0 1-1 3.42 4.57 4.57 0 0 0-.66-.66 5.06 5.06 0 0 0 .81-2.76h-.79v-.9h.72v-2.53h2.47v2.55h.58v-2.55h2.62v2.55h.74Zm-4.83-.9v-1.69h-.7v1.69h.7Zm.89 3.26a.71.71 0 0 1 0 .15 6 6 0 0 0 .58-2.51h-.57Zm2.28-3.26v-1.69h-.79v1.69ZM152.81 420.43c-.28 1.36-1 2.19-3.69 2.57a2.7 2.7 0 0 0-.42-.78c2.48-.27 3-.83 3.2-1.79Zm-1.59-2.05-2.16.77-.28-.85c.59-.16 1.45-.44 2.29-.72Zm-.64-1a7.68 7.68 0 0 0-1.57-.86l.46-.63a7.86 7.86 0 0 1 1.59.79Zm3.5 4.05v-1.21h-3.45v1.3h-.91v-2.14h5.33v2.05Zm-.19-4.39c0 .08-.05.16-.07.23a3.15 3.15 0 0 0 2.07 1.3 2.54 2.54 0 0 0-.53.72 3.58 3.58 0 0 1-1.88-1.28 3.36 3.36 0 0 1-2 1.36 2.33 2.33 0 0 0-.47-.67 2.4 2.4 0 0 0 1.94-1.66h-.61a3.72 3.72 0 0 1-.82.92 2.34 2.34 0 0 0-.64-.58 3.25 3.25 0 0 0 1.15-1.63l.87.14c-.05.15-.12.32-.18.47h2.37l.67.17a11.25 11.25 0 0 1-.54 1.32l-.81-.21c.06-.15.14-.35.21-.56Zm-1 4.21a23.86 23.86 0 0 1 2.89 1l-.58.73a23.86 23.86 0 0 0-2.84-1ZM161.79 418.16a6.65 6.65 0 0 0 2.19 2.82 3.75 3.75 0 0 0-.73.81 5.68 5.68 0 0 1-.83-.8v.68h-1.6v1.31h-1v-1.31h-1.62v-.7a7.12 7.12 0 0 1-.88.86 4.5 4.5 0 0 0-.68-.76 6.73 6.73 0 0 0 2.18-2.91h-1.91v-.95h2.92v-1.5h1v1.5h2.94v.95Zm-2 2.56v-2.56h-.05a9.51 9.51 0 0 1-1.38 2.56Zm2.38 0a9.47 9.47 0 0 1-1.36-2.56v2.56Z"/><path class="f" d="M34.58 65.14c0-1.15 0-3.08.1-5.79v-6.09c-.48.54-1.16 1.25-2 2.13l-.31-.4a54.54 54.54 0 0 0 3.25-9.45 22 22 0 0 0 .41-2.54 9.44 9.44 0 0 1 .2-1.32l4.16.92q.51 0 .51.3c0 .41-.4.75-1.22 1a39.27 39.27 0 0 1-2.33 5.28l1 .1c.34.14.51.3.51.51s-.34.57-1 .91v13.43a.72.72 0 0 1-.61.81 19.61 19.61 0 0 1-2.67.2Zm4.46-1.83c.07-2 .11-3.72.11-5.07v-5.69l2.64.81v-4.67h-3.36v-.61h3.36v-.41c0-2 0-3.79-.11-5.48l3.86.3c.34 0 .55.14.61.41s-.44.71-1.11.91v4.27h.1l1.36-1.93 2.13 1.73a40.25 40.25 0 0 0 .81-6l4.37.91c.34.14.51.27.51.41 0 .4-.41.71-1.22.91-.07.14-.17.37-.3.71a16.51 16.51 0 0 1-1.3 2.85h1.62l1.42-2.13 2.85 2c.2.21.23.38.1.51s-.31.2-.71.2h-.71q-.31 6.51-2.24 10.06a16.23 16.23 0 0 0 4.06 2.33v.41q-1.62.51-2.84 3.86a17.42 17.42 0 0 1-3.35-3.66 19.35 19.35 0 0 1-6.4 4.07l-.2-.41a23.21 23.21 0 0 0 5.28-6.3 25.57 25.57 0 0 1-1.32-7c-.14.2-.37.54-.71 1a1.13 1.13 0 0 0-.41.41l.31.1c.27.07.4.2.4.4 0 .41-.3.78-.91 1.12v1.63c0 1.56 0 3.25.1 5.08a.64.64 0 0 1-.61.81c-.75.07-1.62.17-2.64.3v-1.18h-2.34v.92c0 .54-.3.84-.91.91a10.83 10.83 0 0 1-2.3.2Zm5.59-9h-2.34v6.39h2.34Zm3.66-5.59h-3.25v4.27l.5-1 1.73.71c.41-1.35.81-2.67 1.22-4Zm1.42 2.13a30.87 30.87 0 0 0 1.93 4.67 26.05 26.05 0 0 0 .91-7.21h-1.32a13.55 13.55 0 0 1-1.52 2.51ZM79.22 49.91l4 3c.27.2.37.37.3.5a.88.88 0 0 1-.81.31h-23v-.71h17.26ZM105.88 63.82a13.75 13.75 0 0 1-4.38-8.63 13.94 13.94 0 0 0-1.63.51 9.6 9.6 0 0 1 .51 3.25q.3 5.79-5.79 6.29 0-2.73-3.35-3.65v-.1c-1 .4-2.64.91-4.88 1.52l-.91.3-.1-.4a47.61 47.61 0 0 0 11.17-8 1.67 1.67 0 0 1-.1-.51 41.49 41.49 0 0 1-10.77 4.57l-.1-.41a43.38 43.38 0 0 0 9.55-6.9l-.1-.11a30.52 30.52 0 0 1-9.14 3.15l-.1-.3a30.2 30.2 0 0 0 7.74-5.41h-4v-.61h12.19l1.52-2 1.12.71.51-1.42h-15a1.5 1.5 0 0 0 .1.41v.51q-.21 2.83-2.64 3.15a1.66 1.66 0 0 1-1.73-1.73 1.8 1.8 0 0 1 .92-1.83 5.36 5.36 0 0 0 2.33-2.94h.21c.26.6.5 1.21.71 1.82h6.09a7 7 0 0 0-.3-.71 8.41 8.41 0 0 0-.92-2.64l.1-.2c3.12 0 4.67.68 4.67 2a1.77 1.77 0 0 1-.91 1.52h6l1.42-2 3.56 2.24c.41.27.57.5.51.71-.07.47-.61.68-1.63.61a15.58 15.58 0 0 1-3.15 1.22l.92.61c.27.13.34.27.2.4s-.3.2-.71.2h-6.8a27.7 27.7 0 0 1-2.95 2 9.41 9.41 0 0 1 3.66 3.66 23.11 23.11 0 0 0 5-5.08l3.25 2.64c.27.14.41.31.41.51.07.41-.51.55-1.73.41a38.2 38.2 0 0 1-4 1.62 12.45 12.45 0 0 0 7.21 5.18l-.2.51c-1.36.27-2.54 1.39-3.56 3.35Zm-9-5.18a30.78 30.78 0 0 1-5 2.54l2.54.1c1.69.14 2.5-.67 2.44-2.43ZM112.34 65.45l-.1-.41q6.6-2.75 8.22-4.87 1.94-1.94 1.83-6.61a25.16 25.16 0 0 0-.1-2.64l4.57.41c.47 0 .71.14.71.41s-.4.71-1.22 1.11v1.32a13.15 13.15 0 0 1-.81 4.88q9.54.92 9.35 3.76a2.17 2.17 0 0 1-2.14 2.33 2.84 2.84 0 0 1-1.83-1 18.62 18.62 0 0 0-5.78-4.27q-2.04 3.95-12.7 5.58Zm16.86-6.07v-9.67h-9.85v9.54a.74.74 0 0 1-.61.71c-.2 0-.54 0-1 .1a21.32 21.32 0 0 1-2.13.21v-2.13c.07-2.31.1-4.07.1-5.29v-1.93a17.55 17.55 0 0 1-3.05 2.24l-.3-.31a36.19 36.19 0 0 0 5.79-11.37l4.47.91c.4.14.61.31.61.51q-.1.61-1.53.81a8.33 8.33 0 0 1-.91 1.32h3.45l1.53-1.82 3.65 2.23c.27.14.41.3.41.51-.07.54-.61.78-1.63.71a14.87 14.87 0 0 1-3.45 2.33h4l1.12-1.93 3.86 1.53c.4.2.57.4.51.61s-.31.68-1.12 1.22v2.84c.06 2.17.1 3.72.1 4.67.07.48-.2.78-.81.92-1.08.2-2.13.37-3.21.53Zm-8.84-13.71a17.34 17.34 0 0 1-2.33 2.95l1.72.4h3.56l1.42-3.35ZM159.01 47.98l3.15 2q.4.3.21.51c-.07.13-.31.2-.72.2h-23.66v-.61h10.36v-2.3h-7.72v-.61h7.72v-2h-9.24v-.61h9.24c0-1.43 0-2.41-.1-2.95l4.47.41c.33 0 .5.1.5.3s-.3.58-1.11.92v1.32h4.67l1.42-2.18 3.15 1.93c.34.21.44.41.3.61a1.33 1.33 0 0 1-.91.21h-4l2.94 1.92c.27.21.38.38.31.51a1.35 1.35 0 0 1-.91.21h-7v2.33h5.28Zm-.61 17.47a2.27 2.27 0 0 1-1.52-.81 18.81 18.81 0 0 0-6.19-3.76q-2 4-11.89 4.36l-.1-.4q9.14-2.23 9.34-6.81a15.88 15.88 0 0 0 .11-3.14l4.47.5c.2 0 .3.1.3.31s-.27.64-1 .91a9.57 9.57 0 0 1-.91 3.66q10.15.51 9.24 3c-.09 1.4-.7 2.11-1.85 2.18Zm-3.75-4.88v-6.8h-9v6.5a.74.74 0 0 1-.71.81 16.61 16.61 0 0 1-2.44.3 1.89 1.89 0 0 1-.51.1c.07-1.56.1-3 .1-4.37v-1.62c0-1.15 0-2.26-.1-3.35l4.57 1h7.72l1-1.83 3.65 1.42a.4.4 0 0 1 .31.41c0 .34-.31.74-.92 1.22v1.22c0 1.89 0 3.18.1 3.86 0 .4-.23.67-.71.81a15.67 15.67 0 0 1-3.06.32Zm-2.54-13.4h3l1.53-2h-4.57ZM166.89 65.04c.07-3.11.1-6.06.1-8.83v-3.46a23.11 23.11 0 0 1-2.74 2.54l-.3-.2a42.83 42.83 0 0 0 3.86-9.85c.2-.75.44-1.83.71-3.25a2 2 0 0 0 .1-.51l4.67 1.22q.51.2.51.51c-.07.4-.51.71-1.32.91a37.37 37.37 0 0 1-2.14 4.06l1 .1c.41.14.61.31.61.51s-.41.65-1.22.92v14.11a.92.92 0 0 1-.91 1 21.7 21.7 0 0 1-2.93.22Zm18.28-14.22 3.33 2.44c.27.2.34.41.21.61s-.31.2-.71.2h-6.81v8.84h2.13l1.63-2.34 3.15 2.24c.27.13.34.3.2.5s-.3.21-.71.21h-15.72v-.61h5.48v-8.84h-6.09v-.69h6.09v-6.7q-2.53.11-5.58.3l-.11-.5q8.85-2.44 12-4.57l3.25 3a.85.85 0 0 1 .41.61c0 .2-.21.34-.61.41a4.11 4.11 0 0 1-1-.21c.07 0 0 0-.3-.1-1.36.27-2.75.51-4.17.71v7h2ZM197.92 63.21v-2.13h-2.53v1.52a1 1 0 0 1-.92 1.22 7.35 7.35 0 0 1-1.32.21c-.68.06-1.15.1-1.42.1.13-3.12.2-5.89.2-8.33v-3.35q0-3.25-.1-6.4l2.74.71a30.13 30.13 0 0 0-.2-5.08l4.27.61c.4 0 .57.1.5.31-.06.4-.44.71-1.11.91a21.6 21.6 0 0 1-2.24 3.45l.1.1h1.53l1.08-1.82 3.25 1.42c.27.14.41.3.41.51s-.24.54-.71 1a1.52 1.52 0 0 1-.2.31v4.36a49.29 49.29 0 0 0 2.13-8.12c.13-1.35.2-2.37.2-3.05l4.88 1a.35.35 0 0 1 .4.4q.11.62-1.32 1a24.86 24.86 0 0 1-1.32 2.84h3.46l1.11-2 3.71 1.65a.27.27 0 0 1 .3.3c.07.27-.23.71-.91 1.32q0 3.87-.2 12.19c.06 3-1.93 4.54-6 4.67q.1-2.43-4-3.86l.11-.4 4.26.2c1.15.2 1.73-.31 1.73-1.52q.4-5.28.4-11.89h-4.26a34.6 34.6 0 0 1-1.93 3q4.88 1.73 4.77 4a2.43 2.43 0 0 1-2.27 2.55 1.24 1.24 0 0 1-1.43-1.22 17.73 17.73 0 0 0-1.57-4.67 14.85 14.85 0 0 1-2.13 2.44h-.1v4.06c.06 2.37.1 3.89.1 4.57 0 .34-.21.54-.61.61a11.25 11.25 0 0 1-2.84.3Zm0-15.54h-2.53v6h2.53Zm-2.53 6.61v6.19h2.53v-6.19ZM74.78 96.38c.06-3 .1-6 .1-8.83v-3.66a31.82 31.82 0 0 1-2.54 2.84l-.3-.3a61.5 61.5 0 0 0 3.35-10.26 19.72 19.72 0 0 0 .5-3.55l4.58 1c.33.07.5.24.5.51s-.44.71-1.32.91a29.78 29.78 0 0 1-1.83 4.17l1.12.1c.41 0 .61.14.61.41s-.3.5-1.12.91v14.22a1.07 1.07 0 0 1-.91 1.32 20.21 20.21 0 0 1-2.74.21Zm19.19-1.72a12 12 0 0 1-4.47-7.82v3c0 1.83 0 3.56.11 5.18 0 .61-.14 1-.41 1a18.63 18.63 0 0 1-3.56.3q.11-4.47.11-6.19v-.1a20.22 20.22 0 0 1-6.91 4.57l-.3-.31a31.94 31.94 0 0 0 5.68-7.92h-5.08v-.61h6.61v-3.33l4.36.3c.34 0 .51.11.51.31s-.3.71-1.12 1.12v1.62h2.75l1.52-2.23 2.95 2c.26.2.37.37.3.51a.93.93 0 0 1-.81.3h-6.2a14.09 14.09 0 0 0 7.11 4.37v.4q-1.72.54-3.15 3.49Zm-3.15-11.38v-1.66h-6.19v.76a.83.83 0 0 1-.41.81 16.77 16.77 0 0 1-3.25.3c.07-1.28.1-2.94.1-5v-2.11c0-1.22 0-2.17-.1-2.85l4.37 1.22h4.88l1.21-2 3.56 1.52q.6.21.51.51c0 .34-.34.71-1 1.12v2.23c0 1 0 2.37.1 4.06 0 .41-.13.61-.4.61a12.62 12.62 0 0 1-3 .51Zm0-7.92h-6.19v5.69h6.19ZM103.88 91.87c-.14-1.42-.51-2.33-1.12-2.74v6.1c.07.54-.1.81-.5.81a15.32 15.32 0 0 1-3.15.3q.19-5.79.2-12.29v-4.16c0-1.63-.07-3.72-.2-6.3l4.37 1h1.11l1.12-1.73 3.86 2.13a.61.61 0 0 1 .3.51c.07.41-.4.68-1.42.82a50.18 50.18 0 0 1-4.37 5.28 12.41 12.41 0 0 1 2.54 2.43 32.62 32.62 0 0 0 4.37-8.73 10.77 10.77 0 0 0 .71-2.84l4.57 1.11c.27 0 .41.1.41.31 0 .4-.44.74-1.32 1a15.49 15.49 0 0 0 8.22 5.28l-.1.41c-1.22.48-2.23 1.69-3 3.66a14 14 0 0 1-5.49-8.64 21.08 21.08 0 0 1-8 8.84 5.67 5.67 0 0 1 1 3.15q-.05 3.48-4.11 4.29Zm1-16.65h-2.14v12.9l.72.1c.81 0 1.18-.47 1.11-1.42a10.67 10.67 0 0 0-1.42-5.08Zm15.43 16.86 2.95 2.33c.2.21.27.37.2.51a1 1 0 0 1-.71.2h-16.74v-.61h9.25a58.4 58.4 0 0 0 2.13-10l4.57 1.42c.2 0 .3.14.3.41s-.44.61-1.32.81a38.54 38.54 0 0 1-4.36 7.41h2Zm-10.15.71c-.75 0-1.15-.41-1.22-1.22a14.91 14.91 0 0 0-1-5.59l.21-.2q4.36 2.34 4.26 4.57a2.35 2.35 0 0 1-2.23 2.44Zm5.38-12.29 2.74 2.13c.21.14.27.27.21.41a1 1 0 0 1-.71.2h-7.93v-.61h4.17Zm-1.6 9.88a1.16 1.16 0 0 1-1.22-1.12 11.14 11.14 0 0 0-1.22-5.18l.2-.2c3.11 1.29 4.64 2.64 4.57 4.06a2.38 2.38 0 0 1-2.33 2.44ZM125.27 86.38l-.31-.3a46 46 0 0 0 5.38-8.94 16.55 16.55 0 0 0 1-3.35l4.79 1.59c.48.14.68.31.61.51 0 .54-.57.81-1.72.81a26.17 26.17 0 0 1-9.75 9.68Zm18.89 9.55a1.53 1.53 0 0 1-1.73-1.43 5.15 5.15 0 0 1-.2-.91c-.14-.47-.34-1.12-.61-1.93-2.58.81-6.33 1.86-11.28 3.15-.13.81-.4 1.22-.81 1.22s-.54-.2-.61-.61l-1.42-4.36a2.87 2.87 0 0 0 2.54-1.32 25.74 25.74 0 0 0 4.16-9.55l4.88 1.53c.41.07.61.24.61.51s-.51.74-1.73 1a44 44 0 0 1-6 7.62l9-.41a22.53 22.53 0 0 0-2.46-4.56l.41-.4q8.12 4.26 8 7.41a2.92 2.92 0 0 1-2.75 3.05Zm1.62-10.67q-5-2.94-7.21-10.36a5.78 5.78 0 0 0-1-2l2.94.31c.2 0 .31.06.31.2s-.31.58-1.12.91a14.86 14.86 0 0 0 9.8 6.59l-.1.4q-2.3.72-3.62 3.96ZM165.24 76.74l3.26 2.34c.27.13.34.3.2.51s-.3.2-.71.2h-16v-.61h11.38Zm-2.95 14.64v-1.43h-5.18v1.43c0 .34-.13.54-.4.61a17.87 17.87 0 0 1-3.36.4c.14-1.49.21-3.15.21-5v-1.71c0-1.69 0-2.88-.1-3.56l4 1h4.47l1-1.83 3.57 1.44c.27.07.4.21.4.41s-.34.68-1 1.22v1c0 2 0 3.66.1 5.08 0 .21-.14.38-.41.51a15.25 15.25 0 0 1-3.3.43Zm5.38 5c.07-1.89-1.21-3.15-3.85-3.75v-.51l4.26.2q1.43.1 1.32-1.32V75.52h-15.84v-.61h15.33l1.32-2.13 3.76 1.6a.47.47 0 0 1 .41.5c0 .34-.38.78-1.12 1.32v5.89c.07 5 .1 8.5.1 10.67q.51 3.08-5.69 3.62Zm-5.38-12.59h-5.18v5.48h5.18Z"/><circle class="f" cx="19.06" cy="54.5" r="3.06"/><circle class="f" cx="228.89" cy="54.5" r="3.06"/><path class="g" d="M10.7 134.56a8.27 8.27 0 0 0 4.45 5.43 4.46 4.46 0 0 0-.63.79 9.17 9.17 0 0 1-4.51-5.6 7.9 7.9 0 0 1-4.51 5.6 2.59 2.59 0 0 0-.64-.69 7.35 7.35 0 0 0 4.41-5.53H5.09v-.86H9.4a24 24 0 0 0 .17-3.22h.93a25.76 25.76 0 0 1-.18 3.22h4.67v.86ZM25.5 135.04a20.85 20.85 0 0 1-1.75 1.28 5.38 5.38 0 0 0 3 3.32 3 3 0 0 0-.54.69 6.14 6.14 0 0 1-3.12-3.59c-.17.11-.37.23-.54.32.39 1.46.11 2.85-.51 3.33a1.55 1.55 0 0 1-1.15.39h-1a1.74 1.74 0 0 0-.22-.79c.41 0 .78.06 1 .06a.93.93 0 0 0 .72-.24 2.32 2.32 0 0 0 .45-1.95 17.08 17.08 0 0 1-4.85 2.42 3.33 3.33 0 0 0-.44-.71 13 13 0 0 0 5.13-2.49 4.31 4.31 0 0 0-.31-.79 18 18 0 0 1-4.2 2 3 3 0 0 0-.43-.66 13.55 13.55 0 0 0 4.29-1.88 3.69 3.69 0 0 0-.54-.67 16.45 16.45 0 0 1-3.19 1.3 3.55 3.55 0 0 0-.47-.67 13 13 0 0 0 4-1.64h-2.59v-.74h6.52v.74H22a7.4 7.4 0 0 1-.81.6 5.16 5.16 0 0 1 1.16 1.73 19.49 19.49 0 0 0 2.47-1.89Zm-7.82-1.25h-.81v-2.32h4.25c-.13-.29-.28-.58-.42-.83l.86-.25a6.47 6.47 0 0 1 .55 1.08h4.18v2.32h-.79v-1.54h-7.76ZM31.39 130.73a17.1 17.1 0 0 1-1.16 2.35v7.69h-.8v-6.45a14.06 14.06 0 0 1-1.21 1.45 7.22 7.22 0 0 0-.48-.82 12.74 12.74 0 0 0 2.86-4.46Zm4.14 6a8.82 8.82 0 0 0 3 2.92 4.33 4.33 0 0 0-.6.67 10.14 10.14 0 0 1-2.87-3.07v3.55h-.83v-3.51a9.65 9.65 0 0 1-3 3 3.72 3.72 0 0 0-.58-.67 8.46 8.46 0 0 0 3.12-2.9h-2.8v-.77h3.29v-1.4h-2.45v-3.58h5.83v3.58h-2.55v1.4h3.17v.77Zm-3-2.92h4.2v-2.07h-4.2ZM43.17 131.21c-.33.92-.75 2-1.12 2.93a3.57 3.57 0 0 1 1 2.44 1.6 1.6 0 0 1-.44 1.33 1.34 1.34 0 0 1-.59.21 3.63 3.63 0 0 1-.74 0 1.75 1.75 0 0 0-.22-.74 5 5 0 0 0 .66 0 .6.6 0 0 0 .34-.1 1 1 0 0 0 .24-.78 3.38 3.38 0 0 0-1-2.29c.31-.82.65-1.79.89-2.55h-1.42v9.09h-.75v-9.85h2.61Zm1.28 2.8a13.51 13.51 0 0 1-1.14.92 4 4 0 0 0-.5-.68 9.37 9.37 0 0 0 3.41-3.87l.74.26c-.07.13-.14.27-.2.4a12.28 12.28 0 0 0 3.29 3.05 2.84 2.84 0 0 0-.44.75 14.58 14.58 0 0 1-3.25-3.13 12 12 0 0 1-1.87 2.25h3.76v.72H44.5Zm5 1.7a39.26 39.26 0 0 1-1.75 3.81h2.11v.74h-6.6v-.74h3.78a25 25 0 0 0 1.71-4Zm-5 0a15.37 15.37 0 0 1 .76 2.69l-.71.19a13 13 0 0 0-.71-2.71Zm1.93 2.55a21.38 21.38 0 0 0-.45-2.7l.67-.09a19.42 19.42 0 0 1 .47 2.68ZM57.38 138.08a12.22 12.22 0 0 0 4.08 1.83 3.88 3.88 0 0 0-.53.68 12.92 12.92 0 0 1-4.33-2.21v2.43h-.83v-2.43a12.84 12.84 0 0 1-4.27 2.3 3 3 0 0 0-.55-.69 12.66 12.66 0 0 0 4.1-1.91H51.2v-.7h4.57v-.76h.83v.76h4.64v.69Zm-4.88-4.81a12.42 12.42 0 0 1-1 .91 2.56 2.56 0 0 0-.6-.54 9.61 9.61 0 0 0 2.63-3.19l.86.16c-.19.33-.4.71-.65 1.06h2.57a9.78 9.78 0 0 0-.52-1l.75-.23a6.45 6.45 0 0 1 .64 1.25h3.32v.69h-3.63v.76h3.18v.6h-3.18v.74h3.21v.6h-3.21v.79h4v.68H53.3v.33h-.8Zm3.56-.92h-2.74v.76h2.74Zm0 1.36h-2.74v.74h2.74Zm0 1.34h-2.74v.79h2.74ZM72.43 130.96v9.85h-.88v-.43h-7.6v.47h-.85V131Zm-.88 8.61v-7.83h-7.6v7.83Zm-.66-5.17h-1.74v3.58c0 .44-.09.65-.4.78a3.9 3.9 0 0 1-1.47.16 2.66 2.66 0 0 0-.27-.76h1.13c.15 0 .19-.05.19-.18v-2.6a13.23 13.23 0 0 1-3.26 2.65 3.17 3.17 0 0 0-.54-.57 11.3 11.3 0 0 0 3.53-3H64.7v-.76h3.63v-1.43h.82v1.43h1.74ZM78.18 132.71c-.22.44-.44.9-.69 1.31h5.45v5.72c0 .51-.11.76-.47.9a7.25 7.25 0 0 1-2 .14 3 3 0 0 0-.27-.82h1.63c.21 0 .26-.07.26-.24v-1.18H77.4v2.23h-.83v-5.39a9.17 9.17 0 0 1-1.89 1.79 3.88 3.88 0 0 0-.53-.65 9.39 9.39 0 0 0 3.11-3.77h-2.84v-.79h3.19c.19-.49.36-1 .5-1.46l.84.2c-.14.42-.27.85-.44 1.26h5.76v.79Zm3.94 2.07H77.4v1.15h4.72Zm0 3.06v-1.18H77.4v1.18ZM89.67 131.22c-.34.91-.74 2-1.13 2.92a3.61 3.61 0 0 1 1 2.47 1.59 1.59 0 0 1-.44 1.3 1.17 1.17 0 0 1-.6.21 3.71 3.71 0 0 1-.75 0 1.88 1.88 0 0 0-.21-.75 3.61 3.61 0 0 0 .65 0 .69.69 0 0 0 .36-.1 1.06 1.06 0 0 0 .23-.78 3.36 3.36 0 0 0-1-2.3c.33-.82.67-1.79.9-2.54h-1.64v9.09h-.75v-9.86h2.83Zm6.19 5.63a16.58 16.58 0 0 1-2 1.35 4.84 4.84 0 0 0 2.18 1.8 3.69 3.69 0 0 0-.57.72c-1.77-.84-2.82-2.57-3.39-4.82h-1.09v3.73l2-.49a5.88 5.88 0 0 0 0 .77 14.33 14.33 0 0 0-2.9.9 2.2 2.2 0 0 0-.37-.69.84.84 0 0 0 .42-.8v-8.36h5v4.94h-2.31a7.35 7.35 0 0 0 .67 1.7 20.19 20.19 0 0 0 1.76-1.33Zm-4.82-5.15v1.36h3.32v-1.36Zm0 3.47h3.32v-1.41h-3.32ZM107.42 134.1v.68H97.5v-.68h4.54v-.78h-3.39v-.62h3.39v-.75h-3.92v-.67h3.92v-.81h.85v.81h4v.67h-4v.75h3.53v.62h-3.53v.78Zm-4.58 3.42c0 1.11-.5 2.44-4.74 3.29a2.59 2.59 0 0 0-.52-.67c4.07-.72 4.4-1.81 4.4-2.63v-1h.86Zm2.31 1.2v-2.54h-5.41v2.61h-.82v-3.34h7.1v3.27Zm-2-.16a26.14 26.14 0 0 1 4.19 1.57l-.44.7a24.67 24.67 0 0 0-4.16-1.65ZM112.5 130.72a18.53 18.53 0 0 1-1.2 2.4v7.69h-.8v-6.43a11.2 11.2 0 0 1-1.34 1.53 4.08 4.08 0 0 0-.52-.84 12.43 12.43 0 0 0 3.07-4.58Zm3.46 5.36v3.48h3v.82h-6.76v-.82h2.91v-3.48h-3.34v-.81h3.34v-3c-.9.16-1.84.3-2.7.4a3.88 3.88 0 0 0-.26-.72 32.9 32.9 0 0 0 5.92-1.22l.62.7a24.23 24.23 0 0 1-2.74.69v3.14h3.19v.81ZM124.5 131.05a13.58 13.58 0 0 1-3.18 4.65 7.68 7.68 0 0 0-.78-.6 10.67 10.67 0 0 0 3.06-4.3Zm3.11 5.42a30 30 0 0 1 2.7 3.8l-.82.46a12.55 12.55 0 0 0-.75-1.27c-5.94.41-6.55.44-7 .6a5.13 5.13 0 0 0-.33-.88c.3-.07.6-.41 1-.94a25.69 25.69 0 0 0 2.72-4.35l.9.41a28 28 0 0 1-3.14 4.69l5.26-.31c-.45-.64-.94-1.29-1.38-1.85Zm-.18-5.75a14.29 14.29 0 0 0 3.35 4.27 4.71 4.71 0 0 0-.7.71 19 19 0 0 1-3.48-4.66ZM141.5 139.55c0 .58-.13.87-.51 1a7.33 7.33 0 0 1-2.11.16 3.11 3.11 0 0 0-.29-.91h1.79c.23 0 .27-.07.27-.28v-7.55h-8.15v-.81h9Zm-2.14-5.62h-6.86v-.75h6.77Zm-5.23 4.82v.82h-.83v-4.42h5.2v3.6Zm0-2.86V138h3.63v-2.11ZM150.85 135.63a7.51 7.51 0 0 1 2.25-5.39l.68.35a7.1 7.1 0 0 0 0 10.08l-.68.35a7.51 7.51 0 0 1-2.25-5.39ZM159.9 136.83a4.11 4.11 0 0 0 .22.79c-3.26 1.57-3.67 1.8-4 2a2.52 2.52 0 0 0-.46-.69 1.25 1.25 0 0 0 .68-1v-6.55h.89v6.71Zm4.8 3.94a17.23 17.23 0 0 0-2.29-2.69 7.16 7.16 0 0 1-3.31 2.79 4.57 4.57 0 0 0-.63-.72c3.63-1.44 4.41-4.23 4.67-9.24l.88.05a17.92 17.92 0 0 1-1.21 6.37 23.29 23.29 0 0 1 2.62 2.9Zm-4.2-6.18a14.41 14.41 0 0 0-1.7-2.69l.71-.38a14.1 14.1 0 0 1 1.75 2.63ZM171.98 132.14v2l.14-.17a27.33 27.33 0 0 1 4 2.38l-.59.78a25.71 25.71 0 0 0-3.58-2.3v5.91h-.9v-8.6h-4.32v-.84h10v.84ZM180.06 132.11a7.39 7.39 0 0 1-1.12 1.4 3.69 3.69 0 0 0-.7-.46 6.16 6.16 0 0 0 1.77-2.61l.8.19a7.51 7.51 0 0 1-.34.77h2.72v.71h-1.57a6.44 6.44 0 0 1 .48 1l-.73.28a7.62 7.62 0 0 0-.6-1.3Zm-1.17 2.71h.81v6h-.81Zm1.22-1.58a7.93 7.93 0 0 1 1.17 1.41l-.67.43a7.11 7.11 0 0 0-1.13-1.43Zm1.81 6v.56h-.78v-4.42h4.36v3.88Zm5.81.52c0 .5-.14.72-.52.86a8.71 8.71 0 0 1-2.06.11 3.13 3.13 0 0 0-.28-.73h1.75c.2 0 .28-.06.28-.24v-5.38h-5.28v-.76h6.11Zm-5.81-3.74v.93h2.78v-.93Zm2.78 2.55v-1h-2.78v1Zm3.43-7.2v.71h-1.83a6.5 6.5 0 0 1 .56 1l-.74.33a6.07 6.07 0 0 0-.73-1.3h-.89a5.78 5.78 0 0 1-.9 1.2 7.32 7.32 0 0 0-.68-.46 5.9 5.9 0 0 0 1.43-2.4l.79.18a5.46 5.46 0 0 1-.28.77ZM197.41 132.74v7c0 .48-.1.71-.4.84a4.09 4.09 0 0 1-1.5.16 3.5 3.5 0 0 0-.29-.8h1.16c.15 0 .21-.05.21-.21v-7h-1.09a9.62 9.62 0 0 1-1.08 2.25 4.49 4.49 0 0 0-.71-.44v-.07h-1.33v.43a43.6 43.6 0 0 1 1.45 1.62l-.48.66c-.18-.31-.61-.95-1-1.44v5.07h-.78v-5a12.35 12.35 0 0 1-1.57 2.94 4.67 4.67 0 0 0-.42-.72 11.64 11.64 0 0 0 1.92-3.55h-1.64v-.8h1.75v-1.83c-.48.1-1 .18-1.41.25a3.25 3.25 0 0 0-.24-.65 16 16 0 0 0 3.38-.89l.5.66a10.84 10.84 0 0 1-1.45.45v2h1.43v.71a10.32 10.32 0 0 0 1.41-3.85l.8.15c-.09.45-.2.89-.31 1.31h3.75l.54.16c-.26.69-.6 1.45-.91 2.09l-.74-.18c.21-.4.42-.85.59-1.25Zm-1.64 2.25a11.65 11.65 0 0 1-1.45 4 3.53 3.53 0 0 0-.69-.43 9.62 9.62 0 0 0 1.36-3.72Zm3-.24a19.15 19.15 0 0 1 1.17 3.88l-.77.25a21.54 21.54 0 0 0-1.12-3.93ZM209.5 130.77a1.74 1.74 0 0 0-1 1.4.51.51 0 0 1 .32-.09.68.68 0 0 1 .7.72.74.74 0 0 1-.77.74 1 1 0 0 1-.88-1.08 2.37 2.37 0 0 1 1.4-2.12Zm2.17 0a1.74 1.74 0 0 0-1 1.4.48.48 0 0 1 .31-.09.69.69 0 0 1 .71.72.74.74 0 0 1-.77.74 1 1 0 0 1-.89-1.08 2.39 2.39 0 0 1 1.37-2.08ZM219.13 138.08a12.13 12.13 0 0 0 4.08 1.83 4.48 4.48 0 0 0-.54.68 13 13 0 0 1-4.32-2.23v2.43h-.85v-2.41a12.84 12.84 0 0 1-4.29 2.31 3 3 0 0 0-.55-.69 12.51 12.51 0 0 0 4.09-1.91h-3.82v-.71h4.57v-.76h.83v.76h4.64v.69Zm-4.85-4.81a10.75 10.75 0 0 1-1 .91 2.56 2.56 0 0 0-.6-.54 9.61 9.61 0 0 0 2.63-3.19l.86.16c-.2.33-.4.71-.65 1.06h2.57c-.15-.33-.34-.71-.52-1l.75-.23a6.45 6.45 0 0 1 .64 1.25h3.32v.69h-3.64v.76h3.19v.6h-3.19v.74h3.22v.6h-3.22v.79h4v.68h-7.56v.33h-.83Zm3.57-.92h-2.74v.76h2.74Zm0 1.36h-2.74v.74h2.74Zm0 1.34h-2.74v.79h2.74ZM234.18 130.96v9.85h-.88v-.43h-7.6v.47h-.85V131Zm-.88 8.61v-7.83h-7.6v7.83Zm-.66-5.17h-1.74v3.58c0 .44-.09.65-.4.78a3.9 3.9 0 0 1-1.47.16 2.66 2.66 0 0 0-.27-.76h1.13c.15 0 .19-.05.19-.18v-2.6a13.23 13.23 0 0 1-3.26 2.65 3.17 3.17 0 0 0-.54-.57 11.41 11.41 0 0 0 3.53-3h-3.31v-.76h3.63v-1.43h.82v1.43h1.74ZM235.84 133.15a1.71 1.71 0 0 0 1-1.39.54.54 0 0 1-.31.09.69.69 0 0 1-.71-.72.73.73 0 0 1 .77-.74 1 1 0 0 1 .89 1.08 2.4 2.4 0 0 1-1.41 2.11Zm2.17 0a1.71 1.71 0 0 0 1-1.39.58.58 0 0 1-.32.09.69.69 0 0 1-.7-.72.73.73 0 0 1 .77-.74 1 1 0 0 1 .9 1.08 2.39 2.39 0 0 1-1.42 2.11ZM244.75 135.63a7.51 7.51 0 0 1-2.25 5.39l-.68-.35a7.07 7.07 0 0 0 0-10.08l.68-.35a7.51 7.51 0 0 1 2.25 5.39ZM8.69 152.65v8.1h-.85v-.65h-7v.71H0v-8.16h3.89v-2.17h.83v2.17Zm-7.85.84v2.45h3v-2.45Zm0 5.79h3v-2.52h-3Zm3.88-5.79v2.45h3.12v-2.45Zm3.12 5.79v-2.52H4.72v2.52ZM20.56 152.3v5.65h-1.42v-.57h-2.56v3.53h-1.42v-3.53h-2.55v.62h-1.36v-5.71h3.91v-2h1.42v2Zm-5.4 3.76v-2.43h-2.55v2.43Zm4 0v-2.43H16.6v2.43ZM32.19 150.79v10.13h-1.44v-.54h-6.7v.57h-1.37v-10.16Zm-1.44 8.32v-7.09h-6.7v7.09Zm-.4-1.76v1.1H24.5v-1.07h2.28v-1.33H24.9v-1.17h1.87v-1.06h-2.16v-1.18h5.56v1.18h-2.16v1.06h1.91v1.14h-.62a7.83 7.83 0 0 1 .85 1l-.59.33Zm-2.34 0h1.13a8.47 8.47 0 0 0-.77-1l.69-.35h-1.05ZM37.5 150.77a18.09 18.09 0 0 1-1 2.24v7.89h-1.28v-5.92a12.42 12.42 0 0 1-.86 1 9.2 9.2 0 0 0-.73-1.38 11.84 11.84 0 0 0 2.68-4.23Zm4.46 6.2a8.68 8.68 0 0 0 2.59 2.47 6.06 6.06 0 0 0-.95 1.07 9.31 9.31 0 0 1-2.29-2.51v2.92h-1.36v-2.87a9 9 0 0 1-2.45 2.44 5.27 5.27 0 0 0-.93-1.08 8.14 8.14 0 0 0 2.73-2.44h-2.32v-1.22h3v-1h-2.22v-3.89h5.94v3.89h-2.36v1h2.92v1.22Zm-2.95-3.43h3.31v-1.52h-3.31ZM49.27 151.23c-.29 1-.67 2.09-1 3a3.66 3.66 0 0 1 .81 2.35 1.7 1.7 0 0 1-.51 1.48 1.19 1.19 0 0 1-.63.25 4 4 0 0 1-.72 0 3.21 3.21 0 0 0-.3-1.17 2.65 2.65 0 0 0 .48 0 .46.46 0 0 0 .3-.08.86.86 0 0 0 .21-.68 3.23 3.23 0 0 0-.78-2.06c.22-.7.45-1.62.63-2.36h-.93v8.91h-1.18v-10.08H48.37Zm.94 3c-.29.24-.56.47-.86.69a9.65 9.65 0 0 0-.78-1.1 10.35 10.35 0 0 0 3.34-3.61l1.15.42a2.9 2.9 0 0 1-.19.34 11.45 11.45 0 0 0 3.17 2.55 6.17 6.17 0 0 0-.63 1.29 12.67 12.67 0 0 1-1.19-.86v1h-4Zm5.29 1.55c-.46 1.17-1.05 2.51-1.57 3.51h1.78v1.18h-6.54v-1.18h3.65a22.86 22.86 0 0 0 1.52-3.77Zm-5.29 2.94a17.79 17.79 0 0 0-.6-2.71l1-.28a19.4 19.4 0 0 1 .67 2.68Zm3.85-4.92a17.27 17.27 0 0 1-1.83-1.79 14.51 14.51 0 0 1-1.52 1.79Zm-1.9 4.54a24.9 24.9 0 0 0-.43-2.67l1-.15a23.45 23.45 0 0 1 .48 2.65ZM60.59 150.77a19.76 19.76 0 0 1-1.06 2.24v7.89h-1.27v-5.92a12.48 12.48 0 0 1-.87 1 8.29 8.29 0 0 0-.72-1.38 12 12 0 0 0 2.67-4.23Zm4.46 6.2a8.68 8.68 0 0 0 2.59 2.47 6.06 6.06 0 0 0-.95 1.07 9.34 9.34 0 0 1-2.3-2.51v2.92h-1.36v-2.87a9.13 9.13 0 0 1-2.44 2.44 6 6 0 0 0-.93-1.08 8.14 8.14 0 0 0 2.73-2.44h-2.32v-1.22h3v-1h-2.22v-3.89h5.95v3.89h-2.37v1h2.92v1.22Zm-3-3.43h3.32v-1.52h-3.32ZM72.38 151.24c-.31.95-.69 2.09-1 2.95a3.7 3.7 0 0 1 .86 2.36 1.73 1.73 0 0 1-.52 1.49 1.25 1.25 0 0 1-.65.25 4.29 4.29 0 0 1-.74 0 3 3 0 0 0-.3-1.17 2.15 2.15 0 0 0 .5 0 .5.5 0 0 0 .32-.09.84.84 0 0 0 .2-.67 3.22 3.22 0 0 0-.81-2.07c.22-.69.46-1.62.65-2.35h-1v8.91h-1.18v-10.06h2.81Zm1.63.92H72.5v-1.05h2.32l-.17-.56 1.21-.28c.1.26.22.57.3.84h2.34v1.05h-1.81l1.06.18c-.12.2-.22.39-.31.56h1.38v1.06H72.1v-1.06h1.49a4.1 4.1 0 0 0-.2-.59Zm4.84 7.3h-2.61v1.46H74.9v-1.46h-2.75v-1.08h2.75v-.54h-2.14v-3.46h5.53v3.4h-2v.6h2.61Zm-4.84-3.71h3v-.48h-3Zm0 1.23h3v-.5h-3Zm2.17-4.08a5.51 5.51 0 0 0 .26-.74H74.6a6.39 6.39 0 0 1 .28.74ZM88.4 156.76a6.74 6.74 0 0 0 2.21 1.32 4.67 4.67 0 0 0-.89 1 7.38 7.38 0 0 1-1.78-1.19v.84h-2.06v.73h3.69v1.11h-8.62v-1.11h3.55v-.73h-2v-.7a8.07 8.07 0 0 1-1.8 1.15 5.06 5.06 0 0 0-.87-1 6.71 6.71 0 0 0 2.29-1.43h-2.18v-1.09h2.16v-3.38h-1.56v-1.08h1.56v-.82h1.4v.85h3.54v-.85h1.38v.85h1.55v1.08h-1.55v3.38h2.08v1.09Zm-.71.94a6.5 6.5 0 0 1-.81-.94h-3.2a6.42 6.42 0 0 1-.8.94h1.62v-.7h1.37v.7Zm-4.19-5.41v.5h3.54v-.5Zm0 1.93h3.54v-.5H83.5Zm0 1.45h3.54v-.51H83.5ZM97.5 154.85v1.18h3.61v1.21H99.3l1.13.41c-.39.63-.83 1.31-1.19 1.8h2.44v1.23h-9.8v-1.23h2.24a10.35 10.35 0 0 0-.94-1.84l.89-.37h-1.64v-1.21h3.6v-1.18h-2.3v-.55c-.48.22-1 .43-1.46.61a4.82 4.82 0 0 0-.9-1.25 9.15 9.15 0 0 0 5.25-3.44l1.28.58c-.11.14-.21.29-.32.45a12.4 12.4 0 0 0 4.64 2.41 7.42 7.42 0 0 0-.93 1.18 14.55 14.55 0 0 1-1.54-.66v.67Zm-3.16 2.39a7.17 7.17 0 0 1 1 1.8l-.92.41h1.65v-2.21Zm4.44-3.62a12.28 12.28 0 0 1-2-1.48 10.12 10.12 0 0 1-1.84 1.48Zm-1.28 3.62v2.21h1.41l-.76-.32a10 10 0 0 0 1-1.89ZM107.3 152.97c-.14.31-.28.6-.45.9h5.24v5.59c0 .67-.13 1-.59 1.23a4.88 4.88 0 0 1-2 .23 5.76 5.76 0 0 0-.41-1.3h1.42c.19 0 .26-.07.26-.23v-.67h-4.08v2.16h-1.34v-4.9a8.55 8.55 0 0 1-1.49 1.33 7.92 7.92 0 0 0-.89-1 8.89 8.89 0 0 0 2.82-3.31h-2.48v-1.27h3.05a10.37 10.37 0 0 0 .44-1.37l1.39.32c-.11.35-.22.7-.36 1h5.53v1.27Zm3.47 2.07h-4.08v.73h4.08Zm0 2.58v-.73h-4.08v.73ZM118.86 151.24c-.29.95-.67 2.09-1 3a3.64 3.64 0 0 1 .81 2.35 1.7 1.7 0 0 1-.51 1.48 1.27 1.27 0 0 1-.63.25 3.46 3.46 0 0 1-.74 0 2.76 2.76 0 0 0-.29-1.16 4.23 4.23 0 0 0 .49 0 .45.45 0 0 0 .3-.09.84.84 0 0 0 .21-.69 3.18 3.18 0 0 0-.8-2.07c.22-.69.47-1.61.65-2.35h-1.1v8.91h-1.15v-10.08h2.7l.18-.06Zm6.11 5.82c-.49.38-1.08.81-1.59 1.14a4.74 4.74 0 0 0 1.83 1.52 4.76 4.76 0 0 0-.89 1.17c-1.69-.93-2.59-2.68-3.12-4.9h-.7v3.19l1.57-.36a7.79 7.79 0 0 0 .06 1.23 11.65 11.65 0 0 0-2.9.9 4.47 4.47 0 0 0-.58-1 1.1 1.1 0 0 0 .52-1v-8.12h5.12v5.19h-2a7.56 7.56 0 0 0 .45 1.24 9.89 9.89 0 0 0 1.29-1.12Zm-4.47-5.11v.89h2.49v-.89Zm0 2.88h2.49v-.91h-2.49ZM136.5 153.92v1h-10.16v-1h4.4v-.47h-3.24v-.92h3.22v-.48H127v-1h3.74v-.67h1.39v.69h3.9v1h-3.9v.48h3.37v.92h-3.4v.47Zm-4.38 3.78c0 1.12-.66 2.42-4.76 3.21a5.21 5.21 0 0 0-.87-1.05c3.85-.59 4.21-1.51 4.21-2.19v-.86h1.42Zm1.74 1v-2.18h-4.89v2.32h-1.36v-3.46h7.66v3.32Zm-1.51-.27a24.11 24.11 0 0 1 4.05 1.45l-.66 1.11a25.37 25.37 0 0 0-4-1.59ZM145.38 156.38v2.89h2.71v1.29h-6.7v-1.29h2.62v-2.89h-3.07v-1.31h3.07v-2.51c-.8.14-1.6.24-2.36.33a5.1 5.1 0 0 0-.38-1.12c-.21.46-.44.91-.7 1.36v7.81h-1.35v-5.8a9.58 9.58 0 0 1-.92 1 9.57 9.57 0 0 0-.79-1.41 11.81 11.81 0 0 0 2.83-4.36l1.34.42c-.13.3-.25.6-.4.9a29.6 29.6 0 0 0 5.67-1.2l1 1.14a19.14 19.14 0 0 1-2.56.64v2.76h2.83v1.35ZM153.72 151.01a13.66 13.66 0 0 1-3.13 4.7 12 12 0 0 0-1.27-1 9.69 9.69 0 0 0 2.92-4.16Zm3.17 5.28a32.64 32.64 0 0 1 2.56 3.9l-1.35.73a14.59 14.59 0 0 0-.7-1.29c-5.48.46-6.25.51-6.81.71a10.54 10.54 0 0 0-.52-1.41 2.31 2.31 0 0 0 1.06-.9 18.79 18.79 0 0 0 2.69-4.33l1.5.64a24.24 24.24 0 0 1-2.93 4.3l4.22-.28-1-1.48Zm-.21-5.78a14.64 14.64 0 0 0 3.16 4.05 6.48 6.48 0 0 0-1.13 1.15 21.42 21.42 0 0 1-3.36-4.65ZM170.64 159.21c0 .77-.14 1.18-.63 1.42a5.24 5.24 0 0 1-2.19.26 5.87 5.87 0 0 0-.44-1.47 15.56 15.56 0 0 0 1.59 0c.21 0 .28-.06.28-.25v-6.9h-7.9v-1.28h9.29Zm-2.52-4.93h-6.62v-1.17h6.65Zm-4.76 4.67v.81h-1.32v-4.64h5.46v3.83Zm0-2.67v1.51h2.85v-1.51ZM174.86 160.72a22.27 22.27 0 0 0-2.43-2.51l1.18-1a21.38 21.38 0 0 1 2.47 2.48ZM193.86 152.3v5.65h-1.42v-.57h-2.56v3.53h-1.38v-3.53h-2.55v.62h-1.36v-5.71h3.91v-2h1.42v2Zm-5.4 3.76v-2.43h-2.55v2.43Zm4 0v-2.43h-2.56v2.43ZM205.5 150.79v10.13h-1.44v-.54h-6.7v.57h-1.37v-10.16Zm-1.44 8.32v-7.09h-6.7v7.09Zm-.39-1.76v1.1h-5.87v-1.07h2.28v-1.33h-1.88v-1.17h1.87v-1.06h-2.16v-1.18h5.59v1.18h-2.16v1.06h1.92v1.14h-.63a7.83 7.83 0 0 1 .85 1l-.59.33Zm-2.35 0h1.13a8.47 8.47 0 0 0-.77-1l.7-.35h-1.06ZM211.86 152.44a20.11 20.11 0 0 1-1.17 2.49h6v5.94h-1.49v-.63h-4.53v.68h-1.37v-4a8.48 8.48 0 0 1-1.53 1.41 7.76 7.76 0 0 0-.95-1 10 10 0 0 0 3.48-4.82h-3v-1.33h9.94v1.33Zm3.34 3.78h-4.53v2.72h4.53ZM220.8 155.84a19.35 19.35 0 0 0-2.19-1.26l.74-1c.66.31 1.69.81 2.2 1.13Zm-1.78 4a30.83 30.83 0 0 0 1.8-3.19l1 .86a50.77 50.77 0 0 1-1.65 3.2Zm2.42-7.09a20.93 20.93 0 0 0-2.2-1.32l.75-1a18.62 18.62 0 0 1 2.24 1.2Zm7.33-.1v8.08h-1.33v-.59h-3.94v.67h-1.27v-8.16h2.57v-2.27h1.32v2.3Zm-5.27 1.33v1.78h1.3v-1.78Zm0 4.91h1.3v-1.84h-1.3Zm2.62-4.91v1.78h1.33v-1.78Zm1.33 4.91v-1.84h-1.33v1.84ZM238.72 159.38c.49 0 .57-.45.66-2.32a4 4 0 0 0 1.33.64c-.15 2.2-.5 3-1.85 3h-1.65c-1.4 0-1.79-.5-1.79-2.13v-1.17a12.66 12.66 0 0 1-1.29.7 5.41 5.41 0 0 0-.89-.92v3.71h-1.42v-5.91c-.29.34-.57.64-.85.92a12.88 12.88 0 0 0-.86-1.37 11.34 11.34 0 0 0 2.86-4.23l1.37.45a17.82 17.82 0 0 1-1.1 2.18v4.13a14 14 0 0 0 2.18-1.29v-5.26h1.46v4.09a14.25 14.25 0 0 0 2.41-2.78l1.29.88a18.29 18.29 0 0 1-3.7 3.75v2.17c0 .66.07.76.52.76ZM252.13 158.78v1.36h-10.29v-1.36h4.32v-5.85h-3.66v-1.41h9v1.41h-3.8v5.85ZM7.44 178.38a13.28 13.28 0 0 0 3.48 1.29 5.22 5.22 0 0 0-.83 1.07 13 13 0 0 1-3.89-1.85v2H4.87v-1.91a13 13 0 0 1-3.91 1.86 7.08 7.08 0 0 0-.87-1.11 14.45 14.45 0 0 0 3.62-1.31H.5v-1.04h4.41v-.58h1.33v.58h4.44v1Zm-5.72-4.69-.61.52a4.16 4.16 0 0 0-1-.88 9.06 9.06 0 0 0 2.68-3l1.37.26c-.17.29-.35.57-.54.85H5.5a8.58 8.58 0 0 0-.35-.81l1.21-.34a7 7 0 0 1 .54 1.15h3.19v1H6.63v.48h3v.87h-3v.45h3v.88h-3v.49h3.73v1H3.05v.31H1.72Zm3.62-1.26H3.05v.48h2.29Zm0 1.35H3.05v.45h2.29Zm0 1.33H3.05v.49h2.29ZM21.92 170.77v10.16H20.5v-.4h-6.78v.4h-1.39v-10.16Zm-1.42 8.55v-7.31h-6.78v7.31Zm-.41-4.56h-1.36v2.88c0 .61-.09.91-.48 1.12a3.51 3.51 0 0 1-1.58.22 4.55 4.55 0 0 0-.43-1.2 6.91 6.91 0 0 0 1 0c.15 0 .19 0 .19-.17v-1.52a11.71 11.71 0 0 1-2.69 2 5 5 0 0 0-.84-.91 10.43 10.43 0 0 0 3-2.43h-2.71v-1.19h3.23v-1.18h1.29v1.22h1.36ZM27.64 172.97a8.39 8.39 0 0 1-.45.9h5.24v5.59c0 .67-.12 1-.59 1.23a4.86 4.86 0 0 1-2 .23 5.76 5.76 0 0 0-.41-1.3h1.43c.19 0 .26-.07.26-.23v-.67h-4.09v2.16H25.7v-4.9a8.61 8.61 0 0 1-1.5 1.33 7.15 7.15 0 0 0-.88-1 8.89 8.89 0 0 0 2.82-3.31h-2.48v-1.27h3a10.43 10.43 0 0 0 .45-1.37l1.39.32q-.16.53-.36 1h5.52v1.27Zm3.48 2.07h-4.09v.73h4.09Zm0 2.58v-.73h-4.09v.73ZM39.21 171.24c-.3.95-.67 2.09-1 3a3.66 3.66 0 0 1 .82 2.35 1.72 1.72 0 0 1-.51 1.48 1.27 1.27 0 0 1-.63.25 3.52 3.52 0 0 1-.74 0 2.76 2.76 0 0 0-.29-1.16 4.1 4.1 0 0 0 .48 0 .46.46 0 0 0 .31-.09.88.88 0 0 0 .2-.67 3.16 3.16 0 0 0-.79-2.07c.21-.69.46-1.61.65-2.35h-1.1v8.91H35.5v-10.1h2.69l.19-.06Zm6.1 5.82c-.49.38-1.07.81-1.58 1.14a4.6 4.6 0 0 0 1.83 1.52 4.76 4.76 0 0 0-.89 1.17c-1.69-.93-2.6-2.68-3.13-4.9h-.68v3.19l1.58-.36a7.88 7.88 0 0 0 .05 1.23 11.85 11.85 0 0 0-2.9.9 4.44 4.44 0 0 0-.57-1 1.13 1.13 0 0 0 .52-1v-8.12h5.11v5.19h-2a7.56 7.56 0 0 0 .45 1.24 11.41 11.41 0 0 0 1.29-1.12Zm-4.45-5.11v.89h2.49v-.89Zm0 2.88h2.49v-.91h-2.49ZM50.95 171.01a13.5 13.5 0 0 1-3.12 4.7 13.16 13.16 0 0 0-1.27-1 9.77 9.77 0 0 0 2.92-4.16Zm3.17 5.28a31.45 31.45 0 0 1 2.56 3.9l-1.34.73a12.64 12.64 0 0 0-.71-1.29c-5.48.46-6.25.51-6.8.71a10.54 10.54 0 0 0-.52-1.41 2.36 2.36 0 0 0 1.06-.9 18.79 18.79 0 0 0 2.69-4.33l1.5.64a24.24 24.24 0 0 1-2.93 4.3l4.22-.28-1-1.48Zm-.2-5.78a14.64 14.64 0 0 0 3.16 4.05 6.48 6.48 0 0 0-1.13 1.15 21.45 21.45 0 0 1-3.37-4.65ZM67.87 179.21c0 .77-.13 1.18-.62 1.42a5.3 5.3 0 0 1-2.2.26 5.15 5.15 0 0 0-.44-1.47 15.75 15.75 0 0 0 1.6 0c.2 0 .28-.06.28-.25v-6.9h-7.9v-1.28h9.28Zm-2.51-4.93H58.7v-1.17h6.66Zm-4.77 4.67v.81h-1.31v-4.64h5.49v3.83Zm0-2.67v1.51h2.91v-1.51ZM72.1 180.72a22.27 22.27 0 0 0-2.43-2.51l1.18-1a20.5 20.5 0 0 1 2.46 2.48ZM91.5 179.01v1.37H81.3v-1.35h4v-8.55h1.45v3.25h4v1.36h-4v3.92ZM94.59 175.89a9.49 9.49 0 0 0-1.84-1.24l.73-.92a8.84 8.84 0 0 1 1.88 1.14ZM93.05 180a34.31 34.31 0 0 0 1.57-3.63l1 .75c-.42 1.2-.93 2.51-1.43 3.62Zm2.28-7.29a11.05 11.05 0 0 0-1.94-1.28l.74-.9a11.82 11.82 0 0 1 2 1.16Zm7.1 4.17c0 .45-.07.85-.1 1.2h.69v1.14h-.84a2.52 2.52 0 0 1-.34 1 1.18 1.18 0 0 1-.91.51 7.1 7.1 0 0 1-1.42 0 2.67 2.67 0 0 0-.35-1.1h1.17a.46.46 0 0 0 .42-.18 1.12 1.12 0 0 0 .14-.35h-4.67c.12-.64.26-1.47.38-2.34h-1v-1.23h1.17c.08-.61.15-1.22.2-1.8a6.65 6.65 0 0 1-.42.58 10.77 10.77 0 0 0-1.15-.73 9 9 0 0 0 1.8-3.2l1.3.33c-.09.26-.19.55-.3.82h4.81v1.2h-5.37c-.13.26-.26.51-.41.75h5.36v.56c0 .6-.06 1.15-.08 1.65h.8v1.23Zm-4.58 0c-.06.42-.12.81-.17 1.2h1.71a9.71 9.71 0 0 0-1-.93l.43-.27Zm.29-2.3c0 .36-.09.71-.14 1.07h1.5a7.93 7.93 0 0 0-.82-.82l.38-.25Zm2.94 3.5c0-.34.08-.73.12-1.2h-1.83a6.73 6.73 0 0 1 1 .95l-.36.25Zm-1.44-3.5a8.69 8.69 0 0 1 .86.86l-.32.21h1.09v-1.07ZM106.15 175.69a19.5 19.5 0 0 0-2-1.12l.71-1a15.68 15.68 0 0 1 2 1Zm-1.59 4.14a31.61 31.61 0 0 0 2-3.48l1 .87c-.53 1.15-1.19 2.41-1.8 3.48Zm2.2-7.12a13.94 13.94 0 0 0-1.9-1.2l.75-1a12.87 12.87 0 0 1 1.93 1.07Zm2.08.59a7.69 7.69 0 0 1-.77 1 7.78 7.78 0 0 0-1.07-.82 7.62 7.62 0 0 0 1.93-3.11l1.3.35c-.12.28-.23.56-.37.84h4.95v1.16h-5.56c-.12.2-.25.39-.38.59h4.91v1.07h-4.94Zm4.75 1.69c0 2.75 0 4.68.38 4.68.14 0 .18-.61.2-1.45a4.92 4.92 0 0 0 .79.84c-.09 1.28-.31 1.87-1.09 1.88-1.36 0-1.54-1.88-1.58-4.79h-4.54v-1.17h5.84ZM126.19 178.97h-3.69v1.95h-1.45v-1.95h-5v-1.31h5v-1.28h-2.4a3.3 3.3 0 0 0-1.3.17 13.15 13.15 0 0 0-.49-1.38c.29-.09.52-.37.85-.86a9.48 9.48 0 0 0 .63-1.11h-2.07v-1.3h2.7a16.32 16.32 0 0 0 .64-1.69l1.59.4c-.18.44-.38.86-.58 1.29h5.39v1.3h-6.11c-.39.68-.78 1.34-1.18 1.9h2.29v-1.47h1.49v1.47h2.77v1.28h-2.77v1.25h3.73ZM137.82 178.78v1.36H127.5v-1.36h4.32v-5.85h-3.7v-1.41h9v1.41h-3.8v5.85ZM149.27 179.05v1.33h-10.12v-1.35h2.92v-8.56h1.43v8.56h1.48v-8.56h1.39v6.24a23.21 23.21 0 0 0 1.62-4l1.22.57a31.37 31.37 0 0 1-1.8 4.11l-1-.52V179Zm-8.63-1.67a41.22 41.22 0 0 0-1.36-4.3l1.24-.36c.53 1.33 1.18 3.1 1.47 4.18ZM156.5 175.63a7.47 7.47 0 0 1 2.23-5.43l1.07.47a7.1 7.1 0 0 0 0 9.92l-1.07.48a7.49 7.49 0 0 1-2.23-5.44ZM168.11 178.38a13.28 13.28 0 0 0 3.48 1.29 5.27 5.27 0 0 0-.84 1.07 13.08 13.08 0 0 1-3.88-1.85v2h-1.37v-1.91a13.14 13.14 0 0 1-3.91 1.86 7.08 7.08 0 0 0-.87-1.11 14.45 14.45 0 0 0 3.62-1.31h-3.25v-1.04h4.41v-.58h1.33v.58h4.44v1Zm-5.72-4.69-.61.52a4.16 4.16 0 0 0-.95-.88 9.06 9.06 0 0 0 2.68-3l1.37.26c-.17.29-.35.57-.54.85h1.83a8.58 8.58 0 0 0-.35-.81l1.21-.34a7 7 0 0 1 .54 1.15h3.18v1h-3.45v.48h2.95v.87h-2.95v.45h3v.88h-3v.49h3.73v1h-7.31v.31h-1.33Zm3.62-1.26h-2.29v.48h2.29Zm0 1.35h-2.29v.45h2.29Zm0 1.33h-2.29v.49h2.29ZM182.59 170.77v10.16h-1.46v-.4h-6.78v.4h-1.39v-10.16Zm-1.46 8.55v-7.31h-6.78v7.31Zm-.41-4.56h-1.35v2.88c0 .61-.1.91-.49 1.12a3.48 3.48 0 0 1-1.58.22 4.55 4.55 0 0 0-.43-1.2 6.91 6.91 0 0 0 1 0c.15 0 .19 0 .19-.17v-1.52a11.71 11.71 0 0 1-2.69 2 5 5 0 0 0-.84-.91 10.43 10.43 0 0 0 3-2.43h-2.71v-1.19h3.23v-1.18h1.3v1.22h1.35ZM187.5 175.63a7.49 7.49 0 0 1-2.23 5.44l-1.08-.48a7.07 7.07 0 0 0 0-9.92l1.08-.47a7.47 7.47 0 0 1 2.23 5.43ZM198.5 172.97c-.14.31-.28.6-.45.9h5.24v5.59c0 .67-.13 1-.59 1.23a4.88 4.88 0 0 1-2 .23 5.76 5.76 0 0 0-.41-1.3h1.42c.19 0 .27-.07.27-.23v-.67h-4.08v2.16h-1.34v-4.9a8.55 8.55 0 0 1-1.49 1.33 7.92 7.92 0 0 0-.89-1A8.89 8.89 0 0 0 197 173h-2.5v-1.27h3.05a10.37 10.37 0 0 0 .44-1.37l1.39.32c-.11.35-.22.7-.36 1h5.53v1.27Zm3.48 2.07h-4.08v.73h4.09Zm0 2.58v-.73h-4.08v.73ZM210.07 171.24c-.29.95-.66 2.09-1 3a3.66 3.66 0 0 1 .82 2.35 1.72 1.72 0 0 1-.51 1.48 1.31 1.31 0 0 1-.64.25 3.39 3.39 0 0 1-.73 0 2.78 2.78 0 0 0-.3-1.16 4.23 4.23 0 0 0 .49 0 .43.43 0 0 0 .3-.09.84.84 0 0 0 .21-.67 3.22 3.22 0 0 0-.79-2.07c.21-.69.46-1.61.64-2.35h-1.06v8.91h-1.17v-10.1h2.69l.18-.06Zm6.11 5.82c-.49.38-1.08.81-1.59 1.14a4.7 4.7 0 0 0 1.84 1.52 4.56 4.56 0 0 0-.9 1.17c-1.69-.93-2.59-2.68-3.12-4.9h-.68v3.19l1.57-.36a7.79 7.79 0 0 0 .06 1.23 11.65 11.65 0 0 0-2.9.9 4.47 4.47 0 0 0-.58-1 1.1 1.1 0 0 0 .52-1v-8.12h5.1v5.19h-2a8.61 8.61 0 0 0 .45 1.24 9.89 9.89 0 0 0 1.29-1.12Zm-4.45-5.11v.89h2.49v-.89Zm0 2.88h2.49v-.91h-2.49ZM221.82 171.01a13.79 13.79 0 0 1-3.12 4.7 14.53 14.53 0 0 0-1.27-1 9.77 9.77 0 0 0 2.92-4.16Zm3.17 5.28a31.45 31.45 0 0 1 2.56 3.9l-1.35.73a14.59 14.59 0 0 0-.7-1.29c-5.48.46-6.25.51-6.8.71a9.47 9.47 0 0 0-.53-1.41 2.32 2.32 0 0 0 1.07-.9 19.21 19.21 0 0 0 2.68-4.33l1.51.64a24.78 24.78 0 0 1-2.93 4.3l4.22-.28c-.34-.51-.69-1-1-1.48Zm-.2-5.78a14.64 14.64 0 0 0 3.16 4.05 6.21 6.21 0 0 0-1.14 1.15 21.42 21.42 0 0 1-3.36-4.65ZM238.74 179.21c0 .77-.14 1.18-.62 1.42a5.32 5.32 0 0 1-2.2.26 5.49 5.49 0 0 0-.42-1.51 15.73 15.73 0 0 0 1.6 0c.2 0 .28-.06.28-.25v-6.9h-7.88v-1.28h9.28Zm-2.51-4.93h-6.66v-1.17h6.66Zm-4.73 4.67v.81h-1.31v-4.64h5.49v3.83Zm0-2.67v1.51h2.85v-1.51ZM250.86 176.38v.82h-10.18v-.82h2.61v-2.67h-2.16v-.81h2.16v-2.29h.85v2.29h3.21v-2.29h.86v2.29h2.29v.81h-2.24v2.67Zm-6.16 1.82a13 13 0 0 1-3.21 2.67 7.9 7.9 0 0 0-.67-.6 9.78 9.78 0 0 0 3-2.41Zm-.56-1.82h3.21v-2.67h-3.21Zm3.31 1.46a36 36 0 0 1 3.16 2.5l-.79.52a35.76 35.76 0 0 0-3.09-2.59ZM14.77 199.74c0 .52-.13.77-.47.92a6.21 6.21 0 0 1-1.89.16 2.68 2.68 0 0 0-.3-.83h1.56c.19 0 .27-.08.27-.26v-7.89H6.3v9h-.8v-9.78h9.29Zm-1.78-6h-5.7v-.73h5.7Zm-4.36 4.76v.88h-.78v-4.39h4.54v3.58Zm0-2.87v2.14h3v-2.14ZM26.11 196.08v4.7h-.91v-.64h-8v-4.06h.91v3.23h3.05v-3.93H17.7v-3.87h.87v3h2.59v-4.08h.91v4.08h2.66v-3.06h.91v3.93H22.1v3.94h3.1v-3.24ZM31.55 194.07l-3.15 1-.24-.78c.82-.23 2-.61 3.26-1Zm2.19 2.76c-.37 2.26-1.41 3.47-5.21 4a2.32 2.32 0 0 0-.37-.69c3.58-.44 4.43-1.44 4.77-3.31Zm-2.83-4.15a10.71 10.71 0 0 0-2.35-1.23l.42-.58a10.68 10.68 0 0 1 2.37 1.15Zm5.15 6.11v-2.29H30.5v2.37h-.82v-3.14h7.25v3.06Zm-.85-6.62a5.44 5.44 0 0 1-.19.57 5.1 5.1 0 0 0 3.25 2 3 3 0 0 0-.51.66 5.8 5.8 0 0 1-3.07-2 4.72 4.72 0 0 1-3 2.12 2.23 2.23 0 0 0-.46-.61 3.87 3.87 0 0 0 3.11-2.74H33a6.73 6.73 0 0 1-1.18 1.29 2.07 2.07 0 0 0-.59-.52 5.54 5.54 0 0 0 1.78-2.44l.8.12a6.85 6.85 0 0 1-.4.88h3.96l.61.17a17.28 17.28 0 0 1-.9 1.74l-.74-.22a11 11 0 0 0 .52-1Zm-1.34 6.28a32.92 32.92 0 0 1 4.24 1.62l-.49.69a33.78 33.78 0 0 0-4.22-1.7ZM43.29 197.95a3.4 3.4 0 0 0 .31.69 20.56 20.56 0 0 0-2.48 1.93 3.09 3.09 0 0 0-.45-.7 1.29 1.29 0 0 0 .56-1v-4h-1.58v-.81h2.4v4.85Zm-1-5a14 14 0 0 0-1.79-1.77l.54-.51a15 15 0 0 1 1.75 1.68Zm3.23-.82a3.18 3.18 0 0 1-2 3.06 2.9 2.9 0 0 0-.54-.62 2.5 2.5 0 0 0 1.73-2.46v-1.24h3.58v2.62c0 .32 0 .42.21.42h.78a2.33 2.33 0 0 0 .53-.06 5.43 5.43 0 0 0 .08.73 2.58 2.58 0 0 1-.6.06h-.85c-.77 0-.94-.33-.94-1.17v-1.81h-2Zm3.81 3.5a7 7 0 0 1-2.17 3.31 8.47 8.47 0 0 0 2.87 1.15 3 3 0 0 0-.52.75 8.42 8.42 0 0 1-3-1.38 10.56 10.56 0 0 1-3 1.36 2.77 2.77 0 0 0-.42-.75 9 9 0 0 0 2.79-1.13 8.36 8.36 0 0 1-1.89-2.66l.16-.06h-.65v-.79h5.29Zm-4.6.59a6.62 6.62 0 0 0 1.77 2.24 6.09 6.09 0 0 0 1.77-2.24ZM61.34 199.48v.84h-10v-.84h5.48a36.32 36.32 0 0 0 1.68-5.44l.95.18a53.23 53.23 0 0 1-1.72 5.26Zm-.45-6.06H51.8v-.82h9.09Zm-6.46 5.57a35.64 35.64 0 0 0-1.07-4.75l.84-.2a42.64 42.64 0 0 1 1.12 4.74Zm1.64-6.53a12.7 12.7 0 0 0-.55-1.83l.82-.22a14.41 14.41 0 0 1 .59 1.8ZM63.75 200.55a2 2 0 0 0 1.43-1.67h-.2a.78.78 0 0 1-.85-.8.8.8 0 0 1 .86-.82c.63 0 1 .51 1 1.31a2.7 2.7 0 0 1-2 2.57ZM79.94 199.72c.41 0 .86.07 1.34.07h3.34a2.81 2.81 0 0 0-.29.8h-3.08c-2.28 0-3.72-.36-4.63-1.89a6 6 0 0 1-1.77 2.13 3.94 3.94 0 0 0-.62-.6 5.29 5.29 0 0 0 2.19-3.68l.85.11a11.63 11.63 0 0 1-.29 1.13 3 3 0 0 0 2.14 1.8v-3.4H74.5v-.81h9.94v.76h-4.48v1.25h3.74v.75h-3.74Zm3.23-5.06h-7.52v-3.74h7.52Zm-.84-3.09H76.5v.91h5.85Zm0 1.53H76.5v.91h5.85ZM96.11 195.07v.91H85.86v-.91ZM106.5 195.04a20.64 20.64 0 0 1-1.74 1.28 5.38 5.38 0 0 0 3 3.32 3 3 0 0 0-.54.69 6.16 6.16 0 0 1-3.13-3.59c-.17.11-.36.23-.53.32.39 1.46.1 2.85-.51 3.33a1.57 1.57 0 0 1-1.15.39h-1a1.86 1.86 0 0 0-.21-.79c.4 0 .78.06 1 .06a.93.93 0 0 0 .72-.24 2.33 2.33 0 0 0 .44-1.95 17 17 0 0 1-4.84 2.42 3.38 3.38 0 0 0-.45-.71 13 13 0 0 0 5.13-2.49 5.1 5.1 0 0 0-.3-.79 18 18 0 0 1-4.2 2 3 3 0 0 0-.43-.66 13.75 13.75 0 0 0 4.29-1.88 3.76 3.76 0 0 0-.55-.67 16.21 16.21 0 0 1-3.26 1.34 3.08 3.08 0 0 0-.46-.67 12.84 12.84 0 0 0 4-1.64H99.2v-.74h6.51v.74h-2.81a8.34 8.34 0 0 1-.8.6 5 5 0 0 1 1.15 1.73 18.8 18.8 0 0 0 2.47-1.89Zm-7.81-1.25h-.81v-2.32h4.24a6.44 6.44 0 0 0-.42-.83l.86-.25a6.54 6.54 0 0 1 .56 1.08h4.18v2.32h-.85v-1.54h-7.76ZM112.5 196.38a4.16 4.16 0 0 0 0 .7 16.42 16.42 0 0 0-3.28.78 5.67 5.67 0 0 0-.25-.72c.24-.05.5-.33.84-.75a18.81 18.81 0 0 0 1.16-1.56 6.68 6.68 0 0 0-1.83.34 5 5 0 0 0-.26-.77c.19 0 .38-.31.61-.69a16.21 16.21 0 0 0 1.48-3.21l.74.35a18.65 18.65 0 0 1-1.77 3.42l1.5-.15c.24-.4.48-.82.7-1.23l.64.4a24 24 0 0 1-2.4 3.48Zm.14 2.82-3.53.91-.17-.8c.91-.17 2.26-.5 3.61-.81Zm2.12-1.54a13.56 13.56 0 0 1-1.79 2.49 4.33 4.33 0 0 0-.67-.5 10 10 0 0 0 1.69-2.24Zm1.66-1v3.21c0 .43-.08.63-.38.77a4.37 4.37 0 0 1-1.48.11 3 3 0 0 0-.23-.74 9 9 0 0 0 1.08 0c.15 0 .19 0 .19-.15v-3.2h-2.76v-.74h6.21v.74Zm-2.61-2.92H113v-1.88h2.76a10.37 10.37 0 0 0-.56-1.23l.8-.21a11 11 0 0 1 .69 1.44h2.3v1.88h-.83v-1.14h-4.35Zm.14.86v-.73h4.08v.73Zm3.93 2.79a14.7 14.7 0 0 1 1.44 2.31l-.76.36a15.7 15.7 0 0 0-1.38-2.37ZM126.56 190.8a5.88 5.88 0 0 1-.36.51 13.45 13.45 0 0 0 4.7 3.09 2.74 2.74 0 0 0-.58.76 20 20 0 0 1-1.83-1v.77h-5.67v-.55a16.14 16.14 0 0 1-1.74.92 3 3 0 0 0-.61-.74 11.8 11.8 0 0 0 5.36-4.08Zm-4.33 5.48h7v4.46h-.87v-.59h-5.25v.63h-.85Zm.85.74v2.36h5.25v-2.35Zm5.39-2.88a12.88 12.88 0 0 1-2.75-2.23 13 13 0 0 1-2.6 2.23ZM131.89 195.5a11.39 11.39 0 0 0 .59-2.9l.63.09a12.41 12.41 0 0 1-.56 3Zm1.63-5h.84v10.33h-.86Zm1.51 1.81a10 10 0 0 1 .82 1.89l-.63.31a11.3 11.3 0 0 0-.78-1.93Zm7.21 7.34v.8h-6.91v-.8h3.24v-2.87h-2.4v-.79h2.4v-2.34h-1.65a8.23 8.23 0 0 1-.8 1.76 5.17 5.17 0 0 0-.74-.39 10.91 10.91 0 0 0 1.37-4l.81.13c-.11.59-.25 1.18-.4 1.74h1.41v-2.35h.84v2.35h2.56v.8h-2.56v2.34h2.31v.79h-2.31v2.83ZM149.16 194.61v1.54h3.95v.77h-3.95v2.77h4.46v.78h-9.72v-.78h4.39v-2.77h-3.88v-.77h3.88v-1.54h-2.45v-.62a12.78 12.78 0 0 1-1.8.83 3 3 0 0 0-.56-.77 10.12 10.12 0 0 0 5.26-3.69l.77.36-.28.41a12.41 12.41 0 0 0 4.83 2.92 3.11 3.11 0 0 0-.58.73 12.59 12.59 0 0 1-1.83-.87v.7Zm-3.11 2.56a10.22 10.22 0 0 1 1.09 2l-.74.3a9.43 9.43 0 0 0-1-2.05Zm5.47-3.34a13 13 0 0 1-2.75-2.13 11.75 11.75 0 0 1-2.65 2.13Zm-1.33 5.43a12.62 12.62 0 0 0 1.18-2.09l.79.31a23.62 23.62 0 0 1-1.33 2.05ZM155.29 190.96h5.31v.73h-5.31Zm5.14 8.91c0 .36-.06.55-.31.68a3.68 3.68 0 0 1-1.22.11 2.41 2.41 0 0 0-.21-.66h.89c.12 0 .15 0 .15-.15v-3.94h-3.6v4.85h-.63v-5.51h5Zm-.37-5.25h-4.22v-2.24h4.22Zm-1.79 3.67v2.2h-.65v-2.2h-1.12v-.57h1.54a11.11 11.11 0 0 0 .76-1.61l.56.22c-.23.46-.49 1-.74 1.39h.79v.57Zm1-5.34h-2.73v1.06h2.73Zm-2.2 3.2a6 6 0 0 1 .66 1.32l-.51.19a6.35 6.35 0 0 0-.63-1.34Zm7.78 4.66a6.69 6.69 0 0 0-.19-.93c-1.31.25-2.67.47-3.69.68l-.21-.78c.53-.07 1.17-.17 1.87-.3v-2.52h-1.67v-4.26h1.67v-2.15h.75v2.15h1.64v4.26h-1.64v2.42l1.09-.19c-.15-.49-.33-1-.51-1.44l.61-.16a14.43 14.43 0 0 1 .94 3Zm-3.26-4.59h1.1v-2.84h-1.1Zm2.78-2.8h-1v2.8h1ZM170.14 190.73a17.06 17.06 0 0 1-1.15 2.35v7.69h-.81v-6.45a11.91 11.91 0 0 1-1.21 1.45 8.9 8.9 0 0 0-.47-.82 12.73 12.73 0 0 0 2.85-4.46Zm4.15 6a8.8 8.8 0 0 0 3 2.92 4.33 4.33 0 0 0-.6.67 10.11 10.11 0 0 1-2.86-3.07v3.55h-.84v-3.51a9.52 9.52 0 0 1-3 3 4.22 4.22 0 0 0-.59-.67 8.46 8.46 0 0 0 3.12-2.9h-2.79v-.77h3.28v-1.4h-2.51v-3.58h5.84v3.58h-2.54v1.4h3.17v.77Zm-3-2.92h4.21v-2.07h-4.2ZM181.92 191.21c-.33.92-.75 2-1.12 2.93a3.54 3.54 0 0 1 1 2.44 1.63 1.63 0 0 1-.44 1.33 1.39 1.39 0 0 1-.59.21 3.74 3.74 0 0 1-.75 0 1.88 1.88 0 0 0-.21-.74 4.84 4.84 0 0 0 .65 0 .57.57 0 0 0 .34-.1 1 1 0 0 0 .24-.78 3.33 3.33 0 0 0-1-2.29c.32-.82.66-1.79.9-2.55h-1.44v9.09h-.75v-9.85h2.62Zm1.28 2.8a13.4 13.4 0 0 1-1.13.92 3.55 3.55 0 0 0-.51-.68 9.46 9.46 0 0 0 3.42-3.87l.73.26-.2.4a12.28 12.28 0 0 0 3.29 3.05 3.14 3.14 0 0 0-.44.75 14.58 14.58 0 0 1-3.25-3.13 12 12 0 0 1-1.86 2.25H187v.72h-3.8Zm5 1.7a39.23 39.23 0 0 1-1.74 3.81h2.04v.74h-6.6v-.74h3.78a25 25 0 0 0 1.71-4Zm-5 0a14.55 14.55 0 0 1 .76 2.69l-.7.19a13 13 0 0 0-.72-2.71Zm1.94 2.55a21.51 21.51 0 0 0-.46-2.7l.67-.09a19.53 19.53 0 0 1 .48 2.68ZM196.14 198.08a12.17 12.17 0 0 0 4.07 1.83 3.88 3.88 0 0 0-.53.68 13.11 13.11 0 0 1-4.33-2.23v2.43h-.85v-2.41a13 13 0 0 1-4.29 2.31 3.39 3.39 0 0 0-.56-.69 12.46 12.46 0 0 0 4.1-1.91h-3.83v-.71h4.58v-.76h.82v.76h4.65v.69Zm-4.85-4.81a9.71 9.71 0 0 1-1 .91 2.33 2.33 0 0 0-.59-.54 9.56 9.56 0 0 0 2.62-3.19l.86.16c-.19.33-.39.71-.64 1.06h2.57c-.15-.33-.34-.71-.52-1l.74-.23a7.15 7.15 0 0 1 .65 1.25h3.32v.69h-3.64v.76h3.18v.6h-3.18v.74h3.22v.6h-3.22v.79h4v.68h-7.56v.33h-.83Zm3.57-.92h-2.74v.76h2.74Zm0 1.36h-2.74v.74h2.74Zm0 1.34h-2.74v.79h2.74ZM211.19 190.96v9.85h-.89v-.43h-7.59v.47h-.85V191Zm-.89 8.61v-7.83h-7.59v7.83Zm-.65-5.17h-1.75v3.58c0 .44-.09.65-.39.78a3.94 3.94 0 0 1-1.47.16 2.68 2.68 0 0 0-.28-.76h1.14c.14 0 .19-.05.19-.18v-2.6a13.23 13.23 0 0 1-3.26 2.65 3.17 3.17 0 0 0-.54-.57 11.52 11.52 0 0 0 3.53-3h-3.32v-.76h3.63v-1.43h.81v1.43h1.75ZM216.34 198.89a1.73 1.73 0 1 1-1.73-1.72 1.73 1.73 0 0 1 1.73 1.72Zm-.57 0a1.15 1.15 0 1 0-1.16 1.16 1.15 1.15 0 0 0 1.16-1.16ZM234.14 194.85a14.25 14.25 0 0 1-1.68 3.64c.32.88.71 1.38 1.19 1.38.28 0 .41-.51.46-1.82a2 2 0 0 0 .67.42c-.15 1.7-.41 2.21-1.21 2.21s-1.27-.52-1.68-1.44a8.87 8.87 0 0 1-1.67 1.57 2.71 2.71 0 0 0-.59-.58l.36-.26h-3.71v.6h-.78v-4a5 5 0 0 1-.52.58 5.85 5.85 0 0 0-.59-.48 7.11 7.11 0 0 0 1.79-2.6l.72.19c-.14.32-.31.65-.47 1H228a6 6 0 0 0-.5-.89l.62-.25a5.11 5.11 0 0 1 .67 1.14h1.43v.66h-1.67v.72h1.47v.57h-1.47v.78h1.47v.57h-1.47v.77h1.65v.48a7.65 7.65 0 0 0 1.33-1.39 20.8 20.8 0 0 1-.73-4.44h-6.25v-.72h2.58v-1h-2.09v-.71h2.09v-1h.82v1h2v.71h-2v1h2.81c-.05-.87-.07-1.79-.08-2.73h.82c0 1 0 1.88.06 2.73h3.08v.72h-3a22.46 22.46 0 0 0 .51 3.55 12.91 12.91 0 0 0 1.2-2.86Zm-6.25 1h-1.61v.72h1.61Zm0 1.29h-1.61v.78h1.61Zm-1.61 2.12h1.61v-.77h-1.61Zm7.49-6.51a8.23 8.23 0 0 0-1.64-1.66l.59-.41a9.09 9.09 0 0 1 1.66 1.59ZM246.22 199.57v.81h-10v-.79h4.56v-2.08h-3.58v-.78h3.58v-1.47h.85v1.47h3.68v.78h-3.68v2.08Zm-1.15-4.06a8 8 0 0 0-.73-.82c-6.1.3-6.71.32-7.13.47a6.75 6.75 0 0 0-.27-.84 1.89 1.89 0 0 0 .78-.52 13.05 13.05 0 0 0 1.7-1.92h-3v-.79h9.43v.79h-5.35a18 18 0 0 1-2.11 2.34l5.23-.22c-.46-.42-.95-.84-1.4-1.19l.66-.43a17.87 17.87 0 0 1 2.88 2.62ZM13.71 219.32c2.61-2.27 3.81-3.93 3.81-5.35a1.46 1.46 0 0 0-1.53-1.64 2.29 2.29 0 0 0-1.72 1l-.6-.59a3.15 3.15 0 0 1 2.44-1.22 2.28 2.28 0 0 1 2.42 2.45c0 1.66-1.31 3.34-3.25 5.19.43 0 .94-.08 1.36-.08h2.29v.89h-5.22ZM20.28 215.76c0-2.89 1-4.28 2.6-4.28s2.58 1.4 2.58 4.28-1 4.32-2.58 4.32-2.6-1.44-2.6-4.32Zm4.17 0c0-2.43-.63-3.45-1.57-3.45s-1.59 1-1.59 3.45.64 3.5 1.59 3.5 1.62-1.06 1.62-3.5ZM26.74 219.32c2.6-2.27 3.8-3.93 3.8-5.35a1.45 1.45 0 0 0-1.52-1.64 2.33 2.33 0 0 0-1.73 1l-.6-.59a3.17 3.17 0 0 1 2.45-1.22 2.27 2.27 0 0 1 2.41 2.45c0 1.66-1.3 3.34-3.25 5.19.43 0 .94-.08 1.36-.08h2.3v.89h-5.22ZM33.75 219.07h1.85v-6.19h-1.48v-.66a5.22 5.22 0 0 0 1.73-.58h.79v7.43h1.66v.86h-4.55ZM52.85 218.21h-4.09v2.6h-.85v-2.6h-5.23v-.83h1.82v-3h3.38v-1.72h-2.75a10.3 10.3 0 0 1-1.73 2.23 4.63 4.63 0 0 0-.72-.53 9.64 9.64 0 0 0 2.55-3.9l.85.2c-.16.4-.34.8-.52 1.19h6.74v.81h-3.57v1.72h3.31v.8h-3.31v2.2h4.09Zm-4.94-.81v-2.24h-2.54v2.22ZM55.87 212.38v2.47a13.14 13.14 0 0 1-1.12 6 4.19 4.19 0 0 0-.7-.49c.92-1.6 1-3.89 1-5.52v-3.24h4.51a8 8 0 0 0-.49-.92l.77-.26a6 6 0 0 1 .65 1.18h3.92v.78Zm5.65 4.33c.43 1.91 1.17 3.19 1.87 3.18.25 0 .35-.48.41-1.6a2.1 2.1 0 0 0 .66.38c-.12 1.58-.41 2-1.13 2-1.2 0-2.14-1.64-2.62-4h-2.84v2.76l1.71-.53a3.81 3.81 0 0 0 0 .69 13.27 13.27 0 0 0-2.7 1.06 2.87 2.87 0 0 0-.29-.7.65.65 0 0 0 .46-.63v-5.85a41.8 41.8 0 0 0 5.87-.57l.64.64c-.69.15-1.53.26-2.42.36a15.47 15.47 0 0 0 .21 2h2.67v.75Zm-1-.75a18.82 18.82 0 0 1-.22-1.94c-.82.07-1.67.13-2.48.16v1.78Zm-.48 1.94a20.57 20.57 0 0 1 1.16 2.4l-.68.3a24.2 24.2 0 0 0-1.1-2.47ZM66.73 220.55a2 2 0 0 0 1.43-1.67h-.19a.77.77 0 0 1-.85-.8.8.8 0 0 1 .86-.82c.62 0 1 .51 1 1.31a2.7 2.7 0 0 1-2 2.57ZM83.59 218.08a12.17 12.17 0 0 0 4.07 1.83 3.88 3.88 0 0 0-.53.68 13.11 13.11 0 0 1-4.33-2.21v2.43h-.82v-2.43a13 13 0 0 1-4.29 2.31 3.39 3.39 0 0 0-.56-.69 12.56 12.56 0 0 0 4.1-1.91H77.4v-.71h4.58v-.76h.82v.76h4.7v.69Zm-4.85-4.81a9.71 9.71 0 0 1-1 .91 2.22 2.22 0 0 0-.6-.54 9.48 9.48 0 0 0 2.63-3.19l.86.16c-.19.33-.39.71-.64 1.06h2.57c-.15-.33-.34-.71-.52-1l.74-.23a7.15 7.15 0 0 1 .65 1.25h3.32v.69h-3.64v.76h3.18v.6h-3.18v.74h3.22v.6h-3.22v.79h4v.68h-7.56v.33h-.83Zm3.57-.92h-2.74v.76h2.74Zm0 1.36h-2.74v.74h2.74Zm0 1.34h-2.74v.79h2.74ZM98.64 210.96v9.85h-.89v-.43h-7.59v.47h-.85V211Zm-.89 8.61v-7.83h-7.59v7.83Zm-.65-5.19h-1.75v3.58c0 .44-.09.65-.39.78a4 4 0 0 1-1.47.16 2.68 2.68 0 0 0-.28-.76h1.14c.14 0 .19-.05.19-.18v-2.58a13.23 13.23 0 0 1-3.26 2.65 3.25 3.25 0 0 0-.55-.57 11.44 11.44 0 0 0 3.54-3H90.9v-.76h3.6v-1.43h.81v1.43h1.75ZM103.87 218c-1.13.46-2.35.94-3.3 1.3l-.28-.85c.4-.12.89-.29 1.42-.49v-4h-1.21v-.79h1.25v-2.62h.75v2.62h1.09v.79h-1.09v3.67l1.18-.44Zm5.43 2a1.21 1.21 0 0 0 .38 0 .33.33 0 0 0 .2-.24 8.35 8.35 0 0 0 .05-1 2.21 2.21 0 0 0 .68.36 5 5 0 0 1-.14 1.1.65.65 0 0 1-.42.35 2.88 2.88 0 0 1-.69.09h-.75a1.42 1.42 0 0 1-.77-.19c-.21-.14-.29-.32-.29-.92v-1.68h-1c-.18 1.63-.75 2.49-2.81 3a2.66 2.66 0 0 0-.45-.66c1.84-.37 2.32-1 2.47-2.32h-1.18v-3.2h5.14v3.2h-1.37v1.76c0 .17 0 .28.11.31a.5.5 0 0 0 .3.06Zm1-5.92h-6.28v-.7h1.6a6.74 6.74 0 0 0-.35-1.08l.69-.15a8.53 8.53 0 0 1 .4 1.12l-.41.11h1.88a9.57 9.57 0 0 0 .47-1.2l.78.17c-.17.37-.35.73-.5 1h1.72Zm-.29-2.06h-5.65v-.71h2.45c-.09-.25-.22-.51-.32-.75l.78-.15a9 9 0 0 1 .39.9h2.35Zm-4.66 4h3.55v-.73h-3.55Zm0 1.32h3.55v-.76h-3.55ZM121.61 219.69c0 .54-.13.81-.51.95a7.94 7.94 0 0 1-2.11.14 3.25 3.25 0 0 0-.28-.85h1.8c.24 0 .27-.08.27-.29v-6.45h-3.28a7.23 7.23 0 0 1-.21 1.47 34.38 34.38 0 0 1 3.2 3.15l-.69.54a27.15 27.15 0 0 0-2.76-2.88 6 6 0 0 1-2.75 3 3 3 0 0 0-.6-.63 5.12 5.12 0 0 0 3-4.68h-3.29v7.6h-.83v-8.38h4.1v-1.93h.83v1.93h4.1ZM128.34 212.14l.57.2c-.59 4.42-2.36 7.06-4.77 8.38a2.79 2.79 0 0 0-.68-.69 7.45 7.45 0 0 0 3.21-3.18 16.33 16.33 0 0 0-1.83-1.42l.51-.56a15.86 15.86 0 0 1 1.69 1.23 13.4 13.4 0 0 0 .88-3.12h-2.15a10.82 10.82 0 0 1-1.61 3 6.28 6.28 0 0 0-.69-.53 11.22 11.22 0 0 0 2.15-5l.83.16c-.13.54-.25 1.06-.41 1.57h2.13Zm2.71 1.73a22.55 22.55 0 0 1 2.8 2.55l-.67.58a21.31 21.31 0 0 0-2.43-2.35v6.14h-.86v-10.32h.86v3.64ZM135.06 219.8a6.45 6.45 0 0 0 1.06-2.42l.78.15a7.13 7.13 0 0 1-1.07 2.64Zm8.7-3.49h-7.1v-3.57h1.95a8.75 8.75 0 0 0-1.14-1.9l.71-.33a7.53 7.53 0 0 1 1.2 1.9l-.69.33h2.32a13.58 13.58 0 0 0 1.24-2.26l.86.35c-.37.64-.78 1.34-1.17 1.91h1.82Zm-.91-2.77h-5.3v2h5.3Zm-1 6.37c.56 0 .65-.16.71-1.14a2.65 2.65 0 0 0 .8.3c-.13 1.28-.4 1.6-1.44 1.6h-2.52c-1.33 0-1.66-.24-1.66-1.15v-2.33h.86v2.33c0 .34.14.39.85.39Zm-2.07-3.5a10.24 10.24 0 0 1 2 1.78l-.61.54a9.88 9.88 0 0 0-2-1.84Zm3.94.72a9 9 0 0 1 1.6 2.46l-.68.42a9.69 9.69 0 0 0-1.57-2.51ZM150.06 214.07l-3.14 1-.24-.78c.81-.23 2-.61 3.26-1Zm2.2 2.76c-.37 2.26-1.42 3.47-5.21 4a2.57 2.57 0 0 0-.37-.69c3.58-.44 4.43-1.44 4.76-3.31Zm-2.83-4.15a10.58 10.58 0 0 0-2.36-1.23l.42-.58a10.56 10.56 0 0 1 2.38 1.15Zm5.15 6.11v-2.29H149v2.37h-.83v-3.14h7.26v3.06Zm-.85-6.62c-.06.2-.12.38-.19.57a5.07 5.07 0 0 0 3.25 2 2.71 2.71 0 0 0-.51.66 5.72 5.72 0 0 1-3.07-2 4.72 4.72 0 0 1-3 2.12 2.19 2.19 0 0 0-.45-.61 3.87 3.87 0 0 0 3.1-2.74h-1.33a7.08 7.08 0 0 1-1.18 1.29 2.21 2.21 0 0 0-.59-.52 5.54 5.54 0 0 0 1.78-2.44l.8.12a6.94 6.94 0 0 1-.41.88h3.97l.61.17a17.18 17.18 0 0 1-.91 1.74l-.73-.22a11 11 0 0 0 .52-1Zm-1.35 6.28a32.54 32.54 0 0 1 4.25 1.62l-.5.69a34.22 34.22 0 0 0-4.21-1.7ZM168.1 215.51h-8.16v.74a8.35 8.35 0 0 1-1.16 4.64 4.76 4.76 0 0 0-.7-.59 7 7 0 0 0 1-4.07v-1.54h5.42a11.47 11.47 0 0 0 .92-1.9l.91.29c-.31.55-.66 1.14-1 1.61h2.76Zm-.29-2.88h-8.9v-.8h4.24a5.94 5.94 0 0 0-.69-1.15l.82-.23a6.13 6.13 0 0 1 .85 1.36h-.06 3.74Zm-6.23 2a8.11 8.11 0 0 0-.95-1.63l.73-.3a8.35 8.35 0 0 1 1 1.59ZM173.01 219.07h1.85v-6.19h-1.47v-.66a5.16 5.16 0 0 0 1.72-.58h.79v7.43h1.67v.86h-4.56ZM179.36 219.3a.75.75 0 1 1 1.49 0 .75.75 0 1 1-1.49 0ZM182.9 219.07h1.85v-6.19h-1.47v-.66a5.24 5.24 0 0 0 1.72-.58h.79v7.43h1.71v.86h-4.6ZM188.75 218.95l.52-.68a2.73 2.73 0 0 0 2.06 1 1.53 1.53 0 0 0 1.68-1.54c0-1-.66-1.66-2.58-1.66v-.8c1.71 0 2.3-.69 2.3-1.58a1.3 1.3 0 0 0-1.4-1.34 2.63 2.63 0 0 0-1.72.83l-.56-.66a3.35 3.35 0 0 1 2.32-1c1.4 0 2.41.74 2.41 2.08a2.06 2.06 0 0 1-1.48 2 2.13 2.13 0 0 1 1.77 2.11 2.41 2.41 0 0 1-2.66 2.36 3.41 3.41 0 0 1-2.66-1.12ZM202.43 212.13c0 .75-.06 1.53-.14 2.31h5v.41c-.21 3.65-.39 5-.83 5.47a1.32 1.32 0 0 1-1 .41 16 16 0 0 1-2 0 1.75 1.75 0 0 0-.3-.82 19.13 19.13 0 0 0 2 .09.69.69 0 0 0 .53-.15c.34-.31.54-1.55.69-4.54h-4.23a7.07 7.07 0 0 1-3.4 5.57 2.25 2.25 0 0 0-.61-.66c3.14-1.66 3.3-5.15 3.36-8h-3v-.81h9.85v.81ZM213.3 210.74a18.72 18.72 0 0 1-1.07 2.27v7.77h-.82v-6.47a11.69 11.69 0 0 1-1.22 1.5 5.39 5.39 0 0 0-.48-.83 13.11 13.11 0 0 0 2.8-4.49Zm5 8.75c.6 0 .73-.36.79-2.27a3 3 0 0 0 .77.28c-.14 2.37-.46 2.8-1.6 2.8h-2.76c-1.33 0-1.93-.51-1.93-1.33s.2-1.5 4.56-6.53h-4.34v-.8H219.18l.53.3-.12.13c-4.92 5.54-5.2 6.33-5.2 6.85s.42.6 1.06.6ZM230.31 219.8c.45 0 .52-.3.58-2a2.57 2.57 0 0 0 .78.38c-.09 1.92-.32 2.45-1.3 2.45h-1.62c-1 0-1.28-.29-1.28-1.25v-4h-2.12c-.21 2.42-.76 4.4-3.36 5.45a2.2 2.2 0 0 0-.53-.65c2.41-.92 2.83-2.69 3-4.8h-2.87v-.82h9.91v.82h-3.18v4c0 .39.09.47.53.47Zm.24-7.64h-8v-.78h8ZM236.35 218.89a1.73 1.73 0 1 1-1.73-1.72 1.73 1.73 0 0 1 1.73 1.72Zm-.58 0a1.15 1.15 0 1 0-1.15 1.16 1.15 1.15 0 0 0 1.15-1.16Z"/></svg>