<svg id="图层_1" data-name="图层 1" xmlns="http://www.w3.org/2000/svg" viewBox="0 0 252.13 90.9"><defs><style>.cls-1{fill:#666868}</style></defs><path class="cls-1" d="M14.34 9.52A8.31 8.31 0 0 0 18.79 15a4.46 4.46 0 0 0-.63.79 9.19 9.19 0 0 1-4.51-5.61 7.91 7.91 0 0 1-4.51 5.61 2.45 2.45 0 0 0-.64-.69 7.37 7.37 0 0 0 4.41-5.54H8.73v-.9H13a23.84 23.84 0 0 0 .17-3.21h.91a25.7 25.7 0 0 1-.18 3.21h4.67v.86ZM29.15 10a21.46 21.46 0 0 1-1.75 1.28 5.44 5.44 0 0 0 3 3.32 2.66 2.66 0 0 0-.55.69 6.17 6.17 0 0 1-3.12-3.59c-.17.11-.36.22-.53.31.38 1.46.1 2.86-.51 3.33a1.56 1.56 0 0 1-1.16.4h-1a1.82 1.82 0 0 0-.22-.8c.41 0 .78.06 1 .06a.92.92 0 0 0 .73-.24 2.33 2.33 0 0 0 .44-1.95 16.85 16.85 0 0 1-4.85 2.43 3.39 3.39 0 0 0-.44-.72 12.88 12.88 0 0 0 5.2-2.52 4.31 4.31 0 0 0-.31-.79 17.58 17.58 0 0 1-4.2 2 3.24 3.24 0 0 0-.43-.66 13.77 13.77 0 0 0 4.29-1.87 3.06 3.06 0 0 0-.54-.68 17 17 0 0 1-3.26 1.33 3.57 3.57 0 0 0-.46-.66 12.81 12.81 0 0 0 4-1.65h-2.54v-.73h6.51V9h-2.81a6.3 6.3 0 0 1-.81.6A5.1 5.1 0 0 1 26 11.36a20.5 20.5 0 0 0 2.47-1.9Zm-7.81-1.25h-.82V6.43h4.25c-.13-.28-.28-.58-.42-.83l.86-.24a6 6 0 0 1 .55 1.07h4.18v2.32h-.85V7.21h-7.75ZM35 5.69a16.15 16.15 0 0 1-1.16 2.36v7.69h-.8V9.28a12.06 12.06 0 0 1-1.21 1.45 6.35 6.35 0 0 0-.48-.81 12.84 12.84 0 0 0 2.86-4.46Zm4.14 6a8.82 8.82 0 0 0 3 2.92 3.92 3.92 0 0 0-.6.67 10.11 10.11 0 0 1-2.86-3.07v3.54h-.84v-3.49a9.35 9.35 0 0 1-3 3 3.66 3.66 0 0 0-.58-.66 8.46 8.46 0 0 0 3.12-2.9h-2.8v-.77h3.29v-1.4H35.4V6h5.83v3.53h-2.54v1.41h3.17v.77Zm-3-2.92h4.2V6.71H36.2ZM46.81 6.17c-.33.93-.75 2-1.12 2.93a3.61 3.61 0 0 1 1 2.45 1.56 1.56 0 0 1-.45 1.32 1.35 1.35 0 0 1-.59.22 6 6 0 0 1-.74 0 1.79 1.79 0 0 0-.22-.75 5 5 0 0 0 .66 0 .53.53 0 0 0 .34-.1 1 1 0 0 0 .24-.78 3.41 3.41 0 0 0-1-2.29c.32-.81.66-1.79.89-2.54H44.4v9.09h-.75V5.89h2.61ZM48.09 9c-.38.33-.75.64-1.13.92a4.16 4.16 0 0 0-.51-.68 9.49 9.49 0 0 0 3.42-3.88l.73.26c-.07.14-.13.28-.2.4a12.15 12.15 0 0 0 3.29 3.06 3 3 0 0 0-.44.74A14.53 14.53 0 0 1 50 6.68a11.65 11.65 0 0 1-1.87 2.24h3.76v.73h-3.8Zm5 1.7a38 38 0 0 1-1.75 3.8h2.11v.75h-6.6v-.75h3.75a24.67 24.67 0 0 0 1.71-4Zm-5 0a15.46 15.46 0 0 1 .76 2.7l-.71.19a12.32 12.32 0 0 0-.71-2.72ZM50 13.27a21.23 21.23 0 0 0-.45-2.71l.67-.09a19.55 19.55 0 0 1 .47 2.69ZM61 13a12 12 0 0 0 4.08 1.84 3.54 3.54 0 0 0-.53.68 13.11 13.11 0 0 1-4.33-2.23v2.43h-.83v-2.38a13.21 13.21 0 0 1-4.29 2.31 2.66 2.66 0 0 0-.55-.69A12.68 12.68 0 0 0 58.67 13h-3.83v-.69h4.57v-.76h.83v.76h4.64V13Zm-4.82-4.77a12.51 12.51 0 0 1-1 .92 2.62 2.62 0 0 0-.6-.55 9.39 9.39 0 0 0 2.63-3.19l.86.16a11.22 11.22 0 0 1-.65 1.06H60a9.63 9.63 0 0 0-.52-1l.75-.23a6.74 6.74 0 0 1 .65 1.24h3.31v.68h-3.63v.76h3.18v.6h-3.18v.75h3.21V10h-3.21v.78h4v.68H57v.34h-.82Zm3.56-.92H57v.76h2.74Zm0 1.36H57v.75h2.74Zm0 1.35H57v.78h2.74ZM76.07 5.92v9.85h-.88v-.46h-7.6v.46h-.85V5.92Zm-.88 8.62V6.7h-7.6v7.84Zm-.66-5.18h-1.74v3.58c0 .44-.09.66-.4.78a3.7 3.7 0 0 1-1.47.16 2.77 2.77 0 0 0-.27-.76h1.13c.13 0 .2 0 .2-.18v-2.63A12.67 12.67 0 0 1 68.71 13a2.83 2.83 0 0 0-.54-.56 11.2 11.2 0 0 0 3.53-3h-3.36V8.6H72V7.18h.81V8.6h1.74ZM81.82 7.68c-.22.44-.44.89-.69 1.31h5.46v5.72c0 .51-.12.76-.48.89a6.76 6.76 0 0 1-2 .15 3.22 3.22 0 0 0-.27-.83h1.63c.21 0 .26-.06.26-.23v-1.16H81v2.23h-.83V10.3a9.17 9.17 0 0 1-1.89 1.79 3.46 3.46 0 0 0-.53-.64 9.46 9.46 0 0 0 3.15-3.77h-2.84v-.8h3.19a13.24 13.24 0 0 0 .5-1.46l.84.21c-.14.42-.27.85-.44 1.25h5.76v.8Zm3.94 2.07H81v1.14h4.72Zm0 3.05v-1.17H81v1.17ZM93.32 6.18c-.34.92-.75 2-1.14 2.92a3.62 3.62 0 0 1 1 2.47 1.56 1.56 0 0 1-.44 1.3 1.09 1.09 0 0 1-.6.22 4.6 4.6 0 0 1-.75 0 2 2 0 0 0-.21-.75 2.46 2.46 0 0 0 .66 0 .65.65 0 0 0 .35-.1 1 1 0 0 0 .23-.78 3.4 3.4 0 0 0-1-2.3c.32-.81.66-1.79.89-2.53h-1.63v9.09h-.75V5.89h2.83Zm6.18 5.64a17.88 17.88 0 0 1-2 1.35A5 5 0 0 0 99.74 15a3.6 3.6 0 0 0-.58.71c-1.77-.84-2.82-2.57-3.39-4.81h-1.08v3.72l2-.48a5.88 5.88 0 0 0 0 .77 14.06 14.06 0 0 0-2.9.89 2.32 2.32 0 0 0-.37-.69.84.84 0 0 0 .42-.79v-8.4h4.95v4.95h-2.28a7.53 7.53 0 0 0 .67 1.7 18.81 18.81 0 0 0 1.76-1.34Zm-4.81-5.15V8H98V6.67Zm0 3.46H98v-1.4h-3.31ZM111.06 9.07v.68h-10v-.68h4.54v-.78h-3.39v-.63h3.39v-.74h-3.92v-.67h3.92v-.82h.85v.82h4v.67h-4v.74H110v.63h-3.5v.78Zm-4.58 3.42c0 1.11-.5 2.43-4.74 3.28a2.39 2.39 0 0 0-.52-.67c4.07-.71 4.4-1.81 4.4-2.62v-1h.86Zm2.31 1.2v-2.55h-5.4v2.62h-.83v-3.34h7.1v3.27Zm-2-.16a25.24 25.24 0 0 1 4.21 1.56l-.44.7a25.54 25.54 0 0 0-4.16-1.65ZM116.13 5.68a17.91 17.91 0 0 1-1.2 2.4v7.69h-.83V9.33a11.2 11.2 0 0 1-1.34 1.53 3 3 0 0 0-.52-.84 12.48 12.48 0 0 0 3.07-4.59Zm3.46 5.37v3.48h3v.81h-6.77v-.81h2.91v-3.48h-3.34v-.82h3.34v-3c-.9.15-1.84.29-2.7.39a3.79 3.79 0 0 0-.26-.71 33.79 33.79 0 0 0 5.92-1.22l.62.7a26.57 26.57 0 0 1-2.74.69v3.13h3.19v.82ZM128.1 6a13.53 13.53 0 0 1-3.18 4.66 6.47 6.47 0 0 0-.78-.6 10.64 10.64 0 0 0 3.06-4.31Zm3.11 5.43a29.34 29.34 0 0 1 2.7 3.8l-.82.45c-.18-.36-.45-.8-.75-1.27-5.94.41-6.55.45-7 .6a4.65 4.65 0 0 0-.33-.88c.3-.07.6-.41 1-.94a25.69 25.69 0 0 0 2.72-4.35l.91.41a28.71 28.71 0 0 1-3.15 4.7l5.26-.32c-.45-.63-.94-1.29-1.38-1.84ZM131 5.68a14.29 14.29 0 0 0 3.38 4.32 4.78 4.78 0 0 0-.7.72A18.56 18.56 0 0 1 130.21 6ZM145.09 14.51c0 .58-.13.88-.51 1a7.33 7.33 0 0 1-2.11.16 3 3 0 0 0-.29-.9h1.79c.23 0 .27-.07.27-.29V7h-8.14v-.8h9ZM143 8.9h-6.77v-.76H143Zm-5.23 4.81v.83h-.83v-4.43h5.29v3.6Zm0-2.85V13h3.63v-2.1ZM154.49 10.6a7.55 7.55 0 0 1 2.25-5.39l.68.35a7.1 7.1 0 0 0 0 10.08l-.68.35a7.57 7.57 0 0 1-2.25-5.39ZM163.54 11.8a5 5 0 0 0 .22.79c-3.26 1.56-3.67 1.8-4 2.05a2.52 2.52 0 0 0-.46-.69 1.28 1.28 0 0 0 .68-1V6.31h.9V13Zm4.8 3.94a17.25 17.25 0 0 0-2.29-2.7 7.13 7.13 0 0 1-3.31 2.8 5.12 5.12 0 0 0-.62-.73c3.62-1.43 4.4-4.23 4.66-9.23h.88a18 18 0 0 1-1.21 6.38 21.86 21.86 0 0 1 2.62 2.89Zm-4.22-6.18a14.46 14.46 0 0 0-1.7-2.7l.71-.37a14 14 0 0 1 1.75 2.62ZM175.62 7.11v2l.14-.17a29.2 29.2 0 0 1 4 2.38l-.58.78a28.6 28.6 0 0 0-3.59-2.3v5.9h-.9V7.11h-4.29v-.85h10v.85ZM183.71 7.08a7.42 7.42 0 0 1-1.13 1.4 3.26 3.26 0 0 0-.7-.46 6.19 6.19 0 0 0 1.77-2.62l.8.19a7.51 7.51 0 0 1-.34.77h2.72v.72h-1.57a6.38 6.38 0 0 1 .48 1l-.73.29a6.92 6.92 0 0 0-.6-1.3Zm-1.18 2.7h.81v6h-.81Zm1.22-1.57a8.26 8.26 0 0 1 1.17 1.4l-.67.43a7 7 0 0 0-1.13-1.42Zm1.81 6v.57h-.78v-4.42h4.36v3.87Zm5.81.52c0 .5-.14.73-.52.86a8 8 0 0 1-2.06.12 3.2 3.2 0 0 0-.28-.74h1.75c.2 0 .28-.06.28-.24V9.3h-5.28v-.76h6.11ZM185.56 11v.92h2.78V11Zm2.78 2.54v-1h-2.78v1Zm3.43-7.2v.72h-1.83a5.73 5.73 0 0 1 .56 1l-.74.33a6.07 6.07 0 0 0-.73-1.3h-.86a6.06 6.06 0 0 1-.9 1.2 6.21 6.21 0 0 0-.68-.47A5.62 5.62 0 0 0 188 5.41l.79.18a5.46 5.46 0 0 1-.28.77ZM201.06 7.71v7c0 .48-.11.7-.41.84a4.29 4.29 0 0 1-1.5.16 3.75 3.75 0 0 0-.29-.81H200c.14 0 .2 0 .2-.2v-7h-1.1A9.73 9.73 0 0 1 198 10a5.37 5.37 0 0 0-.71-.44v-.07H196v.43a43.6 43.6 0 0 1 1.45 1.62l-.48.67c-.18-.32-.61-.95-1-1.45v5.07h-.78v-5a11.92 11.92 0 0 1-1.57 2.93 6.23 6.23 0 0 0-.41-.71 12.05 12.05 0 0 0 1.88-3.56h-1.65v-.84h1.75V6.82q-.72.15-1.41.24a2.52 2.52 0 0 0-.24-.64 15.38 15.38 0 0 0 3.38-.9l.5.66a9.56 9.56 0 0 1-1.45.45v2h1.44v.66a10.63 10.63 0 0 0 1.4-3.85l.8.14c-.09.46-.2.9-.31 1.32h3.83l.53.16c-.26.69-.6 1.45-.91 2.1L202 9c.2-.4.41-.85.58-1.25ZM199.41 10a11.92 11.92 0 0 1-1.41 4 3.05 3.05 0 0 0-.7-.43 9.67 9.67 0 0 0 1.36-3.73Zm3-.24a19.23 19.23 0 0 1 1.17 3.89l-.77.25a20.36 20.36 0 0 0-1.12-3.93ZM213.11 5.74a1.73 1.73 0 0 0-1 1.39.58.58 0 0 1 .32-.09.69.69 0 0 1 .7.73.73.73 0 0 1-.77.73 1 1 0 0 1-.88-1.07 2.38 2.38 0 0 1 1.4-2.12Zm2.17 0a1.73 1.73 0 0 0-1 1.39.57.57 0 0 1 .31-.09.69.69 0 0 1 .71.73.73.73 0 0 1-.77.73 1 1 0 0 1-.89-1.07A2.39 2.39 0 0 1 215 5.31ZM222.77 13a12 12 0 0 0 4.08 1.84 4 4 0 0 0-.54.68 13 13 0 0 1-4.31-2.19v2.43h-.83v-2.42a13.21 13.21 0 0 1-4.29 2.31 2.66 2.66 0 0 0-.55-.69 12.68 12.68 0 0 0 4.1-1.92h-3.83v-.69h4.57v-.76h.83v.76h4.64V13Zm-4.85-4.81a10.83 10.83 0 0 1-1 .92 2.85 2.85 0 0 0-.6-.55A9.51 9.51 0 0 0 219 5.41l.86.16c-.2.34-.4.71-.65 1.06h2.57c-.15-.32-.34-.71-.52-1l.75-.23a6.11 6.11 0 0 1 .64 1.24h3.32v.68h-3.63v.76h3.18v.6h-3.18v.75h3.21V10h-3.21v.78h4v.68h-7.56v.34h-.83Zm3.57-.92h-2.74v.76h2.74Zm0 1.36h-2.74v.75h2.74Zm0 1.35h-2.74v.78h2.74ZM237.82 5.92v9.85h-.88v-.46h-7.6v.46h-.85V5.92Zm-.88 8.62V6.7h-7.6v7.84Zm-.66-5.18h-1.74v3.58c0 .44-.09.66-.4.78a3.7 3.7 0 0 1-1.47.16 2.77 2.77 0 0 0-.27-.76h1.13c.13 0 .19 0 .19-.18v-2.63a12.79 12.79 0 0 1-3.26 2.69 2.83 2.83 0 0 0-.54-.56 11.31 11.31 0 0 0 3.53-3h-3.36V8.6h3.63V7.18h.82V8.6h1.74ZM239.48 8.12a1.74 1.74 0 0 0 1-1.39.63.63 0 0 1-.31.09.69.69 0 0 1-.71-.73.72.72 0 0 1 .77-.73 1 1 0 0 1 .89 1.07 2.4 2.4 0 0 1-1.41 2.12Zm2.17 0a1.72 1.72 0 0 0 1-1.39.68.68 0 0 1-.32.09.7.7 0 0 1-.7-.73.72.72 0 0 1 .77-.73 1 1 0 0 1 .9 1.07 2.4 2.4 0 0 1-1.42 2.12ZM248.39 10.6a7.53 7.53 0 0 1-2.25 5.4l-.68-.35a7.07 7.07 0 0 0 0-10.08l.68-.35a7.51 7.51 0 0 1 2.25 5.38ZM12.33 27.62v8.09h-.85v-.64h-7v.7h-.84v-8.15h3.89v-2.17h.83v2.17Zm-7.85.84v2.44h3.05v-2.44Zm0 5.78h3.05v-2.51h-3Zm3.88-5.78v2.44h3.12v-2.44Zm3.12 5.78v-2.51H8.36v2.51ZM24.2 27.27v5.65h-1.42v-.57h-2.56v3.53H18.8v-3.53h-2.55V33h-1.36v-5.7h3.91v-2h1.42v2ZM18.8 31v-2.41h-2.55V31Zm4 0v-2.41h-2.58V31ZM35.83 25.75v10.13h-1.44v-.56h-6.7v.56h-1.37V25.75Zm-1.44 8.32V27h-6.7v7.08ZM34 32.32v1.1h-5.87v-1.1h2.28V31h-1.87v-1.15h1.87v-1.06h-2.15v-1.18h5.55v1.18h-2.16v1.06h1.92V31h-.63a8.61 8.61 0 0 1 .85 1l-.59.33Zm-2.35 0h1.13a8.55 8.55 0 0 0-.77-1l.7-.35h-1.06ZM41.12 25.74a17.32 17.32 0 0 1-1 2.23v7.89h-1.33v-5.92c-.28.36-.57.7-.86 1a9.2 9.2 0 0 0-.73-1.38 11.89 11.89 0 0 0 2.68-4.24Zm4.46 6.19a8.36 8.36 0 0 0 2.6 2.47 5.8 5.8 0 0 0-1 1.08A9.36 9.36 0 0 1 44.93 33v2.92h-1.36V33a8.83 8.83 0 0 1-2.45 2.43 5.5 5.5 0 0 0-.93-1.07 8.06 8.06 0 0 0 2.73-2.45H40.6v-1.2h3v-1h-2.25v-3.9h5.94v3.88h-2.36v1h2.92v1.22Zm-2.95-3.43H46V27h-3.37ZM52.91 26.19c-.29 1-.66 2.1-1 3a3.7 3.7 0 0 1 .81 2.36 1.73 1.73 0 0 1-.5 1.48 1.41 1.41 0 0 1-.64.25 5.32 5.32 0 0 1-.72 0 3 3 0 0 0-.3-1.16 2.65 2.65 0 0 0 .48 0 .51.51 0 0 0 .3-.08.86.86 0 0 0 .21-.68 3.21 3.21 0 0 0-.78-2.06c.22-.7.45-1.62.63-2.37h-.9v8.91h-1.18V25.75H52.04Zm.94 3c-.29.24-.56.48-.86.7a8.84 8.84 0 0 0-.78-1.1 10.44 10.44 0 0 0 3.34-3.61l1.16.41a3.79 3.79 0 0 1-.2.34 11.45 11.45 0 0 0 3.17 2.55 6.69 6.69 0 0 0-.63 1.29 11.09 11.09 0 0 1-1.19-.86v1h-4Zm5.26 1.54a38.42 38.42 0 0 1-1.57 3.51h1.78v1.18h-6.54v-1.17h3.65A22.51 22.51 0 0 0 58 30.48Zm-5.29 2.95a17.9 17.9 0 0 0-.6-2.72l1-.27a18.27 18.27 0 0 1 .67 2.67Zm3.85-4.93A14.69 14.69 0 0 1 55.85 27a14 14 0 0 1-1.53 1.79Zm-1.9 4.54a25.31 25.31 0 0 0-.43-2.67l1-.15a23.86 23.86 0 0 1 .48 2.65ZM64.23 25.74A20.47 20.47 0 0 1 63.18 28v7.89H61.9v-5.95c-.29.36-.57.7-.86 1a9.2 9.2 0 0 0-.73-1.38A12 12 0 0 0 63 25.33Zm4.46 6.19a8.44 8.44 0 0 0 2.59 2.47 6.13 6.13 0 0 0-1 1.08A9.39 9.39 0 0 1 68 33v2.92h-1.33V33a8.94 8.94 0 0 1-2.44 2.43 5.85 5.85 0 0 0-.93-1.07 8.06 8.06 0 0 0 2.7-2.43h-2.29v-1.22h3v-1h-2.26v-3.9h6v3.88H68v1h3v1.22Zm-3-3.43h3.32V27h-3.28ZM76 26.2c-.31 1-.69 2.1-1 3a3.67 3.67 0 0 1 .86 2.35 1.76 1.76 0 0 1-.52 1.5 1.46 1.46 0 0 1-.64.25 5.94 5.94 0 0 1-.75 0 2.94 2.94 0 0 0-.3-1.16 2.15 2.15 0 0 0 .5 0 .57.57 0 0 0 .32-.09c.15-.11.2-.35.2-.67a3.21 3.21 0 0 0-.81-2.07c.22-.69.46-1.62.65-2.36h-1v8.91h-1.18V25.75h2.81Zm1.63.92h-1.46v-1h2.32c-.06-.19-.12-.4-.17-.57l1.21-.28c.1.26.23.58.31.85h2.32v1h-1.8l1 .18-.31.57h1.38v1.05h-6.67v-1.05h1.49a3.41 3.41 0 0 0-.2-.59Zm4.85 7.3h-2.6v1.46h-1.34v-1.46h-2.75v-1.09h2.75v-.55H76.4v-3.39h5.53v3.39h-2.05v.55h2.62Zm-4.85-3.71h3v-.48h-3Zm0 1.23h3v-.49h-3Zm2.17-4.07a4.19 4.19 0 0 0 .26-.75h-1.82a4.67 4.67 0 0 1 .28.75ZM92.05 31.73a6.67 6.67 0 0 0 2.2 1.27 4.9 4.9 0 0 0-.89 1 7.86 7.86 0 0 1-1.78-1.18v.83h-2.06v.74h3.69v1.11h-8.62v-1.03h3.56v-.74h-2V33a8.11 8.11 0 0 1-1.8 1.16 5.06 5.06 0 0 0-.86-1 6.93 6.93 0 0 0 2.28-1.43h-2.18v-1.1h2.16v-3.37h-1.56v-1.09h1.56v-.85h1.35v.85h3.54v-.85H92v.85h1.55v1.09H92v3.37h2.1v1.1Zm-.72.94a7.08 7.08 0 0 1-.81-.94h-3.2a7 7 0 0 1-.8.94h1.63V32h1.37v.7Zm-4.23-5.41v.5h3.54v-.5Zm0 1.92h3.54v-.5H87.1Zm0 1.45h3.54v-.51H87.1ZM101.12 29.82V31h3.61v1.2h-1.79l1.13.41c-.39.64-.83 1.32-1.18 1.8h2.43v1.24h-9.79v-1.24h2.23a10 10 0 0 0-.94-1.83l.89-.38h-1.64V31h3.6v-1.18h-2.3v-.56a14.47 14.47 0 0 1-1.46.61 4.91 4.91 0 0 0-.91-1.24 9.2 9.2 0 0 0 5.24-3.44l1.28.57-.32.46a12.69 12.69 0 0 0 4.64 2.41 6.93 6.93 0 0 0-.93 1.17 14.45 14.45 0 0 1-1.54-.65v.67ZM98 32.2a7.81 7.81 0 0 1 1 1.8l-.93.4h1.65v-2.2Zm4.44-3.62a12.85 12.85 0 0 1-2-1.47 10 10 0 0 1-1.83 1.47Zm-1.28 3.62v2.21h1.41l-.75-.31a10.08 10.08 0 0 0 1-1.9ZM110.94 27.94c-.14.3-.28.6-.45.89h5.24v5.59c0 .67-.13 1-.59 1.24a5.1 5.1 0 0 1-2 .22 5.76 5.76 0 0 0-.41-1.3h1.43c.2 0 .26-.07.26-.23v-.68h-4.09v2.16H109V31a8.1 8.1 0 0 1-1.49 1.32 7.14 7.14 0 0 0-.89-1 8.78 8.78 0 0 0 2.82-3.3H107v-1.35h3a11.41 11.41 0 0 0 .44-1.37l1.39.32c-.11.35-.22.7-.36 1.05H117v1.27Zm3.48 2.06h-4.09v.72h4.09Zm0 2.58v-.74h-4.09v.74ZM122.5 26.2c-.29 1-.66 2.1-1 3a3.66 3.66 0 0 1 .81 2.36 1.73 1.73 0 0 1-.5 1.48 1.53 1.53 0 0 1-.64.25 4.26 4.26 0 0 1-.73 0 2.7 2.7 0 0 0-.3-1.15 4.23 4.23 0 0 0 .49 0 .51.51 0 0 0 .3-.09.85.85 0 0 0 .21-.67 3.2 3.2 0 0 0-.79-2.07c.21-.69.46-1.61.64-2.36h-1.1v8.91h-1.18V25.75h2.7l.18-.06Zm6.11 5.8c-.49.39-1.08.82-1.59 1.15a4.76 4.76 0 0 0 1.84 1.51 4.74 4.74 0 0 0-.9 1.17c-1.69-.93-2.59-2.67-3.12-4.89h-.68v3.18l1.57-.35a7.66 7.66 0 0 0 .06 1.22 11.86 11.86 0 0 0-2.9.91 4.1 4.1 0 0 0-.58-1.05 1.12 1.12 0 0 0 .52-1v-8.09H128V31h-2a8.47 8.47 0 0 0 .45 1.23 9.89 9.89 0 0 0 1.29-1.12Zm-4.45-5.1v.88h2.49v-.88Zm0 2.87h2.49v-.9h-2.49ZM140.15 28.89v1H130v-1h4.41v-.48h-3.23v-.92h3.23V27h-3.75v-1h3.75v-.69h1.38V26h3.9v1h-3.9v.47h3.4v.92h-3.4v.48Zm-4.38 3.78c0 1.12-.66 2.41-4.76 3.2a5.16 5.16 0 0 0-.87-1c3.85-.59 4.21-1.51 4.21-2.18v-.87h1.42Zm1.74 1v-2.19h-4.89v2.32h-1.36v-3.45h7.67v3.32Zm-1.51-.28a25 25 0 0 1 4.05 1.45l-.66 1.16a24.12 24.12 0 0 0-4-1.58ZM149 31.31v2.9h2.72v1.29H145v-1.29h2.62v-2.9h-3.07V30h3.07v-2.51c-.79.14-1.6.24-2.36.33a4.78 4.78 0 0 0-.38-1.12 11.64 11.64 0 0 1-.7 1.36v7.81h-1.35v-5.79a11.93 11.93 0 0 1-.92 1 9.65 9.65 0 0 0-.79-1.42 11.73 11.73 0 0 0 2.88-4.32l1.34.42c-.13.31-.25.6-.4.91a29.6 29.6 0 0 0 5.67-1.2l1 1.13a18.73 18.73 0 0 1-2.56.65V30h2.83v1.3ZM157.36 26a13.76 13.76 0 0 1-3.13 4.7 12.07 12.07 0 0 0-1.27-1 9.76 9.76 0 0 0 2.93-4.15Zm3.17 5.27a33.51 33.51 0 0 1 2.56 3.91l-1.35.72c-.17-.37-.42-.81-.7-1.29-5.48.47-6.25.51-6.81.72a11.15 11.15 0 0 0-.52-1.42c.38-.1.65-.38 1.07-.89a19.59 19.59 0 0 0 2.68-4.34l1.5.65a24.24 24.24 0 0 1-2.93 4.3l4.23-.28-1-1.49Zm-.21-5.77a14.6 14.6 0 0 0 3.16 4 6.22 6.22 0 0 0-1.13 1.16A21.49 21.49 0 0 1 159 26ZM174.28 34.17c0 .77-.14 1.18-.63 1.42a5.08 5.08 0 0 1-2.19.26 5.81 5.81 0 0 0-.44-1.46 14.81 14.81 0 0 0 1.59 0c.21 0 .29 0 .29-.25v-6.87H165V26h9.29Zm-2.52-4.92h-6.65v-1.18h6.65ZM167 33.91v.82h-1.32v-4.64h5.5v3.82Zm0-2.67v1.52h2.85v-1.52ZM178.51 35.68a23.14 23.14 0 0 0-2.44-2.5l1.18-1a21.38 21.38 0 0 1 2.47 2.48ZM197.5 27.27v5.65h-1.42v-.57h-2.56v3.53h-1.42v-3.53h-2.55V33h-1.36v-5.7h3.91v-2h1.42v2ZM192.1 31v-2.41h-2.55V31Zm4 0v-2.41h-2.56V31ZM209.13 25.75v10.13h-1.44v-.56H201v.56h-1.37V25.75Zm-1.44 8.32V27H201v7.08Zm-.39-1.75v1.1h-5.87v-1.1h2.28V31h-1.87v-1.15h1.87v-1.06h-2.15v-1.18h5.56v1.18H205v1.06h1.92V31h-.63a8.61 8.61 0 0 1 .85 1l-.59.33Zm-2.35 0h1.14a9.81 9.81 0 0 0-.77-1L206 31h-1ZM215.5 27.4a19.49 19.49 0 0 1-1.17 2.5h6v5.94h-1.45v-.63h-4.53v.67h-1.37v-4a8.22 8.22 0 0 1-1.53 1.42 7.19 7.19 0 0 0-.95-1 10.06 10.06 0 0 0 3.48-4.83h-3v-1.39h9.94v1.32Zm3.34 3.79h-4.53v2.71h4.53ZM224.44 30.8a23 23 0 0 0-2.19-1.26l.74-1a19.52 19.52 0 0 1 2.2 1.13Zm-1.78 4a29.81 29.81 0 0 0 1.8-3.19l1 .86c-.49 1.06-1.09 2.2-1.65 3.2Zm2.42-7.08a21.74 21.74 0 0 0-2.19-1.33l.74-1a16.17 16.17 0 0 1 2.24 1.2Zm7.33-.11v8.09h-1.33v-.59h-4v.67h-1.27v-8.13h2.57v-2.29h1.32v2.29Zm-5.28 1.29v1.78h1.3v-1.74Zm0 4.92h1.3V32h-1.3Zm2.62-4.92v1.78h1.33v-1.74Zm1.33 4.92V32h-1.33v1.85ZM242.36 34.34c.49 0 .57-.45.66-2.32a3.83 3.83 0 0 0 1.33.65c-.15 2.2-.5 3-1.85 3h-1.65c-1.4 0-1.79-.5-1.79-2.13V32.4a12.66 12.66 0 0 1-1.29.7 5.44 5.44 0 0 0-.89-.93v3.71h-1.42v-5.94c-.28.34-.57.65-.85.93a12 12 0 0 0-.86-1.37 11.46 11.46 0 0 0 2.86-4.24l1.37.46a17.7 17.7 0 0 1-1.1 2.17V32a13.22 13.22 0 0 0 2.18-1.29v-5.23h1.46v4.09a14.27 14.27 0 0 0 2.41-2.79l1.29.88a18 18 0 0 1-3.7 3.75v2.18c0 .65.07.75.52.75ZM255.77 33.74v1.36h-10.29v-1.36h4.32v-5.85h-3.71v-1.4h9v1.4h-3.8v5.85ZM11.08 53.38a13.06 13.06 0 0 0 3.48 1.29 5 5 0 0 0-.83 1.08 13 13 0 0 1-3.89-1.86v2H8.51V54a13.4 13.4 0 0 1-3.91 1.81 7.08 7.08 0 0 0-.87-1.11 14.09 14.09 0 0 0 3.62-1.32H4.1v-1.07h4.41v-.58h1.33v.58h4.44v1.07ZM5.36 48.7l-.61.52a4 4 0 0 0-1-.89 9 9 0 0 0 2.68-3l1.37.26c-.17.28-.35.56-.54.85h1.88a7.77 7.77 0 0 0-.35-.82l1.21-.37a7.12 7.12 0 0 1 .54 1.16h3.19v1h-3.46v.47h3v.88h-3v.45h3v.87h-3v.5H14v1H6.7v.3H5.36ZM9 47.44H6.7v.47H9Zm0 1.35H6.7v.45H9Zm0 1.32H6.7v.5H9ZM25.56 45.74V55.9H24.1v-.4h-6.78v.4h-1.39V45.74Zm-1.46 8.55V47h-6.78v7.32Zm-.41-4.56h-1.35v2.87c0 .61-.09.92-.49 1.12a3.29 3.29 0 0 1-1.57.23 5 5 0 0 0-.44-1.2h1c.13 0 .2 0 .2-.17v-1.52a12 12 0 0 1-2.7 2 5 5 0 0 0-.84-.91 10.43 10.43 0 0 0 3-2.43h-2.69v-1.18h3.24v-1.23h1.29v1.23h1.35ZM31.28 47.94a8.25 8.25 0 0 1-.45.89h5.24v5.59c0 .67-.12 1-.58 1.24a5.15 5.15 0 0 1-2 .22 5.76 5.76 0 0 0-.41-1.3h1.43c.19 0 .26-.07.26-.23v-.68h-4.1v2.16h-1.33V51a8.16 8.16 0 0 1-1.5 1.32 7.74 7.74 0 0 0-.88-1 8.78 8.78 0 0 0 2.82-3.3H27.3v-1.35h3a11.51 11.51 0 0 0 .45-1.37l1.39.32q-.16.52-.36 1.05h5.52v1.27ZM34.76 50h-4.09v.72h4.09Zm0 2.58v-.74h-4.09v.74ZM42.85 46.2c-.3 1-.67 2.1-1 3a3.72 3.72 0 0 1 .81 2.36 1.74 1.74 0 0 1-.48 1.44 1.49 1.49 0 0 1-.63.25 4.42 4.42 0 0 1-.74 0 2.68 2.68 0 0 0-.29-1.15 4.1 4.1 0 0 0 .48 0 .52.52 0 0 0 .31-.09.85.85 0 0 0 .2-.67 3.15 3.15 0 0 0-.79-2.07c.22-.69.46-1.61.65-2.36h-1.1v8.91h-1.18V45.75h2.69l.19-.06ZM49 52a19.25 19.25 0 0 1-1.58 1.15 4.66 4.66 0 0 0 1.83 1.51 5 5 0 0 0-.89 1.17c-1.69-.93-2.6-2.67-3.13-4.89h-.73v3.18l1.58-.35a7.74 7.74 0 0 0 .05 1.23 12.3 12.3 0 0 0-2.9.91 4.08 4.08 0 0 0-.57-1.05 1.14 1.14 0 0 0 .52-1v-8.1h5.12V51h-2a7.44 7.44 0 0 0 .45 1.23 11.41 11.41 0 0 0 1.29-1.12Zm-4.45-5.1v.88H47v-.88Zm0 2.87H47v-.9h-2.5ZM54.59 46a13.6 13.6 0 0 1-3.12 4.7 13.21 13.21 0 0 0-1.27-1 9.65 9.65 0 0 0 2.92-4.15Zm3.18 5.27a33.32 33.32 0 0 1 2.55 3.91l-1.32.7a13.8 13.8 0 0 0-.71-1.29c-5.48.47-6.24.51-6.8.72a11.15 11.15 0 0 0-.49-1.42c.37-.1.64-.38 1.06-.89a19.16 19.16 0 0 0 2.69-4.34l1.5.65a24.24 24.24 0 0 1-2.93 4.3l4.22-.28-1-1.49Zm-.21-5.77a14.6 14.6 0 0 0 3.16 4 6.22 6.22 0 0 0-1.13 1.16A21.16 21.16 0 0 1 56.23 46ZM71.51 54.17c0 .77-.13 1.18-.62 1.42a5.11 5.11 0 0 1-2.19.26 5.45 5.45 0 0 0-.45-1.46 15 15 0 0 0 1.6 0c.2 0 .28 0 .28-.25v-6.87h-7.9V46h9.28ZM69 49.25h-6.66v-1.18H69Zm-4.76 4.66v.82h-1.32v-4.64h5.49v3.82Zm0-2.67v1.52h2.85v-1.52ZM75.74 55.68a22.17 22.17 0 0 0-2.43-2.5l1.18-1A20.5 20.5 0 0 1 77 54.64ZM95.18 54v1.36H84.94V54h4v-8.55h1.45v3.25h4v1.35h-4V54ZM98.23 50.86a9.07 9.07 0 0 0-1.84-1.25l.73-.91A8.84 8.84 0 0 1 99 49.84ZM96.69 55a33.67 33.67 0 0 0 1.57-3.64l1 .75c-.42 1.2-.93 2.51-1.43 3.62ZM99 47.68a10.52 10.52 0 0 0-2-1.28l.74-.91a11.83 11.83 0 0 1 2 1.17Zm7.1 4.16c0 .46-.07.85-.1 1.2h.69v1.15h-.84a2.52 2.52 0 0 1-.34 1.05 1.24 1.24 0 0 1-.91.51 6.5 6.5 0 0 1-1.42 0 2.72 2.72 0 0 0-.35-1.1 11.54 11.54 0 0 0 1.17 0 .49.49 0 0 0 .42-.18 1.12 1.12 0 0 0 .14-.35h-4.7c.12-.65.26-1.48.38-2.35h-1v-1.15h1.17c.08-.61.15-1.22.2-1.8-.13.2-.28.4-.41.58a9.57 9.57 0 0 0-1.2-.74 8.9 8.9 0 0 0 1.81-3.35l1.3.33c-.09.26-.19.54-.3.81h4.81v1.2h-5.37c-.13.26-.26.51-.4.75h5.35v.57c0 .6-.06 1.14-.08 1.65h.8v1.22Zm-4.58 0c-.06.42-.12.82-.17 1.2H103a11.06 11.06 0 0 0-1-.93l.43-.27Zm.29-2.3c0 .37-.09.72-.13 1.08h1.52a8 8 0 0 0-.82-.83l.38-.25Zm3 3.5c0-.34.07-.72.11-1.2H103a7.75 7.75 0 0 1 1 .95l-.36.25Zm-1.45-3.5a11.57 11.57 0 0 1 .86.86l-.32.22h1.09v-1.08ZM109.79 50.65a21.66 21.66 0 0 0-2-1.12l.72-1a17.75 17.75 0 0 1 2 1Zm-1.58 4.15a32.67 32.67 0 0 0 2-3.49l1 .87c-.53 1.16-1.19 2.41-1.8 3.49Zm2.19-7.12a13.94 13.94 0 0 0-1.9-1.2l.75-1a13.82 13.82 0 0 1 1.93 1.08Zm2.09.58a8.88 8.88 0 0 1-.77 1 8.61 8.61 0 0 0-1.08-.83 7.71 7.71 0 0 0 1.94-3.1l1.29.35c-.12.27-.23.55-.37.84h5v1.15h-5.56c-.12.21-.25.4-.38.59h4.91v1.09h-4.93Zm4.74 1.74c0 2.75 0 4.69.38 4.69.14 0 .19-.61.2-1.45a5.79 5.79 0 0 0 .79.84c-.09 1.28-.31 1.87-1.09 1.88-1.36 0-1.54-1.88-1.58-4.79h-4.54v-1.23h5.84ZM129.84 53.94h-3.74v1.94h-1.45v-1.94h-5v-1.32h5v-1.24h-2.4a3.3 3.3 0 0 0-1.3.17 12.4 12.4 0 0 0-.49-1.38c.3-.09.52-.38.85-.86a8.2 8.2 0 0 0 .63-1.11h-2.07v-1.31h2.7a14.87 14.87 0 0 0 .64-1.68l1.59.39c-.18.45-.38.86-.58 1.29h5.39v1.31h-6.07a22.22 22.22 0 0 1-1.18 1.9h2.29v-1.47h1.45v1.47h2.77v1.28h-2.77v1.24h3.74ZM141.46 53.74v1.36h-10.3v-1.36h4.32v-5.85h-3.7v-1.4h9v1.4H137v5.85ZM152.91 54v1.34h-10.12V54h2.92v-8.54h1.39V54h1.48v-8.54H150v6.24a24.14 24.14 0 0 0 1.61-4l1.22.58a32 32 0 0 1-1.8 4.11l-1-.52V54Zm-8.63-1.68a40.37 40.37 0 0 0-1.36-4.29l1.24-.36c.53 1.32 1.18 3.1 1.47 4.18ZM160.16 50.6a7.47 7.47 0 0 1 2.23-5.44l1.08.48a7.07 7.07 0 0 0 0 9.92l-1.08.47a7.47 7.47 0 0 1-2.23-5.43ZM171.75 53.38a13.06 13.06 0 0 0 3.48 1.29 5 5 0 0 0-.83 1.08 13 13 0 0 1-3.89-1.86v2h-1.33V54a13.52 13.52 0 0 1-3.91 1.86 7.08 7.08 0 0 0-.87-1.11 14.09 14.09 0 0 0 3.6-1.37h-3.25v-1.07h4.41v-.58h1.33v.58H175v1.07ZM166 48.7l-.61.52a4 4 0 0 0-.95-.89 9 9 0 0 0 2.68-3l1.37.26c-.17.28-.35.56-.54.85h1.83a7.77 7.77 0 0 0-.35-.82l1.21-.34a7.19 7.19 0 0 1 .55 1.16h3.18v1h-3.46v.47h2.95v.88h-2.95v.45h3v.87h-3v.5h3.73v1h-7.3v.3H166Zm3.62-1.26h-2.28v.47h2.28Zm0 1.35h-2.28v.45h2.28Zm0 1.32h-2.28v.5h2.28ZM186.23 45.74V55.9h-1.46v-.4H178v.4h-1.4V45.74Zm-1.46 8.55V47H178v7.32Zm-.41-4.56H183v2.87c0 .61-.09.92-.49 1.12A3.29 3.29 0 0 1 181 54a5 5 0 0 0-.44-1.2h1c.13 0 .2 0 .2-.17v-1.57a12 12 0 0 1-2.7 2 5 5 0 0 0-.84-.91 10.43 10.43 0 0 0 3-2.43h-2.71v-1.18h3.24v-1.23H183v1.23h1.35ZM191.13 50.6a7.47 7.47 0 0 1-2.23 5.4l-1.08-.47a7.07 7.07 0 0 0 0-9.92l1.08-.48a7.47 7.47 0 0 1 2.23 5.47ZM202.15 47.94c-.14.3-.28.6-.45.89h5.24v5.59c0 .67-.13 1-.59 1.24a5.1 5.1 0 0 1-2 .22 5.76 5.76 0 0 0-.41-1.3h1.43c.2 0 .26-.07.26-.23v-.68h-4.09v2.16h-1.34V51a8.1 8.1 0 0 1-1.49 1.32 7.74 7.74 0 0 0-.88-1 8.67 8.67 0 0 0 2.81-3.3h-2.48v-1.35h3.05a11.41 11.41 0 0 0 .44-1.37l1.39.32c-.11.35-.22.7-.36 1.05h5.53v1.27Zm3.48 2.06h-4.09v.72h4.09Zm0 2.58v-.74h-4.09v.74ZM213.72 46.2c-.3 1-.67 2.1-1 3a3.68 3.68 0 0 1 .82 2.36 1.74 1.74 0 0 1-.51 1.48 1.53 1.53 0 0 1-.64.25 4.26 4.26 0 0 1-.73 0 2.7 2.7 0 0 0-.3-1.15 4.3 4.3 0 0 0 .49 0 .54.54 0 0 0 .31-.09.89.89 0 0 0 .2-.67 3.2 3.2 0 0 0-.79-2.07c.21-.69.46-1.61.64-2.36h-1.1v8.91H210V45.75h2.69l.18-.06Zm6.1 5.82c-.49.39-1.08.82-1.59 1.15a4.76 4.76 0 0 0 1.84 1.51 4.74 4.74 0 0 0-.9 1.17c-1.68-.93-2.59-2.67-3.12-4.89h-.68v3.18l1.57-.35A7.66 7.66 0 0 0 217 55a11.86 11.86 0 0 0-2.9.91 3.82 3.82 0 0 0-.58-1.05 1.12 1.12 0 0 0 .52-1v-8.1h5.12V51h-2a7.46 7.46 0 0 0 .46 1.23 11.41 11.41 0 0 0 1.38-1.16Zm-4.45-5.1v.88h2.49v-.88Zm0 2.87h2.49v-.9h-2.49ZM225.46 46a13.6 13.6 0 0 1-3.12 4.7 14.59 14.59 0 0 0-1.27-1 9.74 9.74 0 0 0 2.93-4.14Zm3.17 5.27a32.26 32.26 0 0 1 2.56 3.91l-1.35.72c-.17-.37-.42-.81-.7-1.29-5.48.47-6.25.51-6.8.72a11.15 11.15 0 0 0-.52-1.42c.37-.1.64-.38 1.06-.89a18.86 18.86 0 0 0 2.68-4.34l1.51.65a24.78 24.78 0 0 1-2.93 4.3l4.22-.28c-.34-.51-.69-1-1-1.49Zm-.2-5.77a14.6 14.6 0 0 0 3.16 4 6.27 6.27 0 0 0-1.14 1.16 21.49 21.49 0 0 1-3.36-4.66ZM242.38 54.17c0 .77-.13 1.18-.62 1.42a5.13 5.13 0 0 1-2.2.26 5.42 5.42 0 0 0-.44-1.46 15 15 0 0 0 1.6 0c.2 0 .28 0 .28-.25v-6.87h-7.9V46h9.28Zm-2.51-4.92h-6.66v-1.18h6.66Zm-4.77 4.66v.82h-1.31v-4.64h5.49v3.82Zm0-2.67v1.52h2.9v-1.52ZM254.5 51.3v.81h-10.18v-.81h2.61v-2.67h-2.15v-.82h2.15v-2.29h.85v2.29H251v-2.29h.86v2.29h2.24v.82h-2.24v2.67Zm-6.16 1.81a12.8 12.8 0 0 1-3.21 2.67 7.9 7.9 0 0 0-.67-.6 9.64 9.64 0 0 0 3-2.41Zm-.56-1.81H251v-2.67h-3.21Zm3.31 1.46a34.62 34.62 0 0 1 3.16 2.49l-.79.52a34.08 34.08 0 0 0-3.09-2.58ZM18.41 74.71c0 .52-.12.77-.46.91a6 6 0 0 1-1.9.16 2.33 2.33 0 0 0-.3-.82h1.56c.19 0 .27-.08.27-.26v-7.88H9.94v9h-.81V66h9.28Zm-1.78-6h-5.7V68h5.7Zm-4.36 4.75v.82h-.78v-4.37H16v3.57Zm0-2.86v2.14h3v-2.12ZM29.75 71.05v4.7h-.91v-.65h-8v-4h.91v3.23h3v-3.99h-3.38v-3.88h.87v3.05h2.59v-4.08h.91v4.08h2.66v-3.06h.91v3.89h-3.57v3.94h3.1v-3.23ZM35.19 69l-3.15 1-.24-.78c.82-.23 2-.62 3.26-1Zm2.19 2.77c-.37 2.25-1.41 3.46-5.2 4a2.61 2.61 0 0 0-.38-.69c3.58-.44 4.43-1.43 4.77-3.3Zm-2.83-4.16a11.16 11.16 0 0 0-2.35-1.22l.42-.59A10.26 10.26 0 0 1 35 67Zm5.15 6.12v-2.26h-5.58v2.37h-.82V70.7h7.25v3.06Zm-.84-6.63c-.06.21-.13.39-.2.58a5.21 5.21 0 0 0 3.25 2 2.93 2.93 0 0 0-.51.65 5.78 5.78 0 0 1-3.07-2 4.71 4.71 0 0 1-3 2.11 2.39 2.39 0 0 0-.46-.61 3.84 3.84 0 0 0 3.13-2.7h-1.33a6.19 6.19 0 0 1-1.18 1.29 1.94 1.94 0 0 0-.59-.52 5.52 5.52 0 0 0 1.78-2.43l.81.11a7.77 7.77 0 0 1-.41.88h3.96l.61.17a17.28 17.28 0 0 1-.9 1.74l-.75-.24c.17-.26.34-.64.52-1Zm-1.35 6.29A32.92 32.92 0 0 1 41.75 75l-.49.69A32.32 32.32 0 0 0 37 74ZM46.93 72.92a4 4 0 0 0 .31.69 22.81 22.81 0 0 0-2.48 1.92 3.09 3.09 0 0 0-.45-.7 1.27 1.27 0 0 0 .56-1v-4h-1.58V69h2.4v4.84Zm-1-5a14.71 14.71 0 0 0-1.72-1.76l.54-.51a15 15 0 0 1 1.75 1.67Zm3.23-.81a3.2 3.2 0 0 1-2 3.06 3.66 3.66 0 0 0-.55-.63 2.48 2.48 0 0 0 1.73-2.45v-1.26h3.58v2.63c0 .31 0 .42.21.42h.78a3 3 0 0 0 .53-.06 5.47 5.47 0 0 0 .08.72 2.13 2.13 0 0 1-.6.06H52c-.77 0-.94-.33-.94-1.17v-1.81h-2Zm3.81 3.5a7 7 0 0 1-2.17 3.3 8.48 8.48 0 0 0 2.87 1.16 3 3 0 0 0-.52.75 8.43 8.43 0 0 1-3-1.39 10 10 0 0 1-3 1.36 2.61 2.61 0 0 0-.42-.74 8.78 8.78 0 0 0 2.79-1.14 8.25 8.25 0 0 1-1.89-2.66h.16-.58v-.8h5.29Zm-4.59.59a6.56 6.56 0 0 0 1.76 2.24 6.17 6.17 0 0 0 1.77-2.24ZM65 74.45v.83H55v-.83h5.48A35.32 35.32 0 0 0 62.11 69l1 .18a52.59 52.59 0 0 1-1.72 5.27Zm-.46-6.06h-9.1v-.83h9.09ZM58.07 74A36.12 36.12 0 0 0 57 69.2l.84-.2A43.17 43.17 0 0 1 59 73.74Zm1.64-6.53a13.64 13.64 0 0 0-.54-1.84l.81-.21a13.89 13.89 0 0 1 .59 1.8ZM67.39 75.51a2 2 0 0 0 1.43-1.66h-.2a.77.77 0 0 1-.84-.81.79.79 0 0 1 .86-.81c.62 0 1 .51 1 1.3a2.7 2.7 0 0 1-2 2.57ZM83.59 74.68a11 11 0 0 0 1.33.07h3.34a2.93 2.93 0 0 0-.29.8h-3.08c-2.28 0-3.72-.36-4.63-1.89a5.71 5.71 0 0 1-1.77 2.13 5.1 5.1 0 0 0-.62-.6 5.24 5.24 0 0 0 2.19-3.68l.85.12c-.08.39-.18.77-.29 1.13a3 3 0 0 0 2.14 1.8v-3.42h-4.64v-.76h9.94v.76h-4.47v1.26h3.73v.74h-3.73Zm3.22-5.06h-7.52v-3.73h7.52ZM86 66.53h-5.88v.92H86Zm0 1.53h-5.88V69H86ZM99.75 70v1H89.5v-1ZM110.13 70c-.51.42-1.13.87-1.74 1.28a5.43 5.43 0 0 0 3 3.32 2.62 2.62 0 0 0-.54.69 6.19 6.19 0 0 1-3.13-3.59c-.17.11-.36.22-.53.31.39 1.46.1 2.86-.51 3.33a1.54 1.54 0 0 1-1.15.4h-1a1.94 1.94 0 0 0-.21-.8c.41 0 .78.06 1 .06a.9.9 0 0 0 .72-.24 2.29 2.29 0 0 0 .44-2 16.79 16.79 0 0 1-4.84 2.43 3.86 3.86 0 0 0-.44-.72 12.84 12.84 0 0 0 5.17-2.47 4.25 4.25 0 0 0-.3-.79 17.58 17.58 0 0 1-4.2 2 3.24 3.24 0 0 0-.43-.66 14 14 0 0 0 4.29-1.87 3.78 3.78 0 0 0-.54-.67 17.3 17.3 0 0 1-3.26 1.33 3.2 3.2 0 0 0-.47-.66 12.62 12.62 0 0 0 4-1.65h-2.58v-.73h6.51v.7h-2.81a7 7 0 0 1-.8.6 4.93 4.93 0 0 1 1.22 1.76 19 19 0 0 0 2.47-1.9Zm-7.81-1.26h-.81v-2.31h4.24a7.16 7.16 0 0 0-.42-.83l.86-.24a6.08 6.08 0 0 1 .56 1.07h4.18v2.32h-.85v-1.54h-7.76ZM116.18 71.33a4.29 4.29 0 0 0 0 .71 15.76 15.76 0 0 0-3.28.78 4.88 4.88 0 0 0-.25-.73c.24 0 .5-.33.84-.75a14.29 14.29 0 0 0 1.16-1.56 6.68 6.68 0 0 0-1.83.34 5.38 5.38 0 0 0-.26-.77c.19 0 .38-.3.61-.69a15.77 15.77 0 0 0 1.48-3.2l.74.35a19 19 0 0 1-1.77 3.42l1.5-.15c.24-.41.48-.83.7-1.23l.65.39a25.84 25.84 0 0 1-2.4 3.49Zm.14 2.82-3.53.92-.17-.8c.91-.17 2.26-.5 3.61-.82Zm2.12-1.54a13.23 13.23 0 0 1-1.79 2.49 5 5 0 0 0-.67-.49 10 10 0 0 0 1.69-2.25Zm1.66-1v3.2c0 .43-.08.64-.38.77a3.9 3.9 0 0 1-1.48.11A2.94 2.94 0 0 0 118 75h1.08c.15 0 .2 0 .2-.16v-3.21h-2.77v-.75h6.21v.75Zm-2.61-2.92h-.81v-1.86h2.76a10.5 10.5 0 0 0-.56-1.24l.8-.2a9.39 9.39 0 0 1 .69 1.44h2.3v1.88h-.83v-1.15h-4.35Zm.14.86v-.74h4.08v.74Zm3.93 2.78a15.17 15.17 0 0 1 1.44 2.33l-.76.36a15.65 15.65 0 0 0-1.38-2.36ZM130.21 65.76c-.12.18-.24.34-.37.51a13.31 13.31 0 0 0 4.7 3.09 2.74 2.74 0 0 0-.58.76 17.88 17.88 0 0 1-1.83-1v.77h-5.67v-.57a16.89 16.89 0 0 1-1.73.91 3.49 3.49 0 0 0-.62-.73 11.77 11.77 0 0 0 5.36-4.09Zm-4.34 5.48h7v4.46H132v-.59h-5.25v.64h-.85Zm.85.75v2.34H132V72Zm5.39-2.89a12.82 12.82 0 0 1-2.75-2.23 12.41 12.41 0 0 1-2.6 2.23ZM135.53 70.46a11.3 11.3 0 0 0 .59-2.9l.64.09a13.09 13.09 0 0 1-.57 3Zm1.63-5h.84v10.3h-.84Zm1.51 1.81a10.36 10.36 0 0 1 .82 1.9l-.63.3a10.47 10.47 0 0 0-.78-1.92Zm7.21 7.34v.8H139v-.8h3.24v-2.87h-2.4V71h2.4v-2.38h-1.65a8.65 8.65 0 0 1-.79 1.75 7.51 7.51 0 0 0-.8-.37 11 11 0 0 0 1.37-4l.81.14c-.11.59-.24 1.18-.4 1.73h1.41v-2.4h.84v2.34h2.56v.81h-2.56V71h2.31v.78h-2.31v2.83ZM152.8 69.58v1.54h3.95v.77h-3.95v2.76h4.46v.78h-9.72v-.78h4.39v-2.76h-3.88v-.77h3.88v-1.54h-2.44V69a13.84 13.84 0 0 1-1.8.82 3.27 3.27 0 0 0-.57-.77 10 10 0 0 0 5.26-3.69l.77.36c-.08.13-.18.28-.28.41a12.26 12.26 0 0 0 4.84 2.87 2.79 2.79 0 0 0-.59.74 14.34 14.34 0 0 1-1.83-.87v.7Zm-3.11 2.56a9.9 9.9 0 0 1 1.09 2l-.74.31a9.21 9.21 0 0 0-1-2Zm5.47-3.34a13 13 0 0 1-2.75-2.13 12 12 0 0 1-2.65 2.13Zm-1.33 5.42a12.52 12.52 0 0 0 1.17-2.08l.79.3a17.79 17.79 0 0 1-1.33 2ZM158.93 65.92h5.31v.74h-5.31Zm5.14 8.91c0 .36-.06.56-.31.68a3.64 3.64 0 0 1-1.21.11 2.77 2.77 0 0 0-.22-.65h.89c.12 0 .15 0 .15-.16v-3.93h-3.6v4.86h-.68v-5.52h5Zm-.37-5.24h-4.22V67.3h4.22Zm-1.79 3.67v2.19h-.64v-2.19h-1.17v-.58h1.54a10.64 10.64 0 0 0 .76-1.61l.56.23c-.23.45-.49 1-.74 1.38h.78v.58Zm1-5.35h-2.73V69h2.73Zm-2.19 3.21a6.34 6.34 0 0 1 .65 1.31l-.51.19a6.29 6.29 0 0 0-.63-1.33Zm7.77 4.65a7 7 0 0 0-.19-.93c-1.31.25-2.67.48-3.69.68l-.2-.78c.52-.07 1.16-.17 1.86-.29v-2.53h-1.67v-4.26h1.67v-2.15h.75v2.15h1.64v4.26h-1.64v2.42l1.09-.19c-.15-.48-.33-1-.51-1.44l.61-.15a14.25 14.25 0 0 1 .94 3Zm-3.26-4.58h1.1v-2.8h-1.1Zm2.78-2.8h-1v2.8h1ZM173.78 65.69a17.18 17.18 0 0 1-1.15 2.36v7.69h-.81v-6.46a11.19 11.19 0 0 1-1.21 1.45 7.65 7.65 0 0 0-.47-.81 12.82 12.82 0 0 0 2.86-4.46Zm4.15 6a8.8 8.8 0 0 0 3 2.92 3.92 3.92 0 0 0-.6.67 10.23 10.23 0 0 1-2.86-3.07v3.54h-.84v-3.49a9.32 9.32 0 0 1-3 3 4.15 4.15 0 0 0-.59-.66 8.31 8.31 0 0 0 3.12-2.9h-2.79v-.77h3.28v-1.4h-2.44V66H180v3.57h-2.55v1.41h3.17v.77Zm-3-2.92h4.2v-2.06H175ZM185.56 66.17c-.33.93-.75 2-1.12 2.93a3.56 3.56 0 0 1 1 2.45 1.59 1.59 0 0 1-.44 1.32 1.39 1.39 0 0 1-.59.22 6.2 6.2 0 0 1-.75 0 1.93 1.93 0 0 0-.21-.75 4.84 4.84 0 0 0 .65 0 .51.51 0 0 0 .34-.1 1 1 0 0 0 .24-.78 3.36 3.36 0 0 0-1-2.29c.32-.81.66-1.79.9-2.54h-1.43v9.09h-.75v-9.83h2.62Zm1.28 2.83c-.37.33-.75.64-1.13.92a3.27 3.27 0 0 0-.51-.68 9.49 9.49 0 0 0 3.42-3.88l.73.26a3.73 3.73 0 0 1-.2.4 12 12 0 0 0 3.3 3.06 3 3 0 0 0-.45.74 14.28 14.28 0 0 1-3.24-3.12 12 12 0 0 1-1.87 2.24h3.76v.73h-3.81Zm5 1.7a35.86 35.86 0 0 1-1.74 3.8h2.1v.75h-6.6v-.75h3.78a23.82 23.82 0 0 0 1.71-4Zm-5 0a14.63 14.63 0 0 1 .76 2.7l-.7.19a13 13 0 0 0-.72-2.72Zm1.94 2.56a21.34 21.34 0 0 0-.46-2.71l.67-.09a19.65 19.65 0 0 1 .48 2.69ZM199.78 73a12 12 0 0 0 4.07 1.84 3.54 3.54 0 0 0-.53.68 13 13 0 0 1-4.32-2.19v2.43h-.83v-2.42a13.31 13.31 0 0 1-4.29 2.31 2.69 2.69 0 0 0-.56-.69 12.48 12.48 0 0 0 4.1-1.92h-3.83v-.69h4.58v-.76h.83v.76h4.64V73Zm-4.85-4.81a10.83 10.83 0 0 1-1 .92 2.85 2.85 0 0 0-.6-.55 9.35 9.35 0 0 0 2.67-3.15l.86.16a11.07 11.07 0 0 1-.64 1.06h2.57c-.15-.32-.34-.71-.52-1l.74-.23a6.18 6.18 0 0 1 .65 1.24H203v.68h-3.64v.76h3.18v.6h-3.18v.75h3.22V70h-3.22v.78h4v.68h-7.56v.34h-.83Zm3.57-.92h-2.74v.76h2.74Zm0 1.36h-2.74v.75h2.74Zm0 1.35h-2.74v.78h2.74ZM214.83 65.92v9.85H214v-.46h-7.6v.46h-.85v-9.85Zm-.83 8.62V66.7h-7.6v7.84Zm-.66-5.18h-1.74v3.58c0 .44-.09.66-.4.78a3.73 3.73 0 0 1-1.47.16 3.14 3.14 0 0 0-.27-.76h1.13c.14 0 .19 0 .19-.18v-2.63a12.79 12.79 0 0 1-3.31 2.69 2.83 2.83 0 0 0-.54-.56 11.43 11.43 0 0 0 3.53-3h-3.36v-.84h3.63v-1.42h.82v1.42h1.74ZM220 73.86a1.73 1.73 0 1 1-1.73-1.72 1.72 1.72 0 0 1 1.73 1.72Zm-.57 0a1.15 1.15 0 1 0-1.18 1.14 1.15 1.15 0 0 0 1.16-1.14ZM237.78 69.82a14.18 14.18 0 0 1-1.68 3.63c.32.88.71 1.38 1.19 1.38.28 0 .41-.51.46-1.81a2.33 2.33 0 0 0 .67.42c-.15 1.7-.41 2.21-1.21 2.21s-1.27-.52-1.67-1.44a8.85 8.85 0 0 1-1.68 1.56 3 3 0 0 0-.59-.58l.36-.26h-3.71v.6h-.74v-4a5.78 5.78 0 0 1-.52.57 5.79 5.79 0 0 0-.59-.47 7.15 7.15 0 0 0 1.79-2.63l.72.2c-.14.31-.31.64-.47 1h1.58a6.55 6.55 0 0 0-.51-.9l.62-.25a5 5 0 0 1 .67 1.15h1.43v.65h-1.67v.73h1.47v.57h-1.47v.78h1.47v.56h-1.47v.77h1.65v.49a8 8 0 0 0 1.33-1.39 21 21 0 0 1-.73-4.44h-6.25v-.73h2.58v-1h-2.09v-.71h2.09v-1h.82v1h2v.71h-2v1h2.81c-.05-.87-.07-1.78-.08-2.72h.82c0 1 0 1.88.06 2.72h3.08v.73h-3a22.49 22.49 0 0 0 .51 3.54 12.64 12.64 0 0 0 1.2-2.85Zm-6.25 1h-1.61v.73h1.61Zm0 1.3h-1.61v.78h1.61Zm-1.61 2.11h1.61v-.77h-1.61Zm7.49-6.51a8.2 8.2 0 0 0-1.64-1.65l.59-.42a8.88 8.88 0 0 1 1.67 1.6ZM249.86 74.54v.79h-10v-.79h4.56v-2.09h-3.62v-.78h3.58V70.2h.85v1.47h3.68v.78h-3.68v2.09Zm-1.15-4.07a7.08 7.08 0 0 0-.73-.81c-6.1.29-6.71.31-7.13.46a7.33 7.33 0 0 0-.27-.84 1.71 1.71 0 0 0 .78-.52 12.82 12.82 0 0 0 1.7-1.91h-3v-.79h9.43v.79h-5.34a17.91 17.91 0 0 1-2.11 2.33l5.23-.21c-.46-.42-.95-.84-1.4-1.19l.67-.43a18.17 18.17 0 0 1 2.88 2.65ZM17.36 94.29c2.6-2.28 3.8-3.93 3.8-5.36a1.46 1.46 0 0 0-1.53-1.64 2.32 2.32 0 0 0-1.72 1l-.6-.59a3.19 3.19 0 0 1 2.45-1.22 2.28 2.28 0 0 1 2.41 2.46c0 1.65-1.31 3.34-3.25 5.18.43 0 .94-.07 1.36-.07h2.29v.89h-5.21ZM23.92 90.72c0-2.89 1-4.28 2.6-4.28s2.58 1.41 2.58 4.28-1 4.33-2.58 4.33-2.6-1.44-2.6-4.33Zm4.17 0c0-2.42-.63-3.44-1.57-3.44s-1.59 1-1.59 3.44.64 3.5 1.59 3.5 1.57-1.05 1.57-3.5ZM30.38 94.29c2.6-2.28 3.8-3.93 3.8-5.36a1.45 1.45 0 0 0-1.52-1.64 2.32 2.32 0 0 0-1.72 1l-.6-.59a3.17 3.17 0 0 1 2.44-1.22 2.28 2.28 0 0 1 2.41 2.46c0 1.65-1.3 3.34-3.25 5.18.43 0 .94-.07 1.36-.07h2.3v.89h-5.22ZM37.39 94h1.85v-6.15h-1.47v-.66a5.47 5.47 0 0 0 1.72-.59h.79V94h1.66v.86h-4.55ZM56.5 93.18h-4.1v2.59h-.85v-2.59h-5.23v-.82h1.85v-3h3.38v-1.75H48.8a10.59 10.59 0 0 1-1.72 2.23 4.57 4.57 0 0 0-.73-.53 9.51 9.51 0 0 0 2.55-3.91l.85.2c-.16.4-.34.81-.52 1.19H56v.82h-3.6v1.72h3.31v.79H52.4v2.24h4.1Zm-5-.82v-2.24H49v2.24ZM59.51 87.34v2.46a13.16 13.16 0 0 1-1.12 6 3.68 3.68 0 0 0-.7-.49 11.73 11.73 0 0 0 1-5.53v-3.21h4.5a6.17 6.17 0 0 0-.49-.92l.77-.26a5.29 5.29 0 0 1 .65 1.18H68v.77Zm5.65 4.32c.43 1.91 1.17 3.19 1.87 3.18.25 0 .35-.47.41-1.59a2 2 0 0 0 .67.37c-.13 1.59-.42 2-1.14 2-1.2 0-2.14-1.64-2.62-4h-2.83v2.76l1.71-.53a3.83 3.83 0 0 0 0 .69 12.77 12.77 0 0 0-2.7 1.07 2.79 2.79 0 0 0-.29-.71.63.63 0 0 0 .46-.63v-5.8a40.21 40.21 0 0 0 5.87-.58l.64.65c-.69.14-1.53.26-2.42.36a13.89 13.89 0 0 0 .22 2h2.66v.75Zm-1-.75A16.29 16.29 0 0 1 64 89c-.83.07-1.68.12-2.48.16v1.77Zm-.47 1.94a21.16 21.16 0 0 1 1.15 2.4l-.68.31a20.66 20.66 0 0 0-1.1-2.47ZM70.37 95.51a2 2 0 0 0 1.43-1.66h-.19a.78.78 0 0 1-.85-.81.79.79 0 0 1 .86-.81c.62 0 1 .51 1 1.3a2.7 2.7 0 0 1-2 2.57ZM87.23 93a12 12 0 0 0 4.07 1.84 3.54 3.54 0 0 0-.53.68 13 13 0 0 1-4.32-2.23v2.43h-.83v-2.38a13.31 13.31 0 0 1-4.29 2.31 2.69 2.69 0 0 0-.56-.69 12.48 12.48 0 0 0 4.1-1.96H81v-.69h4.58v-.76h.83v.76h4.64V93Zm-4.85-4.81a10.83 10.83 0 0 1-1 .92 2.85 2.85 0 0 0-.6-.55 9.35 9.35 0 0 0 2.62-3.19l.86.16a11.07 11.07 0 0 1-.64 1.06h2.57c-.15-.32-.34-.71-.52-1l.74-.23a6.74 6.74 0 0 1 .65 1.24h3.34v.68h-3.64v.76h3.18v.6h-3.18v.75H90V90h-3.24v.78h4v.68h-7.55v.34h-.83Zm3.62-.88h-2.79v.76H86Zm0 1.36h-2.79v.75H86ZM86 90h-2.79v.78H86ZM102.28 85.92v9.85h-.89v-.46H93.8v.46H93v-9.85Zm-.89 8.62V86.7H93.8v7.84Zm-.65-5.18H99v3.58c0 .44-.09.66-.39.78a3.73 3.73 0 0 1-1.47.16 2.8 2.8 0 0 0-.28-.76H98c.14 0 .19 0 .19-.18v-2.63A12.79 12.79 0 0 1 94.92 93a2.83 2.83 0 0 0-.54-.56 11.43 11.43 0 0 0 3.53-3h-3.36v-.84h3.63v-1.42H99v1.42h1.75ZM107.51 93c-1.13.47-2.35.94-3.3 1.31l-.27-.85 1.41-.49V89h-1.24v-.8h1.24v-2.64h.82v2.61h1.09V89h-1.09v3.67l1.19-.45Zm5.43 2a1.07 1.07 0 0 0 .38 0 .32.32 0 0 0 .21-.24v-1a1.85 1.85 0 0 0 .68.36 4.93 4.93 0 0 1-.14 1.1.63.63 0 0 1-.41.35 2.53 2.53 0 0 1-.7.09h-.75a1.36 1.36 0 0 1-.77-.19c-.21-.14-.29-.32-.29-.92v-1.72h-1c-.19 1.63-.76 2.49-2.82 3a2.72 2.72 0 0 0-.44-.66c1.83-.37 2.32-1 2.46-2.32h-1.17v-3.23h5.14v3.21H112v1.75c0 .17 0 .29.1.32a.61.61 0 0 0 .3.06Zm1.06-6h-6.29v-.72h1.6a6.53 6.53 0 0 0-.35-1.09l.69-.14a8.18 8.18 0 0 1 .35 1.15l-.42.11h1.88a9.57 9.57 0 0 0 .47-1.2l.78.17c-.17.36-.35.72-.49 1H114Zm-.3-2.06H108v-.71h2.45c-.09-.25-.22-.51-.32-.75l.78-.14c.14.27.28.61.39.89h2.35Zm-4.66 4h3.55v-.74H109Zm0 1.31h3.55v-.76H109ZM125.25 94.65c0 .54-.13.82-.51.95a7.43 7.43 0 0 1-2.11.15 3.14 3.14 0 0 0-.28-.85h1.8c.24 0 .27-.08.27-.28v-6.43h-3.28a7.23 7.23 0 0 1-.21 1.47 33.19 33.19 0 0 1 3.2 3.14l-.69.55a29 29 0 0 0-2.75-2.89 6.07 6.07 0 0 1-2.76 3 3 3 0 0 0-.6-.64 5.08 5.08 0 0 0 3-4.67H117v7.59h-.83v-8.38h4.1v-1.94h.84v1.94h4.1ZM132 87.11l.58.19c-.6 4.43-2.37 7.07-4.78 8.38a3.18 3.18 0 0 0-.68-.69 7.48 7.48 0 0 0 3.21-3.17 16.37 16.37 0 0 0-1.83-1.43l.51-.55a15.78 15.78 0 0 1 1.69 1.22 13.18 13.18 0 0 0 .88-3.11h-2.15a10.82 10.82 0 0 1-1.61 3 4.51 4.51 0 0 0-.69-.53 11.31 11.31 0 0 0 2.15-5l.83.16c-.13.54-.25 1.07-.41 1.58h2.13Zm2.72 1.72a23.16 23.16 0 0 1 2.79 2.56l-.67.58a20.49 20.49 0 0 0-2.43-2.36v6.15h-.86V85.43h.86v3.65ZM138.7 94.76a6.38 6.38 0 0 0 1.06-2.42l.78.16a7.13 7.13 0 0 1-1.07 2.64Zm8.7-3.48h-7.1v-3.57h1.95a8.75 8.75 0 0 0-1.14-1.9l.71-.33a7.67 7.67 0 0 1 1.2 1.89l-.69.34h2.32a12.6 12.6 0 0 0 1.24-2.26l.86.35c-.36.63-.78 1.33-1.17 1.91h1.82Zm-.91-2.78h-5.3v2h5.3Zm-1 6.38c.56 0 .65-.16.72-1.15a2.51 2.51 0 0 0 .79.27c-.13 1.28-.4 1.6-1.44 1.6h-2.52c-1.34 0-1.67-.24-1.67-1.16v-2.28h.86v2.32c0 .34.14.4.85.4Zm-2.07-3.5a10.24 10.24 0 0 1 2 1.78l-.61.54a9.63 9.63 0 0 0-2-1.85Zm3.94.71a9 9 0 0 1 1.6 2.47l-.68.42a9.69 9.69 0 0 0-1.57-2.51ZM153.7 89l-3.14 1-.24-.78c.81-.23 2-.62 3.26-1Zm2.2 2.77c-.37 2.25-1.41 3.46-5.21 4a2.32 2.32 0 0 0-.37-.69c3.58-.44 4.43-1.43 4.77-3.3Zm-2.83-4.16a11.16 11.16 0 0 0-2.35-1.22l.41-.59a10.15 10.15 0 0 1 2.38 1.2Zm5.15 6.12v-2.26h-5.58v2.37h-.83V90.7h7.26v3.06Zm-.85-6.63a4.92 4.92 0 0 1-.19.58 5.15 5.15 0 0 0 3.25 2 2.66 2.66 0 0 0-.51.65 5.71 5.71 0 0 1-3.07-2 4.71 4.71 0 0 1-3 2.11 2.14 2.14 0 0 0-.45-.61 3.81 3.81 0 0 0 3.1-2.74h-1.33a6.19 6.19 0 0 1-1.17 1.33 2.21 2.21 0 0 0-.59-.52 5.52 5.52 0 0 0 1.78-2.43l.8.11a6.35 6.35 0 0 1-.41.88h3.97l.61.17a15.37 15.37 0 0 1-.91 1.74l-.73-.21c.17-.26.34-.64.52-1ZM156 93.42a32.92 32.92 0 0 1 4.27 1.58l-.5.69a32.13 32.13 0 0 0-4.21-1.7ZM171.75 90.47h-8.17v.75a8.32 8.32 0 0 1-1.16 4.63 4.7 4.7 0 0 0-.69-.59 7 7 0 0 0 1-4.06v-1.54h5.41a11.87 11.87 0 0 0 .92-1.9l.91.29c-.31.54-.66 1.13-1 1.61h2.77Zm-.3-2.87h-8.9v-.81h4.24a5.87 5.87 0 0 0-.69-1.14l.82-.24a6.37 6.37 0 0 1 .85 1.36h-.05 3.73Zm-6.23 2a8.11 8.11 0 0 0-.95-1.63l.73-.29a8 8 0 0 1 1 1.58ZM176.65 94h1.85v-6.15H177v-.66a5.39 5.39 0 0 0 1.72-.59h.79V94h1.67v.86h-4.56ZM183 94.27a.75.75 0 1 1 1.49 0 .75.75 0 1 1-1.49 0ZM186.54 94h1.85v-6.15h-1.47v-.66a5.47 5.47 0 0 0 1.72-.59h.79V94h1.66v.86h-4.55ZM192.39 93.91l.52-.67a2.76 2.76 0 0 0 2.06 1 1.53 1.53 0 0 0 1.69-1.54c0-1-.67-1.67-2.59-1.67v-.79c1.71 0 2.3-.69 2.3-1.59a1.29 1.29 0 0 0-1.4-1.33 2.57 2.57 0 0 0-1.72.82l-.56-.65a3.33 3.33 0 0 1 2.32-1c1.4 0 2.42.75 2.42 2.09a2.07 2.07 0 0 1-1.49 2 2.14 2.14 0 0 1 1.77 2.11 2.42 2.42 0 0 1-2.66 2.37 3.43 3.43 0 0 1-2.66-1.15ZM206.07 87.1c0 .75-.06 1.53-.14 2.31h5v.41c-.21 3.64-.39 5-.83 5.46a1.24 1.24 0 0 1-1 .41 15.66 15.66 0 0 1-2 0 1.71 1.71 0 0 0-.3-.83 19.13 19.13 0 0 0 2 .09.65.65 0 0 0 .53-.15c.34-.3.54-1.55.69-4.54h-4.23c-.33 2.22-1.17 4.33-3.4 5.57a2.34 2.34 0 0 0-.61-.65c3.14-1.67 3.3-5.15 3.36-8h-3v-.82H212v.82ZM216.94 85.71a18.59 18.59 0 0 1-1.07 2.29v7.78h-.82v-6.51a11.15 11.15 0 0 1-1.22 1.51 5 5 0 0 0-.48-.84 13.06 13.06 0 0 0 2.8-4.48Zm5 8.75c.6 0 .73-.36.79-2.28a2.77 2.77 0 0 0 .77.29c-.14 2.36-.46 2.79-1.6 2.79h-2.84c-1.33 0-1.93-.51-1.93-1.32s.2-1.51 4.56-6.54h-4.34v-.8H222.74l.53.29a.75.75 0 0 1-.12.14c-4.91 5.53-5.2 6.33-5.2 6.85s.42.6 1.06.6ZM234 94.76c.46 0 .52-.29.58-2a2.66 2.66 0 0 0 .78.37c-.09 1.93-.32 2.46-1.3 2.46h-1.62c-1 0-1.28-.3-1.28-1.26v-4H229c-.21 2.42-.76 4.4-3.36 5.46a2.24 2.24 0 0 0-.53-.66c2.41-.92 2.83-2.68 3-4.8h-2.87v-.82h9.91v.82H232v4c0 .38.09.46.53.46Zm.24-7.64h-8v-.8h8ZM240 93.86a1.73 1.73 0 1 1-1.73-1.72 1.72 1.72 0 0 1 1.73 1.72Zm-.57 0a1.15 1.15 0 1 0-1.17 1.14 1.15 1.15 0 0 0 1.16-1.14Z" transform="translate(-3.64 -5.21)"/></svg>