<svg xmlns="http://www.w3.org/2000/svg" viewBox="0 0 43.46 42.21"><defs><style>.b{fill:#fff}</style></defs><ellipse cx="21.73" cy="21.1" rx="21.73" ry="21.1" style="fill:#b18c4f"/><path class="b" d="M8.47 11.16h1.28v10.29H8.47v-2.34c-.8.39-1.6.75-2.28 1.06l-.54-1.38c.71-.24 1.76-.64 2.82-1.06v-2.72H6v-1.36h2.47Zm5.36 8.85c.4 0 .47-.45.54-2.29a3.56 3.56 0 0 0 1.18.63c-.12 2.17-.43 3-1.6 3h-1.36c-1.18 0-1.53-.46-1.53-2.05v-8.13h1.28v3.43a21.71 21.71 0 0 0 2.13-1.73l.93 1.18a28.13 28.13 0 0 1-3.06 2v3.28c0 .64.05.71.44.71ZM25.41 15.17a12.11 12.11 0 0 1-1.46 4.21c.19.57.41.9.64.9s.27-.42.31-1.49a3 3 0 0 0 .91.73c-.18 1.6-.52 2-1.34 2-.54 0-1-.41-1.32-1.1a6.43 6.43 0 0 1-1.21 1 4 4 0 0 0-.81-1 5.56 5.56 0 0 0 1.52-1.38 26.59 26.59 0 0 1-.69-4.88h-5.79v-1h2.36v-.43h-1.74v-1h1.74v-.79h1.18v.79h1.75v1h-1.75v.43h2.2c0-.75-.05-1.5-.05-2.24h1.19v2.24h1.32a6.41 6.41 0 0 0-1.19-1.37l.83-.68a5.38 5.38 0 0 1 1.26 1.32l-.86.73h1.2v1h-2.5a31.65 31.65 0 0 0 .38 3.37 13.18 13.18 0 0 0 .75-2.73Zm-5.3 4.54a10.76 10.76 0 0 1 1.16 1.22l-1 .54a13.3 13.3 0 0 0-1.13-1.27l.89-.49h-2.16l1 .37a7.72 7.72 0 0 1-1.75 1.54 7 7 0 0 0-.87-.75 5.57 5.57 0 0 0 1.56-1.16h-1.48v-.84h1.38v-.41H16.6v-.78h1.11v-.39h-.94V14.6h4.7v2.66h-1v.39h1.15v.78h-1.15v.41h1.3v.84Zm-2.37-4h.85v-.43h-.85Zm0 1h.85v-.41h-.85Zm1 1h.79v-.39h-.79Zm0 1.19h.79v-.41h-.79Zm1.75-3.63h-.89v.43h.89Zm0 1h-.89v.41h.89ZM28.36 16.44a23 23 0 0 0-1.94-1.23l.67-1c.57.31 1.5.8 2 1.1Zm-1.66 4.09a30.37 30.37 0 0 0 2-3.58l.92.91c-.56 1.18-1.21 2.48-1.83 3.58Zm9.54-7.59h-.76v6.92c0 .83-.18 1.23-.67 1.46a6.91 6.91 0 0 1-2.43.23 6 6 0 0 0-.48-1.42c.82.06 1.75.05 2 .05s.34-.09.34-.34v-6.9h-4.76v-.61l-.7 1c-.42-.34-1.29-.91-1.9-1.3l.71-1a20 20 0 0 1 1.89 1.16v-.59h6.75Zm-5.21 5.4v.75h-1.11v-4.95h3.43v4.2Zm0-3v1.78h1.2v-1.78ZM12.07 28.19v.19c-.06 2.49-.11 3.26-.27 3.5a.37.37 0 0 1-.35.19h-.61a.69.69 0 0 0-.09-.34 5.2 5.2 0 0 0 .59 0c.1 0 .14 0 .19-.09a11.71 11.71 0 0 0 .23-3.14h-.94a6.21 6.21 0 0 1-1 3.61 1.21 1.21 0 0 0-.24-.21 6.12 6.12 0 0 0 .9-3.64v-1.2h-.79v-.33h2.61v.33h-1.52v1.1Zm-1-1.57a6.77 6.77 0 0 0-.4-1l.29-.1a6.61 6.61 0 0 1 .41 1Zm2 .23a5.32 5.32 0 0 1-.65 1.11 1.43 1.43 0 0 0-.26-.22 5.68 5.68 0 0 0 1.05-2.27l.32.08c-.09.34-.2.66-.31 1h2.46v.33Zm2.59 1.78a9.11 9.11 0 0 1-1.16 1 4 4 0 0 0 1.28 2.14.91.91 0 0 0-.23.28c-.94-.74-1.45-2.28-1.69-4.09l-.72.18v3.36l1.13-.59a2.4 2.4 0 0 0 .05.32 8.23 8.23 0 0 0-1.51.88 1 1 0 0 0-.18-.29.68.68 0 0 0 .2-.53v-3.37a11.27 11.27 0 0 0 2.41-.81l.29.25a8.61 8.61 0 0 1-1.4.52c.07.5.17 1 .28 1.45a8.29 8.29 0 0 0 1-.94ZM20.09 28.82v1h1.78v2.31h-.32v-.27h-3.17v.28h-.31v-2.32h1.71v-1h-2.35a7.53 7.53 0 0 1-.78 3.35.84.84 0 0 0-.28-.18 8.09 8.09 0 0 0 .75-4V25.9H22v1.7h-1.91v.95h2.32v.32Zm-.31-.32v-.9h-2.34v.95Zm-2.34-2.27v1h4.24v-1Zm4.11 3.94h-3.17v1.43h3.17ZM23.16 29.41h1.66v.36h-1.66ZM30.47 29.93a4.1 4.1 0 0 1-1.56 1.3 9 9 0 0 0 2.7.62 1.5 1.5 0 0 0-.19.33 8.19 8.19 0 0 1-2.89-.78 10.73 10.73 0 0 1-3 .77 1.15 1.15 0 0 0-.14-.32 10.84 10.84 0 0 0 2.79-.63 3.71 3.71 0 0 1-1.12-1 6.38 6.38 0 0 1-1.4.77 1.27 1.27 0 0 0-.21-.25 5 5 0 0 0 2.12-1.42h-1.25v-2.67h1.8c0-.16.1-.34.14-.5h-2.63v-.32h5.68v.32h-2.7l-.17.5h2.18v2.67h-2.63a4.48 4.48 0 0 1-.42.46h2.72Zm-3.81-2.48h3.65v-.52h-3.65Zm0 .81h3.65v-.54h-3.65Zm0 .8h3.65v-.53h-3.65Zm.7 1a3.36 3.36 0 0 0 1.2 1 3.94 3.94 0 0 0 1.39-1Z"/></svg>