<svg xmlns="http://www.w3.org/2000/svg" viewBox="0 0 42.59 41.37"><defs><style>.b{fill:#fff}</style></defs><ellipse cx="21.3" cy="20.68" rx="21.3" ry="20.68" style="fill:#b18c4f"/><path class="b" d="M21.08 18.05v1.35h-8.82v-1.35Zm-.52-7.3v1.33H12.8v-1.33Zm-.85 3.55v1.35h-6.17V14.3ZM31.58 18.26v1.27h-9.43v-1.27h2.78V11.6H22.5v-1.31h8.81v1.31h-2.57v5a22.18 22.18 0 0 0 1.23-3.84l1.19.42a32.69 32.69 0 0 1-1.34 3.88l-1.08-.41v1.63Zm-8-5.5c.47 1.24 1.05 2.86 1.31 3.86l-1.17.54c-.23-1-.76-2.69-1.2-4Zm2.67 5.5h1.17V11.6h-1.17ZM12.8 26.56v.19c-.06 2.44-.11 3.19-.26 3.43a.39.39 0 0 1-.35.19h-.59a.9.9 0 0 0-.09-.33 5 5 0 0 0 .58 0 .17.17 0 0 0 .18-.1 11.74 11.74 0 0 0 .23-3.08h-.92a6.15 6.15 0 0 1-.94 3.55 1.57 1.57 0 0 0-.24-.21 6 6 0 0 0 .89-3.57v-1.15h-.78v-.3h2.55v.33H11.6v1.08Zm-1-1.54a8.25 8.25 0 0 0-.39-1l.28-.1a6.33 6.33 0 0 1 .4 1Zm2 .23a5.38 5.38 0 0 1-.63 1.09 1.88 1.88 0 0 0-.26-.22 5.54 5.54 0 0 0 1-2.23l.32.08c-.09.33-.2.65-.31.95h2.41v.33Zm2.53 1.74a8.71 8.71 0 0 1-1.13 1 4 4 0 0 0 1.25 2.1.88.88 0 0 0-.22.28c-.92-.73-1.42-2.24-1.66-4l-.7.18v3.3l1.1-.58a1.31 1.31 0 0 0 .06.31 9.6 9.6 0 0 0-1.49.86 1.17 1.17 0 0 0-.17-.28.66.66 0 0 0 .19-.51v-3.32a11.11 11.11 0 0 0 2.37-.79l.28.25a10.51 10.51 0 0 1-1.37.51c.07.49.16 1 .27 1.42a8.8 8.8 0 0 0 1-.92ZM20.68 27.18v1h1.75v2.26h-.32v-.26h-3.1v.28h-.31v-2.28h1.67v-1h-2.3a7.29 7.29 0 0 1-.76 3.29.91.91 0 0 0-.27-.18 8 8 0 0 0 .73-3.89v-2.09h4.78v1.62h-1.87v.93h2.27v.32Zm-.31-.32v-.93h-2.28V26.86Zm-2.28-2.23v1h4.14v-1Zm4 3.87h-3.1v1.37h3.1ZM23.69 27.76h1.63v.35h-1.63ZM30.8 24.79a5.54 5.54 0 0 1-1.63 1.82 7.36 7.36 0 0 0 2.75 1.12 1.07 1.07 0 0 0-.2.32 7.44 7.44 0 0 1-2.81-1.24 9.34 9.34 0 0 1-2.79 1.29 1 1 0 0 0-.17-.32 8.65 8.65 0 0 0 2.68-1.18 5.52 5.52 0 0 1-1-1.13 7.93 7.93 0 0 1-1.15 1.08 1 1 0 0 0-.24-.25 6.46 6.46 0 0 0 2-2.41l.34.08a5.55 5.55 0 0 1-.4.69h2.42Zm-3.44 4.27a26.44 26.44 0 0 1 3.1 1.13l-.16.33a24.72 24.72 0 0 0-3.11-1.18Zm.61-4.08c-.06.09-.13.17-.19.25a4.83 4.83 0 0 0 1.12 1.19 5.54 5.54 0 0 0 1.42-1.44Zm.17 2.83c.68.24 1.6.59 2.08.83l-.15.3c-.47-.23-1.39-.61-2.08-.87Z"/></svg>