<svg xmlns="http://www.w3.org/2000/svg" viewBox="0 0 63.98 63.85"><defs><style>.b{fill:#fff}</style></defs><ellipse cx="31.99" cy="31.93" rx="31.99" ry="31.93" style="fill:#af1e24"/><path class="b" d="M7.32 40.03c-1 .41-2 .81-2.86 1.13l-.17-.5 1.31-.47v-4H4.38v-.47H5.6v-2.49h.48v2.49h1.11v.47H6.08v3.8l1.15-.43Zm6.1-3.38a11.84 11.84 0 0 1-1.51 3.55c.28 1.19.67 1.87 1.12 1.87.24 0 .35-.53.4-1.83a1.37 1.37 0 0 0 .41.25c-.09 1.54-.26 2.06-.86 2.06s-1.09-.68-1.42-1.85a7.74 7.74 0 0 1-1.95 1.88 2.12 2.12 0 0 0-.37-.36 7.39 7.39 0 0 0 2.17-2.11 29.77 29.77 0 0 1-.52-4.79H8.18v1.59h2.08v.24c0 2.45-.07 3.25-.24 3.5a.65.65 0 0 1-.52.24h-1a1 1 0 0 0-.13-.45h.95c.14 0 .22 0 .27-.1a10.76 10.76 0 0 0 .2-3H8.17v.62a7.46 7.46 0 0 1-1.29 4.72 1.11 1.11 0 0 0-.38-.33 6.69 6.69 0 0 0 1.19-4.39v-3.13h3.17v-1.71h.49v1.71h2.33v.48h-2.32a32.2 32.2 0 0 0 .41 4.22 11.66 11.66 0 0 0 1.18-3Zm-.38-1.93a8.64 8.64 0 0 0-1.39-1.19l.34-.26a7.05 7.05 0 0 1 1.4 1.15ZM16.31 37.02a20.19 20.19 0 0 1-1 4l-.49-.22a15.12 15.12 0 0 0 1-3.88Zm1.57-1v5.41c0 .48.15.59.79.59H21c.71 0 .81-.4.89-2.31a1.75 1.75 0 0 0 .48.23c-.09 2-.27 2.57-1.37 2.57h-2.34c-1 0-1.29-.22-1.29-1.09v-5.39Zm.4-2.39a20.33 20.33 0 0 1 2.8 2.4l-.35.36a21 21 0 0 0-2.79-2.45Zm4.57 3a19.11 19.11 0 0 1 1.46 4l-.5.17a18.63 18.63 0 0 0-1.42-4ZM28.82 39.36c-.26-.32-.88-1-1.31-1.47v4.76h-.49V38.1a9.87 9.87 0 0 1-1.61 1.37 4.68 4.68 0 0 0-.27-.44 9.43 9.43 0 0 0 3.23-3.58h-3v-.47h3.36l.28.19a9.3 9.3 0 0 1-1.39 2.26c.41.38 1.26 1.28 1.5 1.53Zm-1.21-4.56a6.6 6.6 0 0 0-1.05-1.39l.37-.24A6.5 6.5 0 0 1 28 34.54Zm7.17 6.91v.49h-6v-.49h2.92v-4.7h-2.4v-.49h2.4v-3.45h.51v3.45h2.37v.49h-2.39v4.7ZM45.21 41.85v.48h-8.82v-8.55h8.56v.49h-8v7.58Zm-1.84-.9a29.26 29.26 0 0 0-2.33-2.57 17.09 17.09 0 0 1-2.94 2.57 2.58 2.58 0 0 0-.42-.37 16.56 16.56 0 0 0 3-2.53c-.9-.88-1.85-1.74-2.73-2.47l.38-.3c.86.72 1.8 1.56 2.67 2.39a17.37 17.37 0 0 0 2-2.79l.47.18a18.68 18.68 0 0 1-2.12 2.95 31.05 31.05 0 0 1 2.43 2.59ZM46.1 40.97l.35-.4a2.62 2.62 0 0 0 2 .93 1.59 1.59 0 0 0 1.7-1.64c0-1-.71-1.72-2.54-1.72v-.51c1.68 0 2.27-.73 2.27-1.64a1.34 1.34 0 0 0-1.45-1.39 2.41 2.41 0 0 0-1.68.81l-.36-.42a3 3 0 0 1 2-.9 1.86 1.86 0 0 1 2.07 1.86 1.92 1.92 0 0 1-1.41 1.89 2 2 0 0 1 1.68 2A2.14 2.14 0 0 1 48.42 42a3.08 3.08 0 0 1-2.32-1.03ZM57.2 33.35a3.39 3.39 0 0 1-.27.43 12.43 12.43 0 0 0 4.56 3.65 1.38 1.38 0 0 0-.36.43 13.39 13.39 0 0 1-4.47-3.73 12.93 12.93 0 0 1-4.4 3.72 2 2 0 0 0-.38-.43 11.85 11.85 0 0 0 4.9-4.32Zm-.81 2.7h.51v6.6h-.51ZM20.17 12.81h2v14.62h-2V24.1c-1.24.55-2.48 1.07-3.53 1.5l-.84-2c1.1-.34 2.73-.9 4.37-1.5v-3.88h-3.82V16.3h3.82Zm8.32 12.56c.63 0 .73-.63.84-3.25a5.79 5.79 0 0 0 1.84.89c-.19 3.08-.67 4.25-2.48 4.25h-2.12c-1.84 0-2.37-.65-2.37-2.91V12.81h2v4.86a32.76 32.76 0 0 0 3.31-2.46l1.43 1.68a43.2 43.2 0 0 1-4.74 2.81v4.67c0 .9.08 1 .67 1ZM36.87 23.56a20.44 20.44 0 0 1-3.21 3.66 14.63 14.63 0 0 0-1.4-1.21 13.37 13.37 0 0 0 2.73-3.14Zm9.88-9.23v1.88H32.49v-1.88h6.25c-.23-.47-.49-1-.7-1.38l1.89-.59c.36.59.81 1.37 1.1 2Zm-6 7.74v3.54c0 1-.18 1.47-.92 1.74a8.57 8.57 0 0 1-2.95.29 6.84 6.84 0 0 0-.62-1.85h2.1c.26 0 .36 0 .36-.25v-3.48h-4.33v-5.05h10.67v5.05Zm-4.46-1.64h6.72v-1.75h-6.72Zm7.62 2.39a34.18 34.18 0 0 1 2.83 3.31l-1.7 1.13a27.27 27.27 0 0 0-2.73-3.46Z"/></svg>