<svg xmlns="http://www.w3.org/2000/svg" viewBox="0 0 45.91 44.59"><defs><style>.b{fill:#fff}</style></defs><ellipse cx="22.95" cy="22.29" rx="22.95" ry="22.29" style="fill:#b18c4f"/><path class="b" d="M18.67 15.73v.6h3.27v4.25h-2c1.08.41 2.24.89 3 1.24l-.93 1a28 28 0 0 0-3.15-1.45l.6-.75h-3l1 .75a14 14 0 0 1-3.42 1.5 7.69 7.69 0 0 0-.91-1 11.9 11.9 0 0 0 3.05-1.24h-1.93v-4.25h3.16v-.6h-4.24v-1.3h2.58v-.72h-1.8V12.5h1.8v-.88h1.32v.88h2.05v-.88h1.35v.88h1.81v1.26h-1.81v.72h2.56v1.3Zm-3.22 2.25h1.9v-.67h-1.9Zm0 1.62h1.9v-.7h-1.9Zm1.56-5.17h2.05v-.72h-2.05Zm1.69 2.88v.67h1.95v-.67Zm1.95 1.59H18.7v.7h1.95ZM33.45 14.11v8.68h-1.37v-.86h-7.55v-7.75h1.34v6.29h2.4v-8.79h1.38v8.79h2.43v-6.34ZM13.82 29.79a2 2 0 0 1 0 .21c-.06 2.63-.12 3.44-.28 3.7a.43.43 0 0 1-.37.2 4.73 4.73 0 0 1-.64 0 .88.88 0 0 0-.1-.35 5.75 5.75 0 0 0 .62 0c.1 0 .15 0 .2-.1a12.34 12.34 0 0 0 .25-3.32h-1a6.59 6.59 0 0 1-1 3.82 1.09 1.09 0 0 0-.26-.22 6.47 6.47 0 0 0 1-3.85v-1.27h-.84v-.35h2.75v.35h-1.7v1.18Zm-1-1.66a10.38 10.38 0 0 0-.42-1.09l.3-.11a6.83 6.83 0 0 1 .43 1.07Zm2.11.25a5.9 5.9 0 0 1-.68 1.17 2.15 2.15 0 0 0-.28-.23 6.13 6.13 0 0 0 1.11-2.4l.33.08c-.09.35-.21.7-.33 1h2.6v.35Zm2.73 1.88a10.15 10.15 0 0 1-1.22 1.08 4.21 4.21 0 0 0 1.35 2.26 1 1 0 0 0-.24.29c-1-.78-1.53-2.4-1.79-4.32-.25.07-.51.14-.76.19v3.56l1.2-.63a1.63 1.63 0 0 0 .05.34 8.06 8.06 0 0 0-1.59.93 1.23 1.23 0 0 0-.19-.31.69.69 0 0 0 .21-.55v-3.57a12 12 0 0 0 2.55-.86l.3.27a10.31 10.31 0 0 1-1.48.55q.12.79.3 1.53a10.12 10.12 0 0 0 1.05-1ZM22.29 30.44v1.08h1.88v2.44h-.34v-.28h-3.38v.3h-.33v-2.46h1.8v-1.08h-2.47a7.78 7.78 0 0 1-.83 3.54 1 1 0 0 0-.3-.19 8.57 8.57 0 0 0 .8-4.19v-2.25h5.15v1.74h-2v1h2.45v.34Zm-.34-.34v-1h-2.5v1.01Zm-2.5-2.41v1.1h4.47v-1.1Zm4.34 4.18h-3.34v1.46h3.35ZM25.53 31.06h1.76v.38h-1.76ZM30.26 31.27c-.11-.23-.43-.77-.65-1.14v3.85h-.33v-3.81a9.32 9.32 0 0 1-1.24 2.39 1.42 1.42 0 0 0-.21-.33 8.47 8.47 0 0 0 1.4-2.72h-1.24v-.35h1.29v-1.48c-.37.09-.77.16-1.14.23a1.25 1.25 0 0 0-.11-.29 12 12 0 0 0 2.28-.63l.27.28a6.49 6.49 0 0 1-1 .32v1.57h1.18v.35h-1.18v.19c.17.21.74 1.07.87 1.28Zm2.36-4.37c0 1 0 1.93-.08 2.81.25 1.89.79 3.32 1.92 3.95a1.47 1.47 0 0 0-.23.31 4.65 4.65 0 0 1-1.78-3.18 4.45 4.45 0 0 1-1.85 3.2 2.06 2.06 0 0 0-.26-.25c2-1.25 2-3.93 2-6.83Zm-2 3.73a4.45 4.45 0 0 0 .61-2l.3.06a5 5 0 0 1-.61 2.1Zm3.53-1.88a20.72 20.72 0 0 1-.85 2l-.28-.12a13.08 13.08 0 0 0 .79-2Z"/></svg>