<svg xmlns="http://www.w3.org/2000/svg" viewBox="0 0 43.14 43.05"><defs><style>.b{fill:#fff}</style></defs><ellipse cx="21.57" cy="21.53" rx="21.57" ry="21.53" style="fill:#af1e24"/><path class="b" d="M10.5 28.08c-.68.28-1.39.55-1.94.76l-.11-.33.88-.32V25.5h-.82v-.32h.82v-1.67h.33v1.67h.74v.32h-.74v2.53l.77-.29Zm4.11-2.28a7.66 7.66 0 0 1-1 2.39c.19.81.45 1.26.76 1.26s.23-.35.27-1.23a.87.87 0 0 0 .27.17c-.06 1-.17 1.39-.58 1.39s-.73-.46-.95-1.25a5.48 5.48 0 0 1-1.32 1.27 1.44 1.44 0 0 0-.25-.24 5.06 5.06 0 0 0 1.46-1.42 21.23 21.23 0 0 1-.35-3.24h-1.85v1.13h1.4a1.18 1.18 0 0 1 0 .16 7.74 7.74 0 0 1-.16 2.36.46.46 0 0 1-.35.16h-.66a.85.85 0 0 0-.09-.31 6.17 6.17 0 0 0 .64 0c.09 0 .15 0 .18-.07a7.08 7.08 0 0 0 .14-2h-1.1v.41a5 5 0 0 1-.87 3.18.92.92 0 0 0-.26-.22 4.52 4.52 0 0 0 .8-3v-2.11h2.14v-1.15h.33v1.15h1.58v.32h-1.57a19.84 19.84 0 0 0 .28 2.85 8.26 8.26 0 0 0 .79-2Zm-.26-1.3a5.22 5.22 0 0 0-.94-.8l.24-.18a5.12 5.12 0 0 1 .94.78ZM16.55 26.03a12.82 12.82 0 0 1-.69 2.69l-.33-.15a10.6 10.6 0 0 0 .7-2.61Zm1.06-.67v3.67c0 .32.1.39.54.39h1.57c.48 0 .54-.26.6-1.55a1.4 1.4 0 0 0 .33.15c-.07 1.35-.19 1.73-.93 1.73h-1.58c-.67 0-.87-.15-.87-.73V25.4Zm.27-1.61a12.92 12.92 0 0 1 1.89 1.62l-.24.24a13.31 13.31 0 0 0-1.87-1.65Zm3.08 2a12.38 12.38 0 0 1 1 2.69l-.33.11a13 13 0 0 0-1-2.68ZM24.99 27.63c-.17-.21-.59-.69-.88-1v3.21h-.33v-3.07a8 8 0 0 1-1.08.93 2.61 2.61 0 0 0-.19-.3 6.4 6.4 0 0 0 2.18-2.42h-2v-.31h2.27l.18.13a6.27 6.27 0 0 1-.93 1.52c.27.26.85.86 1 1Zm-.81-3.08a5.52 5.52 0 0 0-.71-.94l.25-.15a4.37 4.37 0 0 1 .72.92Zm4.83 4.66v.34h-4.06v-.34h2v-3.18h-1.62v-.32h1.62v-2.33h.34v2.33h1.6v.32h-1.6v3.17ZM36.07 29.31v.32h-6v-5.76h5.77v.32h-5.43v5.12Zm-1.24-.61a23 23 0 0 0-1.57-1.73 11.8 11.8 0 0 1-2 1.73 2.35 2.35 0 0 0-.28-.25 10.42 10.42 0 0 0 2-1.71c-.6-.59-1.25-1.17-1.84-1.66l.25-.2c.59.48 1.22 1 1.81 1.61a11.84 11.84 0 0 0 1.35-1.89l.31.13a12.24 12.24 0 0 1-1.43 2 22.15 22.15 0 0 1 1.65 1.74ZM17.38 11.63c0 .3-.1.56-.15.82h4v5.92c0 .63-.16.92-.6 1.11a6 6 0 0 1-1.95.18 4.36 4.36 0 0 0-.42-1.1 11.16 11.16 0 0 0 1.38 0c.19 0 .25-.05.25-.22v-4.72h-2.08l1.09.22c-.16.4-.31.79-.46 1.14h.79v1h-1.84v.71h2.08v1.05h-2.08v1.61h-1.22v-1.61h-2v-1.05h2v-.66h-1.79v-1h.84a7.48 7.48 0 0 0-.42-1.1l1-.25a5.77 5.77 0 0 1 .49 1.19l-.57.16h1.59a11.53 11.53 0 0 0 .41-1.36h-4v6h-1.31v-7.21h3.53c.05-.26.09-.52.12-.82H12v-1.21h4.19c0-.32.05-.63.06-.91l1.44.13c0 .25-.08.52-.11.78h4.05v1.21ZM31.96 14.72v5h-1.43v-.44h-5.67v.44h-1.37v-5Zm-.88-.57h-6.72V9.9h6.71Zm-6.22 1.67v.64h5.67v-.64Zm5.67 2.36v-.66h-5.67v.66Zm-.88-7.24h-3.93v.61h3.93Zm0 1.57h-3.93v.59h3.93Z"/></svg>