<svg xmlns="http://www.w3.org/2000/svg" xmlns:xlink="http://www.w3.org/1999/xlink" viewBox="0 0 120.22 107.68"><defs><style>.cls-1{opacity:0.09;}.cls-2{fill:url(#未命名的渐变_23);}.cls-3{fill:url(#未命名的渐变_23-2);}.cls-4{fill:url(#未命名的渐变_23-3);}</style><linearGradient id="未命名的渐变_23" x1="64.28" y1="-20.52" x2="17.92" y2="96.54" gradientUnits="userSpaceOnUse"><stop offset="0" stop-color="#af8f61"/><stop offset="0.19" stop-color="#af8f61" stop-opacity="0.98"/><stop offset="0.34" stop-color="#af8f61" stop-opacity="0.92"/><stop offset="0.48" stop-color="#af8f61" stop-opacity="0.83"/><stop offset="0.61" stop-color="#af8f61" stop-opacity="0.69"/><stop offset="0.74" stop-color="#af8f61" stop-opacity="0.51"/><stop offset="0.86" stop-color="#af8f61" stop-opacity="0.29"/><stop offset="0.98" stop-color="#af8f61" stop-opacity="0.04"/><stop offset="1" stop-color="#af8f61" stop-opacity="0"/></linearGradient><linearGradient id="未命名的渐变_23-2" x1="118.75" y1="1.05" x2="72.4" y2="118.11" xlink:href="#未命名的渐变_23"/><linearGradient id="未命名的渐变_23-3" x1="18.13" y1="36.78" x2="102.09" y2="36.78" xlink:href="#未命名的渐变_23"/></defs><title>资源 1</title><g id="图层_2" data-name="图层 2"><g id="图层_1-2" data-name="图层 1"><g class="cls-1"><path class="cls-2" d="M49.43,107.68A4.72,4.72,0,0,1,44.7,103V90.17A63.75,63.75,0,0,1,.16,45.08,4.73,4.73,0,0,1,9.3,42.67,54.55,54.55,0,0,0,50.41,81.84a4.73,4.73,0,0,1,3.75,4.62V103a4.72,4.72,0,0,1-4.73,4.72Z"/><path class="cls-3" d="M70.79,107.68A4.72,4.72,0,0,1,66.06,103V86.46a4.72,4.72,0,0,1,3.75-4.62,54.55,54.55,0,0,0,41.11-39.17,4.73,4.73,0,0,1,9.14,2.41A63.75,63.75,0,0,1,75.52,90.17V103a4.72,4.72,0,0,1-4.73,4.72Z"/><path class="cls-4" d="M60.11,73.55a11.73,11.73,0,0,1-6.24-1.79c-1.6-1-2.81-1.8-3.61-2.36C36.38,59.73,26.77,49.32,21.7,38.46c-3.63-7.8-3.63-13.26-3.56-14.6a24,24,0,0,1,42-15.79,24,24,0,0,1,42,15.79c.06,1.35.07,6.81-3.57,14.61-5.08,10.88-14.7,21.3-28.6,31-.79.55-2,1.33-3.56,2.32a11.67,11.67,0,0,1-6.24,1.79ZM27.58,24.38c0,.43,0,4.57,3.06,10.85s9.91,15.89,25,26.41c.68.47,1.8,1.2,3.26,2.12a2.22,2.22,0,0,0,2.38,0c1.43-.9,2.54-1.62,3.21-2.09,28.8-20,28.14-37.08,28.13-37.24s0-.28,0-.42a14.56,14.56,0,0,0-28.11-5.3,4.73,4.73,0,0,1-4.4,3h0a4.74,4.74,0,0,1-4.39-3A14.55,14.55,0,0,0,27.6,24a2.17,2.17,0,0,1,0,.37Z"/></g></g></g></svg>