<svg xmlns="http://www.w3.org/2000/svg" viewBox="0 0 43.46 42.21"><defs><style>.b{fill:#fff}</style></defs><ellipse cx="21.73" cy="21.1" rx="21.73" ry="21.1" style="fill:#b18c4f"/><path class="b" d="M14.45 17.97c-.16-.37-.41-.88-.68-1.37v5h-1.13v-4.62a9.4 9.4 0 0 1-1 2.15c-.12-.36-.38-1-.55-1.33a9.8 9.8 0 0 0 1.5-3.32h-1.26v-1.25h1.31v-2.24h1.13v2.24h.92v1.25h-.92v.34c.37.47 1.22 1.74 1.42 2Zm5.43 2.34a.19.19 0 0 0 .14 0c0-.05.06-.14.07-.37s0-.71 0-1.33a2.67 2.67 0 0 0 .89.53 12.16 12.16 0 0 1-.11 1.62 1.11 1.11 0 0 1-.35.6 1 1 0 0 1-.63.18h-.56a1 1 0 0 1-.72-.29c-.18-.23-.27-.47-.27-1.33v-3.63h-1.42v.81a5.3 5.3 0 0 1-2 4.61 5.59 5.59 0 0 0-.83-1 3.89 3.89 0 0 0 1.64-3.61v-2h3.88v4.83a1.57 1.57 0 0 0 0 .43.11.11 0 0 0 .11.06Zm.86-6.23h-5.68V12.8h2.17a14.76 14.76 0 0 0-.55-1.62l1.19-.34a14.31 14.31 0 0 1 .63 1.64l-1 .32h3.25ZM23.32 14.01a12.52 12.52 0 0 1-.79 3.33l-1.07-.47a10.69 10.69 0 0 0 .8-3.15Zm2.3-.08a13.65 13.65 0 0 1 .83 2.88l-1 .53a15.11 15.11 0 0 0-.59-2.49c0 2.34-.26 4.93-2.22 6.71a4.82 4.82 0 0 0-.9-1.06c1.71-1.55 1.9-3.79 1.9-5.76v-3.59h1.22v3.15Zm5.07-2.83v10.35h-1.23v-4.77l-.93.56a12.78 12.78 0 0 0-.84-2.52v6.1h-1.2V11.4h1.2v2.86l.76-.41a16.27 16.27 0 0 1 1 2.49V11.1ZM12.08 28.19a1.58 1.58 0 0 1 0 .19c-.06 2.49-.11 3.26-.26 3.5a.4.4 0 0 1-.36.19h-.6a1 1 0 0 0-.09-.34 5.11 5.11 0 0 0 .59 0 .18.18 0 0 0 .19-.09 12.64 12.64 0 0 0 .22-3.14h-.93a6.36 6.36 0 0 1-1 3.61 1.27 1.27 0 0 0-.25-.21 6.13 6.13 0 0 0 .91-3.64v-1.2h-.79v-.33h2.6v.33h-1.48v1.1Zm-1-1.57a9.81 9.81 0 0 0-.4-1l.28-.1a6.61 6.61 0 0 1 .41 1Zm2 .23a5.8 5.8 0 0 1-.65 1.11 2 2 0 0 0-.27-.22 5.61 5.61 0 0 0 1.05-2.27l.32.07c-.09.34-.2.67-.31 1h2.46v.33Zm2.58 1.78a9.11 9.11 0 0 1-1.16 1 4 4 0 0 0 1.28 2.13 1.09 1.09 0 0 0-.23.29c-.93-.74-1.45-2.28-1.69-4.1-.24.07-.49.14-.72.19v3.36l1.13-.59a1.52 1.52 0 0 0 .06.32 9.66 9.66 0 0 0-1.52.87 1 1 0 0 0-.17-.28.72.72 0 0 0 .19-.53v-3.37a10.81 10.81 0 0 0 2.42-.82l.29.26a10.28 10.28 0 0 1-1.41.52c.08.5.17 1 .28 1.45a9.25 9.25 0 0 0 1-.94ZM20.1 28.82v1h1.77v2.31h-.31v-.27h-3.17v.28h-.32v-2.32h1.71v-1h-2.35a7.27 7.27 0 0 1-.78 3.35.92.92 0 0 0-.28-.19 8 8 0 0 0 .75-3.95V25.9H22v1.7h-1.9v.95h2.32v.32Zm-.32-.32v-.9h-2.33v.95Zm-2.33-2.28v1h4.23v-1Zm4.11 3.95h-3.17v1.43h3.17ZM23.16 29.41h1.67v.36h-1.67ZM29.79 28.48a4.55 4.55 0 0 0 1.8 1.58 1.09 1.09 0 0 0-.24.29 5.2 5.2 0 0 1-1.12-.84v2.61h-.33v-.25h-2.75v.28h-.32V29.5a5.32 5.32 0 0 1-1.19.9.94.94 0 0 0-.23-.26 5.12 5.12 0 0 0 1.84-1.66h-1.73v-.33h1.94a6.53 6.53 0 0 0 .35-.7H26.1v-.32h1.83a4.21 4.21 0 0 0 .19-.67h-2.24v-.32h2.35a5.28 5.28 0 0 0 .1-.66h.33c0 .2-.06.42-.1.63h2.58v.32H28.5a5.61 5.61 0 0 1-.19.67h2.63v.32h-2.75a6.29 6.29 0 0 1-.32.7h3.65v.33Zm-2.15 0a5.68 5.68 0 0 1-.51.7h2.8a4.52 4.52 0 0 1-.5-.7Zm2.26 1h-2.75v.85h2.75Zm0 2.06v-.91h-2.75v.97Z"/></svg>