<svg xmlns="http://www.w3.org/2000/svg" viewBox="0 0 43.46 42.21"><defs><style>.b{fill:#fff}</style></defs><ellipse cx="21.73" cy="21.1" rx="21.73" ry="21.1" style="fill:#af1e24"/><path class="b" d="M17.97 14.84a6 6 0 0 0 4.09 3.72 4.84 4.84 0 0 0-.86 1.26 6.87 6.87 0 0 1-4.08-3.86 6.73 6.73 0 0 1-4.08 3.89 5.55 5.55 0 0 0-.81-1.17 5.81 5.81 0 0 0 3.84-3.84h-3.48v-1.39h3.74v-2.02h-3.4v-1.39h8.3v1.39H17.7v2.02h4v1.39ZM24.39 14.75c-.4-.37-1.25-1-1.83-1.44l.7-1c.55.38 1.41 1 1.85 1.33Zm1.08 1.35c-.46 1.2-1 2.48-1.56 3.57l-1.08-.85a31.27 31.27 0 0 0 1.69-3.57Zm-.5-4.18a22.85 22.85 0 0 0-1.78-1.49l.72-.94a15.54 15.54 0 0 1 1.83 1.36Zm4.33 3v.59h2.49v1.09H29.3v.67h2.87v1.12H29.3v1.55h-1.27v-1.55h-2.66v-1.12h2.66v-.67h-2.16v-1.1h2.16v-.59h-2.1v-1h2.1v-.7h-2.6v-1.14h2.6v-.65h-2.05v-1h2.05V9.33h1.27v1.09h2.36v1.68h.64v1.14h-.64v1.72Zm0-2.86h1.2v-.65h-1.2Zm0 1.84h1.2v-.7h-1.2ZM11.06 28.65c-.64.29-1.31.57-1.84.79l-.11-.35.85-.33v-2.8h-.79v-.36h.79v-1.75h.27v1.75h.71v.33h-.71v2.67l.73-.3Zm3.93-2.38a8.87 8.87 0 0 1-1 2.5c.18.84.43 1.31.72 1.31s.22-.37.26-1.28a.83.83 0 0 0 .26.17c-.06 1.09-.17 1.45-.55 1.45s-.71-.48-.91-1.3a5.66 5.66 0 0 1-1.26 1.32 1.39 1.39 0 0 0-.24-.25 4.92 4.92 0 0 0 1.39-1.48 24.89 24.89 0 0 1-.33-3.38h-1.74v1.12h1.34a1.31 1.31 0 0 1 0 .17 8.36 8.36 0 0 1-.16 2.46.39.39 0 0 1-.33.17h-.63a1.07 1.07 0 0 0-.08-.32 5.5 5.5 0 0 0 .61 0c.08 0 .14 0 .17-.07a8.08 8.08 0 0 0 .13-2.12h-1v.44a5.64 5.64 0 0 1-.83 3.32.69.69 0 0 0-.25-.23 5.05 5.05 0 0 0 .77-3.09v-2.2h2v-1.2h.32v1.2h1.5v.33h-1.49a23.41 23.41 0 0 0 .26 3 8.64 8.64 0 0 0 .76-2.1Zm-.24-1.36a5.67 5.67 0 0 0-.9-.83l.22-.19a4.84 4.84 0 0 1 .9.81ZM16.84 26.53a15 15 0 0 1-.66 2.8l-.31-.15a11.84 11.84 0 0 0 .66-2.73Zm1-.7v3.77c0 .34.09.42.5.42h1.5c.46 0 .52-.28.58-1.63a1.05 1.05 0 0 0 .31.17c-.06 1.4-.18 1.8-.89 1.8h-1.5c-.65 0-.84-.16-.84-.76v-3.78Zm.25-1.68a13.76 13.76 0 0 1 1.81 1.69l-.23.25a14.22 14.22 0 0 0-1.79-1.72Zm2.94 2.13a13.55 13.55 0 0 1 .94 2.8l-.32.12a13.75 13.75 0 0 0-.91-2.8ZM24.89 28.17c-.16-.22-.56-.71-.84-1v3.35h-.32v-3.2a6.58 6.58 0 0 1-1 1 1.81 1.81 0 0 0-.18-.31 6.61 6.61 0 0 0 2.09-2.52h-1.92v-.33H24.88l.18.13a6.58 6.58 0 0 1-.9 1.59c.27.27.81.9 1 1.08Zm-.78-3.2a4.89 4.89 0 0 0-.67-1l.23-.17a4.84 4.84 0 0 1 .69 1Zm4.62 4.86v.35h-3.87v-.35h1.88v-3.31h-1.51v-.34h1.55v-2.43h.32v2.43h1.53v.34H27.1v3.31ZM35.44 29.93v.33h-5.68v-6h5.47v.34h-5.18v5.34Zm-1.21-.63a20.23 20.23 0 0 0-1.5-1.81 11.92 11.92 0 0 1-1.9 1.81 1.72 1.72 0 0 0-.27-.27 9.79 9.79 0 0 0 1.94-1.78 31.49 31.49 0 0 0-1.75-1.73l.24-.21c.55.5 1.16 1.09 1.72 1.68a12.14 12.14 0 0 0 1.29-2l.3.13a13.3 13.3 0 0 1-1.36 2.08 20.64 20.64 0 0 1 1.56 1.82Z"/></svg>