<?xml version="1.0" encoding="utf-8"?>
<!-- Generator: Adobe Illustrator 24.0.0, SVG Export Plug-In . SVG Version: 6.00 Build 0)  -->
<svg version="1.1" id="图层_1" xmlns="http://www.w3.org/2000/svg" xmlns:xlink="http://www.w3.org/1999/xlink" x="0px" y="0px"
	 viewBox="0 0 267.66 129.03" style="enable-background:new 0 0 267.66 129.03;" xml:space="preserve">
<style type="text/css">
	.st0{opacity:0.6;fill:#E3BD80;}
	.st1{opacity:0.77;fill:url(#SVGID_1_);}
</style>
<path class="st0" d="M182.74,44.25c0,0-0.59-1.69-2.22-1.67c-0.74,0.01-4.81,0.79-9.04,1.63l-7.35-2.8l0.5,1.45l2.99,2.13
	c-3.65,0.75-6.65,1.37-6.65,1.37l-3.05-2.47l-2.25-0.17l2.31,4.49c0,0,1.04,0.43,1.54,0.48c1.89,0.19,4.78-0.15,7.87-0.71l-3.3,3.8
	l1.37,0l6.21-4.67C177.43,45.83,182.74,44.25,182.74,44.25z"/>
<linearGradient id="SVGID_1_" gradientUnits="userSpaceOnUse" x1="154.5163" y1="55.176" x2="80.1378" y2="55.176">
	<stop  offset="0.2745" style="stop-color:#EAC181"/>
	<stop  offset="1" style="stop-color:#FFFFFF;stop-opacity:0.33"/>
</linearGradient>
<path class="st1" d="M154.52,49.14c0,0-32.28,3.47-43.82,5.02c-4.46,0.6-22.4,3.5-30.56,4.92l0.74,2.14
	c8.18-1.49,26.38-4.55,31.47-5.46C125.27,53.45,154.52,49.14,154.52,49.14z"/>
</svg>
