<svg xmlns="http://www.w3.org/2000/svg" viewBox="0 0 252.1 90.9"><defs><style>.a{fill:#666868}</style></defs><path class="a" d="M10.7 4.3a8.4 8.4 0 0 0 4.5 5.5 2 2 0 0 0-.6.7 8.6 8.6 0 0 1-4.5-5.6 7.9 7.9 0 0 1-4.6 5.6l-.6-.6a7.6 7.6 0 0 0 4.4-5.6H5.1v-.8h4.3A20 20 0 0 0 9.6.2h.9a19.4 19.4 0 0 1-.2 3.3H15v.8ZM25.5 4.8l-1.7 1.3a5.2 5.2 0 0 0 3 3.3l-.5.7a6.4 6.4 0 0 1-3.2-3.6l-.5.3c.4 1.5.1 2.9-.5 3.4a1.5 1.5 0 0 1-1.1.3h-1a3.1 3.1 0 0 0-.2-.8h1a.8.8 0 0 0 .7-.2 2.7 2.7 0 0 0 .4-2 15.4 15.4 0 0 1-4.8 2.4l-.4-.7a12.8 12.8 0 0 0 5.1-2.4l-.3-.8a16.2 16.2 0 0 1-4.2 2l-.4-.7a12.4 12.4 0 0 0 4.2-1.8 1.8 1.8 0 0 0-.5-.7 13.3 13.3 0 0 1-3.3 1.3 2.1 2.1 0 0 0-.4-.6 13.1 13.1 0 0 0 4-1.7h-2.6v-.7h6.5v.7H22l-.8.6a3.6 3.6 0 0 1 1.2 1.8l2.5-1.9Zm-7.8-1.2h-.8V1.2h4.3l-.5-.8.9-.2.6 1h4.1v2.4h-.8V2h-7.8ZM31.4.5a16.3 16.3 0 0 1-1.1 2.3v7.7h-.8V4.1l-1.2 1.4-.5-.8A12.3 12.3 0 0 0 30.6.3Zm4.2 6a8.3 8.3 0 0 0 3 2.9l-.6.7A8.7 8.7 0 0 1 35.1 7v3.6h-.9V7.1a9.5 9.5 0 0 1-3 3l-.6-.7a8.8 8.8 0 0 0 3.2-2.9H31v-.8h3.2V4.3h-2.4V.8h5.8v3.5h-2.5v1.4h3.2v.8Zm-3-2.9h4.2V1.5h-4.2ZM43.2 1c-.3.9-.7 2-1.1 2.9a3.6 3.6 0 0 1 1 2.4 1.8 1.8 0 0 1-.4 1.4l-.6.2h-.8a1.9 1.9 0 0 0-.2-.7h1a1.1 1.1 0 0 0 .2-.8 3.4 3.4 0 0 0-1-2.3 26.7 26.7 0 0 0 .9-2.6h-1.4v9.1H40V.7h2.7Zm1.3 2.8-1.1.9-.6-.7A10.2 10.2 0 0 0 46.3.1l.7.3c-.1.1-.1.3-.2.4a12.2 12.2 0 0 0 3.3 3.1 1 1 0 0 0-.4.7 16.2 16.2 0 0 1-3.3-3.1 10 10 0 0 1-1.9 2.2h3.8v.7h-3.8Zm5 1.7c-.5 1.2-1.2 2.7-1.8 3.8h2.1v.7h-6.6v-.7H47a28.3 28.3 0 0 0 1.7-4Zm-5 0a18 18 0 0 1 .7 2.7l-.7.2a9.8 9.8 0 0 0-.7-2.7Zm1.9 2.6a12.6 12.6 0 0 0-.4-2.7h.6a12.8 12.8 0 0 1 .5 2.7ZM57.4 7.8a14 14 0 0 0 4.1 1.9 1.8 1.8 0 0 0-.5.7 14.2 14.2 0 0 1-4.4-2.3v2.5h-.8V8.1a11.2 11.2 0 0 1-4.3 2.3 1.5 1.5 0 0 0-.5-.6 12 12 0 0 0 4.1-2h-3.9v-.6h4.6v-.8h.8v.8h4.7v.6ZM52.6 3l-1 .9-.6-.5A9.4 9.4 0 0 0 53.6.2l.9.2a6.1 6.1 0 0 1-.7 1h2.6a4.7 4.7 0 0 0-.5-1l.7-.2a5.2 5.2 0 0 1 .7 1.2h3.3v.7H57v.8h3.1v.6H57v.7h3.2v.6H57v.8h4v.7h-7.6v.3h-.8Zm3.5-.9h-2.7v.8h2.7Zm0 1.4h-2.7v.7h2.7Zm0 1.3h-2.7v.8h2.7ZM72.5.7v9.9h-.9v-.5H64v.5h-.9V.7Zm-.9 8.6V1.5H64v7.8Zm-.7-5.1h-1.7v3.5c0 .5-.1.7-.4.8a2.8 2.8 0 0 1-1.5.2 2.4 2.4 0 0 0-.2-.8h1.1c.1 0 .2 0 .2-.2V5.1a16.3 16.3 0 0 1-3.3 2.7 1.5 1.5 0 0 0-.5-.6 12.4 12.4 0 0 0 3.5-3h-3.4v-.8h3.7V2h.8v1.4h1.7ZM78.2 2.5a8.3 8.3 0 0 1-.7 1.3H83v5.7c0 .5-.1.8-.5.9h-2a3.1 3.1 0 0 0-.2-.8h1.6c.2 0 .3 0 .3-.2V8.3h-4.8v2.3h-.8V5.1a8.1 8.1 0 0 1-1.9 1.8l-.5-.7a9.3 9.3 0 0 0 3.1-3.7h-2.8v-.8h3.2a8.8 8.8 0 0 1 .5-1.5l.8.2a6.9 6.9 0 0 1-.5 1.3h5.8v.8Zm4 2h-4.8v1.2h4.8Zm0 3.1V6.4h-4.8v1.2ZM89.7 1c-.3.9-.7 2-1.1 2.9a3.7 3.7 0 0 1 1 2.5c0 .6-.1 1.1-.4 1.3l-.6.2h-.8a1.9 1.9 0 0 0-.2-.7h1a1.1 1.1 0 0 0 .2-.8 3.4 3.4 0 0 0-1-2.3 15.2 15.2 0 0 0 .9-2.5h-1.6v9h-.8V.7h2.9Zm6.2 5.6L94 8a4.6 4.6 0 0 0 2.1 1.8l-.5.7a6.7 6.7 0 0 1-3.4-4.8h-1.1v3.7l2-.5v.8a11 11 0 0 0-2.9.9 1.5 1.5 0 0 0-.3-.7 1 1 0 0 0 .4-.8V.7h4.9v5h-2.3a8.7 8.7 0 0 0 .7 1.7L95.3 6Zm-4.8-5.1v1.3h3.3V1.5Zm0 3.4h3.3V3.5h-3.3ZM107.5 3.9v.6h-10v-.6h4.6v-.8h-3.4v-.6h3.4v-.8h-4V1h4V.2h.8V1h4v.7h-4v.8h3.5v.6h-3.5v.8Zm-4.6 3.4c0 1.1-.5 2.4-4.8 3.3 0-.2-.3-.5-.5-.7 4.1-.7 4.4-1.8 4.4-2.6v-1h.9Zm2.3 1.2V5.9h-5.4v2.7H99V5.2h7.1v3.3Zm-2-.2a27 27 0 0 1 4.1 1.6l-.4.7a34.1 34.1 0 0 0-4.1-1.7ZM112.5.5a13.4 13.4 0 0 1-1.2 2.4v7.7h-.8V4.1c-.4.6-.9 1.1-1.3 1.6a4.7 4.7 0 0 0-.6-.9 11.7 11.7 0 0 0 3.1-4.6Zm3.5 5.4v3.4h3v.8h-6.8v-.8h3V5.9h-3.4V5h3.4V2l-2.8.4a1.9 1.9 0 0 0-.2-.7 27.8 27.8 0 0 0 5.9-1.2l.6.7a15 15 0 0 1-2.7.7V5h3.2v.9ZM124.5.8a15 15 0 0 1-3.2 4.7 2.4 2.4 0 0 0-.8-.6 11.3 11.3 0 0 0 3.1-4.3Zm3.1 5.4a24.8 24.8 0 0 1 2.7 3.8l-.8.5-.8-1.3c-5.9.4-6.5.5-6.9.6a6.3 6.3 0 0 0-.4-.9c.3 0 .6-.4 1.1-.9a30.8 30.8 0 0 0 2.7-4.3l.9.4a25.9 25.9 0 0 1-3.2 4.7l5.3-.4-1.4-1.8Zm-.2-5.7a16.2 16.2 0 0 0 3.4 4.3 2.3 2.3 0 0 0-.7.7 19.2 19.2 0 0 1-3.5-4.7ZM141.5 9.3c0 .6-.1.9-.5 1a5.6 5.6 0 0 1-2.1.2 9.4 9.4 0 0 0-.3-.9h1.8c.2 0 .2-.1.2-.3V1.8h-8.1V1h9Zm-2.2-5.6h-6.7v-.8h6.7Zm-5.2 4.8v.8h-.8V4.9h5.3v3.6Zm0-2.8v2.1h3.7V5.7ZM150.9 5.4a7.8 7.8 0 0 1 2.2-5.4l.7.4a7 7 0 0 0 0 10l-.7.4a7.8 7.8 0 0 1-2.2-5.4ZM159.9 6.6l.3.8-4 2-.5-.7a1 1 0 0 0 .7-1V1.1h.9v6.7Zm4.8 3.9a15.4 15.4 0 0 0-2.2-2.7 7.4 7.4 0 0 1-3.4 2.8l-.6-.7c3.6-1.4 4.4-4.2 4.7-9.2h.9a20.2 20.2 0 0 1-1.2 6.4 32.2 32.2 0 0 1 2.6 2.9Zm-4.2-6.1a10.1 10.1 0 0 0-1.7-2.7l.7-.4a17.5 17.5 0 0 1 1.8 2.6ZM172 1.9v2l.2-.2a35.2 35.2 0 0 1 4 2.4l-.6.8a22.5 22.5 0 0 0-3.6-2.3v5.9h-.9V1.9h-4.3v-.8h10v.8ZM180.1 1.9a7.6 7.6 0 0 1-1.1 1.4l-.7-.5A5.9 5.9 0 0 0 180 .2l.9.2c-.1.3-.3.5-.4.8h2.7v.7h-1.5a2.1 2.1 0 0 1 .4 1l-.7.3a3.8 3.8 0 0 0-.6-1.3Zm-1.2 2.7h.8v6h-.8Zm1.3-1.6a6.7 6.7 0 0 1 1.1 1.4l-.7.4a6 6 0 0 0-1.1-1.4Zm1.8 6v.6h-.8V5.2h4.3V9Zm5.8.6a.7.7 0 0 1-.6.8h-2l-.3-.7h1.8c.2 0 .2-.1.2-.2V4.1h-5.2v-.8h6.1ZM182 5.8v.9h2.7v-.9Zm2.7 2.6v-1H182v1Zm3.5-7.2v.7h-1.9a3.5 3.5 0 0 1 .6.9l-.7.4-.8-1.3h-.8l-.9 1.2-.7-.5a6.3 6.3 0 0 0 1.4-2.4l.8.2-.3.8ZM197.5 2.5v7c0 .5-.1.7-.5.9h-1.4l-.3-.8h1.1c.2 0 .2 0 .2-.2v-7h-1.1a9.9 9.9 0 0 1-1.1 2.4 1.8 1.8 0 0 0-.7-.5h-1.3v.5l1.5 1.6-.5.7a9.7 9.7 0 0 0-1-1.5v5.1h-.8v-5a13 13 0 0 1-1.5 2.9l-.4-.7a13.4 13.4 0 0 0 1.8-3.6h-1.6v-.9h1.7V1.6l-1.4.3a1.9 1.9 0 0 0-.2-.7 13.9 13.9 0 0 0 3.4-.9l.5.7-1.5.4v2h1.5v.7a13.1 13.1 0 0 0 1.4-3.8h.8a5 5 0 0 1-.4 1.3h4.3a13.3 13.3 0 0 1-.9 2.1h-.7l.6-1.3Zm-1.7 2.3a13.4 13.4 0 0 1-1.4 4l-.7-.5a9.5 9.5 0 0 0 1.3-3.7Zm3-.3a21.6 21.6 0 0 1 1.2 3.9l-.8.2a26.3 26.3 0 0 0-1.1-3.9ZM209.5.5a1.7 1.7 0 0 0-1 1.4h.3a.8.8 0 0 1 .7.8.7.7 0 0 1-.8.7c-.4 0-.8-.5-.8-1.1a2.2 2.2 0 0 1 1.4-2.1Zm2.2 0a1.7 1.7 0 0 0-1 1.4h.3a.8.8 0 0 1-.1 1.5 1 1 0 0 1-.9-1.1 2.4 2.4 0 0 1 1.4-2.2ZM219.2 7.8a12.4 12.4 0 0 0 4 1.9l-.5.7a13.7 13.7 0 0 1-4.3-2.3v2.5h-.8V8.1a12.8 12.8 0 0 1-4.3 2.3l-.6-.6a12 12 0 0 0 4.1-2H213v-.6h4.6v-.8h.8v.8h4.6v.6ZM214.3 3a4.3 4.3 0 0 1-1 .9l-.6-.5a8.7 8.7 0 0 0 2.7-3.2l.8.2-.6 1h2.6l-.6-1 .8-.2a13.3 13.3 0 0 1 .6 1.2h3.3v.7h-3.6v.8h3.2v.6h-3.2v.7h3.2v.6h-3.2v.8h4v.7h-7.5v.3h-.9Zm3.6-.9h-2.7v.8h2.7Zm0 1.4h-2.7v.7h2.7Zm0 1.3h-2.7v.8h2.7ZM234.2.7v9.9h-.9v-.5h-7.6v.5h-.8V.7Zm-.9 8.6V1.5h-7.6v7.8Zm-.6-5.1h-1.8v3.5c0 .5-.1.7-.4.8s-.7.2-1.4.2l-.3-.8h1.1c.2 0 .2 0 .2-.2V5.1a13.5 13.5 0 0 1-3.2 2.7l-.6-.6a12.8 12.8 0 0 0 3.6-3h-3.4v-.8h3.6V2h.8v1.4h1.8ZM235.9 2.9a1.7 1.7 0 0 0 1-1.4h-.3a.7.7 0 0 1-.7-.7.6.6 0 0 1 .7-.7.9.9 0 0 1 .9 1 2.4 2.4 0 0 1-1.4 2.1Zm2.2 0a1.7 1.7 0 0 0 1-1.4h-.4a.7.7 0 0 1-.7-.7.7.7 0 0 1 .8-.7.9.9 0 0 1 .9 1 2.4 2.4 0 0 1-1.4 2.1ZM244.8 5.4a7.5 7.5 0 0 1-2.3 5.4l-.6-.4a7 7 0 0 0 0-10l.6-.4a7.5 7.5 0 0 1 2.3 5.4ZM8.7 22.4v8.1h-.8v-.6h-7v.7H0v-8.2h3.9v-2.2h.9v2.2Zm-7.8.9v2.4h3v-2.4Zm0 5.7h3v-2.5h-3Zm3.9-5.7v2.4h3.1v-2.4ZM7.9 29v-2.5H4.8V29ZM20.6 22.1v5.6h-1.4v-.5h-2.6v3.5h-1.4v-3.5h-2.6v.6h-1.3v-5.7h3.9v-2h1.4v2Zm-5.4 3.7v-2.4h-2.6v2.4Zm4 0v-2.4h-2.6v2.4ZM32.2 20.6v10.1h-1.4v-.6h-6.7v.6h-1.4V20.6Zm-1.4 8.3v-7.1h-6.7v7.1Zm-.4-1.8v1.1h-5.9v-1.1h2.3v-1.3h-1.9v-1.2h1.9v-1h-2.1v-1.2h5.5v1.2h-2.1v1H30v1.2h-.7l.9 1-.6.3Zm-2.3 0h1.1l-.8-1 .7-.3h-1ZM37.5 20.5a22.9 22.9 0 0 1-1 2.3v7.9h-1.3v-6l-.9 1a8.3 8.3 0 0 0-.7-1.3 12.6 12.6 0 0 0 2.7-4.3Zm4.5 6.2a8.8 8.8 0 0 0 2.6 2.5 5.2 5.2 0 0 0-1 1.1 11.2 11.2 0 0 1-2.3-2.5v2.9H40v-2.9a9.9 9.9 0 0 1-2.5 2.5 3.3 3.3 0 0 0-.9-1.1 9.2 9.2 0 0 0 2.7-2.5H37v-1.2h3v-1h-2.3v-3.9h6v3.9h-2.4v1h2.9v1.2Zm-3-3.4h3.3v-1.5H39ZM49.3 21c-.3 1-.7 2.1-1 3a3.8 3.8 0 0 1 .9 2.3 1.6 1.6 0 0 1-.6 1.5l-.6.3h-.7a3 3 0 0 0-.3-1.2h.8a1.2 1.2 0 0 0 .2-.7 3.5 3.5 0 0 0-.8-2.1l.6-2.3h-.9v8.9h-1.2V20.6h2.7Zm1 3-.9.7-.8-1.1A10.7 10.7 0 0 0 52 20l1.1.4-.2.3a11.4 11.4 0 0 0 3.2 2.6l-.7 1.3-1.1-.9v1h-4Zm5.2 1.5a19.6 19.6 0 0 1-1.6 3.6h1.8v1.1h-6.5v-1.1h3.6a30.8 30.8 0 0 0 1.6-3.8Zm-5.3 3a13.1 13.1 0 0 0-.6-2.7l1-.3a18 18 0 0 1 .7 2.7Zm3.9-4.9-1.9-1.8a11.9 11.9 0 0 1-1.5 1.8Zm-1.9 4.5c-.1-.7-.3-1.8-.5-2.7h1.1c.2.8.4 1.9.5 2.6ZM60.6 20.5a22.9 22.9 0 0 1-1 2.3v7.9h-1.3v-6l-.9 1a8.3 8.3 0 0 0-.7-1.3 12.6 12.6 0 0 0 2.7-4.3Zm4.5 6.2a8.8 8.8 0 0 0 2.6 2.5 5.2 5.2 0 0 0-1 1.1 11.2 11.2 0 0 1-2.3-2.5v2.9h-1.3v-2.9a9.9 9.9 0 0 1-2.5 2.5 3.3 3.3 0 0 0-.9-1.1 9.2 9.2 0 0 0 2.7-2.5h-2.3v-1.2h3v-1h-2.2v-3.9h5.9v3.9h-2.4v1h3v1.2Zm-3-3.4h3.4v-1.5h-3.4ZM72.4 21c-.3 1-.7 2.1-1 3a3.8 3.8 0 0 1 .9 2.3 1.6 1.6 0 0 1-.6 1.5l-.6.3h-.8a6 6 0 0 0-.2-1.2c.2 0 .3.1.5 0h.3a.8.8 0 0 0 .2-.6 3.5 3.5 0 0 0-.8-2.1l.6-2.3h-1v8.9h-1.2V20.6h2.8Zm1.7.9h-1.5v-1h2.3c-.1-.2-.1-.4-.2-.6l1.2-.3a3.2 3.2 0 0 1 .3.9h2.4v1h-1.8l1 .2-.3.6h1.4v1h-6.7v-1h1.5a1.4 1.4 0 0 1-.2-.6Zm4.8 7.3h-2.6v1.5h-1.4v-1.5h-2.7v-1.1h2.7v-.5h-2.1v-3.4h5.5v3.4h-2v.5h2.6Zm-4.8-3.7H77V25h-2.9Zm0 1.2H77v-.5h-2.9Zm2.1-4 .3-.8h-1.9a1.6 1.6 0 0 1 .3.8ZM88.4 26.5a4.8 4.8 0 0 0 2.3 1.3l-.9 1.1a5.7 5.7 0 0 1-1.8-1.2v.8h-2.1v.8h3.7v1.1H81v-1.1h3.6v-.8h-2.1v-.7a5.7 5.7 0 0 1-1.8 1.2 2.5 2.5 0 0 0-.8-1 8.3 8.3 0 0 0 2.3-1.5H80v-1.1h2.1v-3.3h-1.5V21h1.5v-.9h1.4v.9H87v-.9h1.4v.9H90v1.1h-1.6v3.3h2.1v1.1Zm-.7 1-.8-1h-3.2a3.9 3.9 0 0 1-.8 1h1.7v-.7h1.3v.7Zm-4.2-5.4v.5H87v-.5Zm0 1.9H87v-.5h-3.5Zm0 1.4H87v-.5h-3.5ZM97.5 24.6v1.2h3.6V27h-1.8l1.2.4-1.2 1.8h2.4v1.2h-9.8v-1.2h2.3a8.1 8.1 0 0 0-1-1.8l.9-.4h-1.6v-1.2h3.6v-1.2h-2.3v-.5l-1.5.6a5.1 5.1 0 0 0-.9-1.3 9.3 9.3 0 0 0 5.3-3.4l1.2.6-.3.4a11.6 11.6 0 0 0 4.7 2.4l-1 1.2-1.5-.7v.7ZM94.4 27a6 6 0 0 1 .9 1.8l-.9.4h1.7V27Zm4.4-3.6-2-1.5a6.5 6.5 0 0 1-1.8 1.5ZM97.5 27v2.2h1.4l-.7-.3 1-1.9ZM107.3 22.7a3.6 3.6 0 0 1-.4.9h5.2v5.6c0 .7-.1 1.1-.6 1.3a5 5 0 0 1-2 .2 2.8 2.8 0 0 0-.4-1.3h1.5a.2.2 0 0 0 .2-.2v-.7h-4.1v2.2h-1.3v-5a10 10 0 0 1-1.5 1.4L103 26a8.1 8.1 0 0 0 2.8-3.3h-2.4v-1.2h3a7.4 7.4 0 0 0 .4-1.4l1.4.3-.3 1.1h5.5v1.2Zm3.5 2.1h-4.1v.7h4.1Zm0 2.6v-.7h-4.1v.7ZM118.9 21c-.3 1-.7 2.1-1 3a3.5 3.5 0 0 1 .8 2.3c0 .8-.1 1.2-.5 1.5l-.6.3h-.7a3 3 0 0 0-.3-1.2h.8a.8.8 0 0 0 .2-.6 3.5 3.5 0 0 0-.8-2.1l.6-2.4h-1.1v8.9h-1.2V20.6h2.9Zm6.1 5.8-1.6 1.2a5.8 5.8 0 0 0 1.9 1.5 3.8 3.8 0 0 0-.9 1.2c-1.7-1-2.6-2.7-3.2-4.9h-.6v3.1l1.5-.3a4.5 4.5 0 0 0 .1 1.2 13.2 13.2 0 0 0-2.9.9 3.3 3.3 0 0 0-.6-1 1.4 1.4 0 0 0 .5-1v-8.1h5.1v5.2h-1.9c.1.4.3.8.4 1.2l1.3-1.1Zm-4.4-5.1v.9h2.4v-.9Zm0 2.9h2.4v-.9h-2.4ZM136.5 23.7v1h-10.1v-1h4.4v-.5h-3.2v-.9h3.2v-.5H127v-1h3.8v-.7h1.4v.7h3.9v1h-3.9v.5h3.4v.9h-3.4v.5Zm-4.3 3.8c0 1.1-.7 2.4-4.8 3.2l-.9-1.1c3.9-.6 4.3-1.5 4.3-2.2v-.8h1.4Zm1.7 1v-2.2H129v2.3h-1.3v-3.5h7.6v3.4Zm-1.5-.3a26.4 26.4 0 0 1 4 1.4l-.6 1.2a25.6 25.6 0 0 0-4-1.6ZM145.4 26.1V29h2.7v1.3h-6.7V29h2.6v-2.9h-3v-1.3h3v-2.5l-2.3.3a4.9 4.9 0 0 0-.4-1.1 9.1 9.1 0 0 1-.7 1.4v7.8h-1.3v-5.8a4.7 4.7 0 0 1-1 1 5 5 0 0 0-.8-1.4 10.6 10.6 0 0 0 2.9-4.4l1.3.5a3.6 3.6 0 0 1-.4.9 33.1 33.1 0 0 0 5.7-1.2l1 1.1a11 11 0 0 1-2.6.6v2.8h2.8v1.3ZM153.8 20.8a15 15 0 0 1-3.2 4.7l-1.2-1a9.6 9.6 0 0 0 2.9-4.1Zm3.1 5.3a26.4 26.4 0 0 1 2.6 3.9l-1.4.7a5.6 5.6 0 0 0-.7-1.3c-5.4.5-6.2.5-6.8.7a4.8 4.8 0 0 0-.5-1.4 2.2 2.2 0 0 0 1.1-.9 20.4 20.4 0 0 0 2.7-4.3l1.5.6a23.4 23.4 0 0 1-3 4.3l4.3-.3-1.1-1.5Zm-.2-5.8a15.7 15.7 0 0 0 3.2 4 6.8 6.8 0 0 0-1.2 1.2 20.7 20.7 0 0 1-3.3-4.7ZM170.7 29c0 .7-.2 1.2-.6 1.4a6.1 6.1 0 0 1-2.2.3 8.8 8.8 0 0 0-.5-1.5h1.6c.2 0 .3 0 .3-.2v-6.9h-7.9v-1.3h9.3Zm-2.5-5h-6.7v-1.1h6.7Zm-4.8 4.7v.8h-1.3v-4.6h5.5v3.8Zm0-2.7v1.6h2.8V26ZM174.9 30.5a19 19 0 0 0-2.4-2.5l1.1-1a11.5 11.5 0 0 1 2.5 2.4ZM193.9 22.1v5.6h-1.4v-.5h-2.6v3.5h-1.4v-3.5H186v.6h-1.4v-5.7h3.9v-2h1.4v2Zm-5.4 3.7v-2.4H186v2.4Zm4 0v-2.4h-2.6v2.4ZM205.5 20.6v10.1h-1.4v-.6h-6.7v.6H196V20.6Zm-1.4 8.3v-7.1h-6.7v7.1Zm-.4-1.8v1.1h-5.9v-1.1h2.3v-1.3h-1.9v-1.2h1.9v-1H198v-1.2h5.5v1.2h-2.1v1h1.9v1.2h-.7l.9 1-.6.3Zm-2.3 0h1.1l-.8-1 .7-.3h-1ZM211.9 22.2a14.2 14.2 0 0 1-1.2 2.5h6v5.9h-1.5V30h-4.5v.7h-1.4v-4a6.7 6.7 0 0 1-1.5 1.4l-.9-1.1a9.7 9.7 0 0 0 3.4-4.8h-2.9v-1.3h9.9v1.3Zm3.3 3.8h-4.5v2.7h4.5ZM220.8 25.6a12.8 12.8 0 0 0-2.1-1.3l.7-1 2.2 1.2Zm-1.7 4c.5-.7 1.2-2 1.8-3.1l1 .8a32.4 32.4 0 0 1-1.7 3.2Zm2.4-7-2.2-1.4.7-.9a12.4 12.4 0 0 1 2.3 1.2Zm7.3-.1v8h-1.3v-.6h-4v.7h-1.2v-8.1h2.5v-2.3h1.3v2.3Zm-5.3 1.2v1.8h1.3v-1.8Zm0 5h1.3v-1.9h-1.3Zm2.6-5v1.8h1.4v-1.8Zm1.4 5v-1.9h-1.4v1.9ZM238.8 29.1c.5 0 .5-.4.6-2.3l1.3.7c-.1 2.2-.5 3-1.8 3h-1.7c-1.3 0-1.7-.5-1.7-2.1v-1.2l-1.3.7-.9-.9v3.7h-1.4v-6l-.9 1a6.7 6.7 0 0 0-.9-1.4 10.6 10.6 0 0 0 2.9-4.2l1.4.4a22.6 22.6 0 0 1-1.1 2.2v4.1a10.5 10.5 0 0 0 2.2-1.3v-5.2h1.4v4.1a12.7 12.7 0 0 0 2.4-2.8l1.3.9a16.2 16.2 0 0 1-3.7 3.7v2.2c0 .6.1.7.5.7ZM252.2 28.5v1.4h-10.3v-1.4h4.3v-5.8h-3.7v-1.4h9v1.4h-3.8v5.8ZM7.5 48.2a18.1 18.1 0 0 0 3.5 1.3 4.3 4.3 0 0 0-.9 1 12.5 12.5 0 0 1-3.9-1.8v2H4.9v-2A11.8 11.8 0 0 1 1 50.6l-.9-1.1a20.1 20.1 0 0 0 3.7-1.3H.5v-1.1h4.4v-.6h1.3v.6h4.5v1.1Zm-5.7-4.7-.7.5a3.8 3.8 0 0 0-.9-.9 8.3 8.3 0 0 0 2.7-3l1.3.3-.5.8h1.8l-.3-.8 1.2-.3a3.7 3.7 0 0 1 .5 1.1h3.2v1H6.7v.5h2.9v.9H6.7v.4h2.9v.9H6.7v.5h3.7v1H3.1v.3H1.8Zm3.6-1.3H3.1v.5h2.3Zm0 1.4H3.1v.4h2.3Zm0 1.3H3.1v.5h2.3ZM22 40.5v10.2h-1.5v-.4h-6.8v.4h-1.4V40.5Zm-1.5 8.6v-7.3h-6.8v7.3Zm-.4-4.6h-1.4v2.9c0 .6-.1.9-.5 1.1a3 3 0 0 1-1.5.2l-.5-1.2h1.1c.1 0 .1-.1.1-.2v-1.4a15.1 15.1 0 0 1-2.6 2 3.8 3.8 0 0 0-.9-.9 10 10 0 0 0 3-2.5h-2.7v-1.2h3.2v-1.2h1.3v1.2h1.4ZM27.7 42.7l-.5.9h5.3v5.6c0 .7-.2 1.1-.6 1.3a5.6 5.6 0 0 1-2 .2l-.4-1.3h1.4c.2 0 .3-.1.3-.2v-.7h-4.1v2.2h-1.4v-5a6.7 6.7 0 0 1-1.5 1.4 7.6 7.6 0 0 0-.8-1.1 9 9 0 0 0 2.8-3.3h-2.5v-1.2h3a7.8 7.8 0 0 0 .5-1.4l1.4.3a4.9 4.9 0 0 1-.4 1.1h5.5v1.2Zm3.5 2.1h-4.1v.7h4.1Zm0 2.6v-.7h-4.1v.7ZM39.2 41a26.3 26.3 0 0 1-.9 3 3.5 3.5 0 0 1 .8 2.3 1.9 1.9 0 0 1-.5 1.5l-.7.3h-.7a3 3 0 0 0-.3-1.2h.8a.8.8 0 0 0 .2-.6 2.9 2.9 0 0 0-.8-2.1l.7-2.3h-1.1v8.9h-1.2V40.6h2.9Zm6.2 5.8L43.8 48a5.4 5.4 0 0 0 1.8 1.5 3.8 3.8 0 0 0-.9 1.2 7.1 7.1 0 0 1-3.1-4.9h-.7v3.1l1.6-.3v1.2a13.2 13.2 0 0 0-2.9.9l-.5-1a1.4 1.4 0 0 0 .5-1v-8.1h5.1v5.2h-2l.5 1.2 1.3-1.1Zm-4.5-5.1v.9h2.5v-.9Zm0 2.9h2.5v-.9h-2.5ZM51 40.8a13.3 13.3 0 0 1-3.1 4.7 6.4 6.4 0 0 0-1.3-1 9.6 9.6 0 0 0 2.9-4.1Zm3.2 5.3a25.3 25.3 0 0 1 2.5 3.9l-1.3.7-.7-1.3c-5.5.5-6.3.5-6.8.7l-.6-1.4a2.2 2.2 0 0 0 1.1-.9 16.9 16.9 0 0 0 2.7-4.3l1.5.6a23.1 23.1 0 0 1-2.9 4.3l4.2-.3-1-1.5Zm-.2-5.8a13.5 13.5 0 0 0 3.1 4L56 45.5a21 21 0 0 1-3.4-4.7ZM67.9 49c0 .7-.1 1.2-.6 1.4a6.1 6.1 0 0 1-2.2.3 8.3 8.3 0 0 0-.4-1.5h1.6c.2 0 .2 0 .2-.2v-6.9h-7.9v-1.3h9.3Zm-2.5-5h-6.7v-1.1h6.7Zm-4.8 4.7v.8h-1.3v-4.6h5.5v3.8Zm0-2.7v1.6h2.9V46ZM72.1 50.5a14.2 14.2 0 0 0-2.4-2.5l1.2-1a19 19 0 0 1 2.5 2.4ZM91.6 48.8v1.3H81.3v-1.3h4.1v-8.6h1.4v3.3h4v1.4h-4v3.9ZM94.6 45.7a14 14 0 0 0-1.8-1.3l.7-.9a10.6 10.6 0 0 1 1.9 1.1Zm-1.5 4.1a27.1 27.1 0 0 0 1.6-3.7l1 .8a38.4 38.4 0 0 1-1.4 3.6Zm2.3-7.3a7.7 7.7 0 0 0-2-1.3l.8-.9a13.2 13.2 0 0 1 2 1.2Zm7.1 4.1a5.7 5.7 0 0 0-.1 1.2h.7V49h-.9a4.1 4.1 0 0 1-.3 1 1.1 1.1 0 0 1-.9.5h-1.4a4.9 4.9 0 0 0-.4-1.1h1.2c.2 0 .3 0 .4-.2a.4.4 0 0 0 .1-.3h-4.6l.3-2.4h-1v-1.1h1.2c.1-.6.1-1.2.2-1.8l-.4.6-1.2-.7a7.4 7.4 0 0 0 1.8-3.4l1.3.3a1.6 1.6 0 0 1-.3.9h4.9v1.2h-5.4a2.5 2.5 0 0 0-.4.7h5.3v.6a8.1 8.1 0 0 1-.1 1.6h.8v1.2Zm-4.6 0c-.1.5-.1.9-.2 1.2h1.7a4.5 4.5 0 0 0-1-.9l.5-.3Zm.3-2.3c-.1.4-.1.8-.2 1.1h1.6l-.9-.8.4-.3Zm2.9 3.5a4.1 4.1 0 0 0 .1-1.2h-1.8a4.7 4.7 0 0 1 1 1l-.3.2Zm-1.4-3.5.8.9-.3.2h1.1a4.5 4.5 0 0 1 .1-1.1ZM106.2 45.5a11.7 11.7 0 0 0-2-1.2l.7-1 2 1Zm-1.6 4.1a21.7 21.7 0 0 0 2-3.5l1 .9c-.5 1.1-1.2 2.4-1.8 3.5Zm2.2-7.1a8.8 8.8 0 0 0-1.9-1.2l.7-1a9.5 9.5 0 0 1 2 1.1Zm2.1.6-.8.9-1.1-.8a6.7 6.7 0 0 0 2-3.1l1.3.3-.4.9h5v1.1h-5.6l-.4.6h4.9v1.1h-4.9Zm4.7 1.7c0 2.7 0 4.6.4 4.6s.2-.6.2-1.4l.8.8c-.1 1.3-.3 1.9-1.1 1.9s-1.5-1.9-1.6-4.8h-4.5v-1.2h5.8ZM126.2 48.7h-3.7v2H121v-2h-5v-1.3h5v-1.2h-3.7c0-.2-.3-.9-.4-1.3s.5-.4.8-.9a9.1 9.1 0 0 0 .6-1.1h-2v-1.2h2.7l.6-1.7 1.6.4-.6 1.3h5.4V43h-6.1a11.8 11.8 0 0 1-1.1 1.9h2.2v-1.5h1.5v1.5h2.8v1.3h-2.8v1.2h3.7ZM137.9 48.5v1.4h-10.3v-1.4h4.3v-5.8h-3.7v-1.4h9v1.4h-3.8v5.8ZM149.3 48.8v1.4h-10.1v-1.4h2.9v-8.5h1.4v8.5h1.5v-8.5h1.4v6.2a37 37 0 0 0 1.6-4l1.2.6a31.5 31.5 0 0 1-1.8 4.1l-1-.5v2.1Zm-8.6-1.7c-.3-1-.9-2.9-1.4-4.3l1.3-.3c.5 1.3 1.1 3.1 1.4 4.2ZM156.6 45.4a7.5 7.5 0 0 1 2.2-5.4l1.1.4a7 7 0 0 0 0 10l-1.1.4a7.5 7.5 0 0 1-2.2-5.4ZM168.1 48.2a20.9 20.9 0 0 0 3.5 1.3l-.8 1a11.5 11.5 0 0 1-3.9-1.8v2h-1.3v-2a11.8 11.8 0 0 1-3.9 1.9l-.9-1.1a19.1 19.1 0 0 0 3.6-1.3h-3.2v-1.1h4.4v-.6h1.3v.6h4.5v1.1Zm-5.7-4.7-.6.5a3.8 3.8 0 0 0-.9-.9 8.9 8.9 0 0 0 2.6-3l1.4.3a5.6 5.6 0 0 0-.5.8h1.8l-.3-.8 1.2-.3a3.7 3.7 0 0 1 .5 1.1h3.2v1h-3.5v.5h3v.9h-3v.4h3v.9h-3v.5h3.8v1h-7.3v.3h-1.4Zm3.7-1.3h-2.3v.5h2.3Zm0 1.4h-2.3v.4h2.3Zm0 1.3h-2.3v.5h2.3ZM182.6 40.5v10.2h-1.4v-.4h-6.8v.4H173V40.5Zm-1.4 8.6v-7.3h-6.8v7.3Zm-.4-4.6h-1.4v2.9c0 .6-.1.9-.5 1.1a3.7 3.7 0 0 1-1.6.2 3.4 3.4 0 0 0-.4-1.2h1c.2 0 .2-.1.2-.2v-1.4a12.6 12.6 0 0 1-2.7 2 2.3 2.3 0 0 0-.8-.9 11.4 11.4 0 0 0 3-2.5h-2.7v-1.2h3.2v-1.2h1.3v1.2h1.4ZM187.5 45.4a7.5 7.5 0 0 1-2.2 5.4l-1.1-.4a7.3 7.3 0 0 0 0-10l1.1-.4a7.5 7.5 0 0 1 2.2 5.4ZM198.5 42.7a3.6 3.6 0 0 1-.4.9h5.2v5.6c0 .7-.1 1.1-.5 1.3a5.9 5.9 0 0 1-2.1.2 2.8 2.8 0 0 0-.4-1.3h1.5c.2 0 .2-.1.2-.2v-.7h-4.1v2.2h-1.3v-5a6.7 6.7 0 0 1-1.5 1.4l-.9-1.1a8.1 8.1 0 0 0 2.8-3.3h-2.4v-1.2h3l.5-1.4 1.3.3-.3 1.1h5.5v1.2Zm3.5 2.1h-4.1v.7h4.1Zm0 2.6v-.7h-4.1v.7ZM210.1 41c-.3 1-.7 2.1-1 3a3.8 3.8 0 0 1 .9 2.3 1.6 1.6 0 0 1-.6 1.5l-.6.3h-.7a3 3 0 0 0-.3-1.2h.8a.8.8 0 0 0 .2-.6 3.5 3.5 0 0 0-.8-2.1 19.5 19.5 0 0 0 .6-2.3h-1.1v8.9h-1.1V40.6h2.8Zm6.1 5.8-1.6 1.2a5.8 5.8 0 0 0 1.9 1.5 3.8 3.8 0 0 0-.9 1.2c-1.7-1-2.6-2.7-3.2-4.9h-.6v3.1l1.5-.3c0 .4.1.9.1 1.2a13.2 13.2 0 0 0-2.9.9 3.3 3.3 0 0 0-.6-1 1.1 1.1 0 0 0 .5-1v-8.1h5.2v5.2h-2a6.1 6.1 0 0 0 .5 1.2l1.2-1.1Zm-4.4-5.1v.9h2.5v-.9Zm0 2.9h2.5v-.9h-2.5ZM221.9 40.8a15 15 0 0 1-3.2 4.7 5.8 5.8 0 0 0-1.2-1 9.6 9.6 0 0 0 2.9-4.1Zm3.1 5.3a26.4 26.4 0 0 1 2.6 3.9l-1.4.7a5.6 5.6 0 0 0-.7-1.3c-5.4.5-6.2.5-6.8.7a4.8 4.8 0 0 0-.5-1.4 2.2 2.2 0 0 0 1.1-.9 20.4 20.4 0 0 0 2.7-4.3l1.5.6a23.4 23.4 0 0 1-3 4.3l4.3-.3a13 13 0 0 1-1-1.5Zm-.2-5.8a15.7 15.7 0 0 0 3.2 4 4.1 4.1 0 0 0-1.1 1.2 21 21 0 0 1-3.4-4.7ZM238.8 49c0 .7-.2 1.2-.6 1.4a6.1 6.1 0 0 1-2.2.3 8.8 8.8 0 0 0-.5-1.5h1.6c.2 0 .3 0 .3-.2v-6.9h-7.9v-1.3h9.3Zm-2.5-5h-6.7v-1.1h6.7Zm-4.8 4.7v.8h-1.3v-4.6h5.5v3.8Zm0-2.7v1.6h2.9V46ZM250.9 46.1v.8h-10.2v-.8h2.6v-2.7h-2.1v-.8h2.1v-2.3h.9v2.3h3.2v-2.3h.9v2.3h2.2v.8h-2.2v2.7Zm-6.2 1.8a12.1 12.1 0 0 1-3.2 2.7 1.7 1.7 0 0 0-.6-.6 12.2 12.2 0 0 0 3-2.4Zm-.5-1.8h3.2v-2.7h-3.2Zm3.3 1.5 3.2 2.5-.8.5c-.7-.7-2.1-1.8-3.1-2.6ZM14.8 69.5c0 .5-.1.8-.5.9a3.9 3.9 0 0 1-1.8.2 2 2 0 0 0-.4-.8h1.6a.3.3 0 0 0 .3-.3v-7.9H6.3v9h-.8v-9.8h9.3Zm-1.8-6H7.3v-.7H13Zm-4.3 4.8v.8h-.8v-4.4h4.5v3.6Zm0-2.9v2.2h2.9v-2.2ZM26.1 65.9v4.6h-.9v-.6h-7.9v-4h.9v3.2h3v-4h-3.4v-3.8h.8v3h2.6v-4.1h.9v4.1h2.7v-3h.9v3.8h-3.6v4h3.1v-3.2ZM31.6 63.8l-3.2 1.1-.2-.8 3.3-1Zm2.2 2.8c-.4 2.3-1.4 3.5-5.2 4l-.4-.7c3.6-.4 4.4-1.4 4.8-3.3ZM31 62.4l-2.4-1.2.4-.6a10.7 10.7 0 0 1 2.4 1.2Zm5.1 6.2v-2.3h-5.6v2.3h-.8v-3.1H37v3.1Zm-.8-6.7a1.4 1.4 0 0 0-.2.6 4.8 4.8 0 0 0 3.2 2l-.5.7a5.6 5.6 0 0 1-3.1-2 4.8 4.8 0 0 1-2.9 2.1 1.5 1.5 0 0 0-.5-.6c2-.6 2.8-1.6 3.1-2.8h-1.3a4.9 4.9 0 0 1-1.2 1.3 1.5 1.5 0 0 0-.6-.5 6.3 6.3 0 0 0 1.8-2.4h.8l-.4.9h3.9l.7.2a12.8 12.8 0 0 1-1 1.7l-.7-.2a4.6 4.6 0 0 0 .5-1Zm-1.4 6.3a30 30 0 0 1 4.3 1.6l-.5.7c-1-.5-2.9-1.2-4.3-1.7ZM43.3 67.7a4.9 4.9 0 0 0 .3.7c-2 1.5-2.3 1.7-2.4 1.9l-.5-.7a1.2 1.2 0 0 0 .6-1v-4h-1.6v-.8h2.4v4.8Zm-1-5-1.7-1.8.5-.5 1.7 1.7Zm3.2-.8a3.3 3.3 0 0 1-2 3.1l-.5-.7a2.3 2.3 0 0 0 1.7-2.4v-1.3h3.6v2.7c0 .3 0 .4.2.4h1.3c0 .2.1.6.1.7h-1.5c-.7 0-.9-.3-.9-1.2v-1.8h-2Zm3.8 3.5a6.5 6.5 0 0 1-2.2 3.3 12.6 12.6 0 0 0 2.9 1.2 1.8 1.8 0 0 0-.5.7 7 7 0 0 1-3-1.4 10.9 10.9 0 0 1-3.1 1.4 1.5 1.5 0 0 0-.4-.8 8.6 8.6 0 0 0 2.8-1.1 7.7 7.7 0 0 1-1.9-2.7h-.4v-.8h5.3Zm-4.6.6a6.3 6.3 0 0 0 1.8 2.2 6.5 6.5 0 0 0 1.8-2.2ZM61.4 69.2v.9h-10v-.9h5.4a38.1 38.1 0 0 0 1.7-5.4l1 .2a52.4 52.4 0 0 1-1.8 5.2Zm-.5-6h-9.1v-.8h9.1Zm-6.4 5.6c-.2-1.3-.7-3.3-1.1-4.8l.8-.2a32.5 32.5 0 0 1 1.2 4.7Zm1.6-6.6a16.7 16.7 0 0 0-.5-1.8l.8-.2A18.9 18.9 0 0 1 57 62ZM63.8 70.3c.9-.4 1.4-.9 1.4-1.7H65a.8.8 0 0 1-.8-.8.8.8 0 0 1 .8-.9c.7 0 1 .5 1 1.3a2.7 2.7 0 0 1-2 2.6ZM80 69.5h4.7a1.3 1.3 0 0 0-.3.8h-3.1c-2.3 0-3.7-.3-4.6-1.8a9.1 9.1 0 0 1-1.8 2.1 3.4 3.4 0 0 0-.6-.6 5.6 5.6 0 0 0 2.2-3.7h.8l-.3 1.1a2.8 2.8 0 0 0 2.2 1.8v-3.3h-4.7v-.7h10v.7H80v1.3h3.7v.7H80Zm3.2-5.1h-7.5v-3.7h7.5Zm-.8-3.1h-5.9v.9h5.9Zm0 1.6h-5.9v.9h5.9ZM96.1 64.8v.9H85.9v-.9ZM106.5 64.8l-1.7 1.3a5.2 5.2 0 0 0 3 3.3l-.5.7a6 6 0 0 1-3.2-3.6l-.5.3c.4 1.5.1 2.9-.5 3.4a1.7 1.7 0 0 1-1.2.3h-.9a1.6 1.6 0 0 0-.3-.8h1.1a.8.8 0 0 0 .7-.2 2.7 2.7 0 0 0 .4-2 16.6 16.6 0 0 1-4.8 2.4l-.5-.7a12.6 12.6 0 0 0 5.2-2.5l-.3-.8a16.2 16.2 0 0 1-4.2 2l-.5-.7a13 13 0 0 0 4.3-1.8 1.8 1.8 0 0 0-.5-.7 13.3 13.3 0 0 1-3.3 1.3l-.4-.6a13.1 13.1 0 0 0 4-1.7h-2.6V63h6.5v.8H103l-.8.6a5.7 5.7 0 0 1 1.2 1.8 25.1 25.1 0 0 0 2.4-1.9Zm-7.8-1.2h-.8v-2.4h4.3l-.5-.8.9-.2a4.7 4.7 0 0 1 .5 1h4.2v2.4h-.8V62h-7.8ZM112.6 66.1c0 .3-.1.6 0 .7l-3.3.8-.3-.7c.3-.1.5-.3.9-.8l1.1-1.5-1.8.3-.3-.7.7-.7a22.1 22.1 0 0 0 1.4-3.2l.8.3A15.6 15.6 0 0 1 110 64h1.5c.2-.4.5-.8.7-1.3l.7.4a23.8 23.8 0 0 1-2.4 3.5Zm.1 2.9-3.5.9-.2-.8 3.6-.8Zm2.1-1.6a9.4 9.4 0 0 1-1.8 2.5l-.6-.5a18.4 18.4 0 0 0 1.7-2.2Zm1.7-1v3.2c0 .5-.1.7-.4.8h-1.5a1.9 1.9 0 0 0-.2-.7h1.1a.2.2 0 0 0 .2-.2v-3.1h-2.8v-.7h6.2v.7Zm-2.6-2.9h-.8v-1.9h2.7a6.1 6.1 0 0 0-.5-1.2l.8-.2.7 1.4h2.3v1.9h-.9v-1.1h-4.3Zm.1.9v-.8h4.1v.8Zm4 2.8a20.3 20.3 0 0 1 1.4 2.3l-.8.3a11 11 0 0 0-1.3-2.3ZM126.6 60.6l-.4.5a14.8 14.8 0 0 0 4.7 3.1 1.8 1.8 0 0 0-.5.7l-1.9-1v.8h-5.6v-.6l-1.8.9a1.9 1.9 0 0 0-.6-.7 12.6 12.6 0 0 0 5.4-4.1Zm-4.3 5.4h6.9v4.5h-.8v-.6h-5.3v.6h-.8Zm.8.8v2.3h5.3v-2.3Zm5.4-2.9a11.3 11.3 0 0 1-2.7-2.2 17.8 17.8 0 0 1-2.6 2.2ZM131.9 65.3a13.6 13.6 0 0 0 .6-2.9h.7a14.5 14.5 0 0 1-.6 3Zm1.7-5.1h.8v10.4h-.8Zm1.5 1.8a9.7 9.7 0 0 1 .8 1.9l-.6.3c-.2-.5-.5-1.3-.8-1.9Zm7.2 7.4v.8h-6.9v-.8h3.2v-2.9h-2.4v-.7h2.4v-2.4H137a15.9 15.9 0 0 1-.8 1.8l-.8-.4a11 11 0 0 0 1.4-4.1l.8.2a8.5 8.5 0 0 1-.4 1.7h1.4v-2.3h.9v2.3h2.5v.8h-2.5v2.4h2.3v.7h-2.3v2.9ZM149.2 64.4v1.5h4v.8h-4v2.8h4.5v.7h-9.8v-.7h4.4v-2.8h-3.9v-.8h3.9v-1.5h-2.4v-.6l-1.8.8a2.4 2.4 0 0 0-.6-.8 10.3 10.3 0 0 0 5.3-3.7l.8.4-.3.4a11.7 11.7 0 0 0 4.8 2.9l-.6.7-1.8-.8v.7Zm-3.1 2.5a14.3 14.3 0 0 1 1.1 2.1l-.8.3a7.9 7.9 0 0 0-1-2.1Zm5.5-3.3a12.8 12.8 0 0 1-2.8-2.1 10.9 10.9 0 0 1-2.6 2.1Zm-1.4 5.4a10.5 10.5 0 0 0 1.2-2.1l.8.3a12.8 12.8 0 0 1-1.3 2.1ZM155.3 60.7h5.3v.8h-5.3Zm5.2 8.9c0 .4-.1.6-.3.7h-1.3a1.4 1.4 0 0 0-.2-.6h.9a.2.2 0 0 0 .2-.2v-3.8h-3.6v4.8h-.7V65h5Zm-.4-5.2h-4.2v-2.3h4.2Zm-1.8 3.7v2.2h-.6v-2.2h-1.2v-.6h1.5c.3-.5.6-1.2.8-1.6l.6.2c-.3.5-.5 1-.8 1.4h.8v.6Zm1-5.4h-2.7v1.1h2.7Zm-2.2 3.2a5.6 5.6 0 0 1 .7 1.3l-.5.2-.6-1.3Zm7.8 4.7a4.4 4.4 0 0 0-.2-1l-3.7.7-.2-.8 1.9-.3v-2.5H161v-4.2h1.7v-2.2h.8v2.2h1.6v4.2h-1.6v2.4h1a8.8 8.8 0 0 0-.5-1.5h.6a9.6 9.6 0 0 1 1 3Zm-3.2-4.6h1.1v-2.8h-1.1Zm2.7-2.8h-1V66h1ZM170.2 60.5a10.1 10.1 0 0 1-1.2 2.3v7.7h-.8v-6.4l-1.2 1.4a9.2 9.2 0 0 0-.5-.8 12.5 12.5 0 0 0 2.9-4.4Zm4.1 6a9.2 9.2 0 0 0 3 2.9l-.6.7a10.9 10.9 0 0 1-2.9-3.1v3.6h-.8v-3.5a10.7 10.7 0 0 1-3 3l-.6-.7a7.8 7.8 0 0 0 3.1-2.9h-2.8v-.8h3.3v-1.4h-2.4v-3.5h5.8v3.5h-2.6v1.4h3.2v.8Zm-3-2.9h4.2v-2.1h-4.2ZM182 61l-1.2 2.9a3.2 3.2 0 0 1 1 2.4 1.8 1.8 0 0 1-.4 1.4l-.6.2h-.7a1.9 1.9 0 0 0-.2-.7h1a1.9 1.9 0 0 0 .2-.8 3.4 3.4 0 0 0-1-2.3l.9-2.6h-1.4v9.1h-.8v-9.9h2.6Zm1.2 2.8-1.1.9-.5-.7a9.2 9.2 0 0 0 3.4-3.9l.8.3-.2.4a11.8 11.8 0 0 0 3.2 3.1l-.4.7a15.7 15.7 0 0 1-3.2-3.1 13.7 13.7 0 0 1-1.9 2.2h3.7v.7h-3.8Zm5 1.7c-.5 1.2-1.1 2.7-1.7 3.8h2.1v.7H182v-.7h3.8a28.3 28.3 0 0 0 1.7-4Zm-5 0a11.4 11.4 0 0 1 .8 2.7l-.7.2a15.4 15.4 0 0 0-.7-2.7Zm2 2.6a25.6 25.6 0 0 0-.5-2.7h.7a25.6 25.6 0 0 1 .5 2.7ZM196.2 67.8a12 12 0 0 0 4.1 1.9 2 2 0 0 0-.6.7 14.9 14.9 0 0 1-4.3-2.3v2.5h-.8v-2.5a12.8 12.8 0 0 1-4.3 2.3l-.6-.6a12 12 0 0 0 4.1-2H190v-.6h4.6v-.8h.8v.8h4.6v.6Zm-4.9-4.8a4.3 4.3 0 0 1-1 .9l-.6-.5a8.7 8.7 0 0 0 2.7-3.2l.8.2-.6 1h2.6l-.6-1 .8-.2a13.3 13.3 0 0 1 .6 1.2h3.3v.7h-3.6v.8h3.2v.6h-3.2v.7h3.2v.6h-3.2v.8h4v.7h-7.5v.3h-.9Zm3.6-.9h-2.7v.8h2.7Zm0 1.4h-2.7v.7h2.7Zm0 1.3h-2.7v.8h2.7ZM211.2 60.7v9.9h-.9v-.5h-7.6v.5h-.8v-9.9Zm-.9 8.6v-7.8h-7.6v7.8Zm-.6-5.1h-1.8v3.5c0 .5 0 .7-.4.8s-.7.2-1.4.2l-.3-.8h1.1c.2 0 .2 0 .2-.2v-2.6a13.5 13.5 0 0 1-3.2 2.7 1.7 1.7 0 0 0-.6-.6 12.8 12.8 0 0 0 3.6-3h-3.4v-.8h3.6V62h.8v1.4h1.8ZM216.4 68.7a1.8 1.8 0 0 1-1.7 1.7 1.8 1.8 0 0 1-1.8-1.7 1.8 1.8 0 0 1 1.8-1.8 1.8 1.8 0 0 1 1.7 1.8Zm-.6 0a1.1 1.1 0 0 0-1.1-1.2 1.2 1.2 0 0 0-1.2 1.2 1.1 1.1 0 0 0 1.2 1.1 1.1 1.1 0 0 0 1.1-1.1ZM234.2 64.6a15.6 15.6 0 0 1-1.7 3.7c.3.8.7 1.3 1.2 1.3s.4-.5.5-1.8a.8.8 0 0 0 .6.4c-.1 1.7-.4 2.2-1.2 2.2a2 2 0 0 1-1.7-1.4l-1.6 1.6-.6-.6.3-.3h-3.7v.6h-.7v-4l-.5.6-.6-.5a7.1 7.1 0 0 0 1.8-2.6l.7.2c-.2.3-.3.7-.5 1h1.6a2.6 2.6 0 0 0-.5-.9l.6-.3a5.2 5.2 0 0 1 .7 1.2h1.4v.6h-1.7v.8h1.5v.5h-1.5v.8h1.5v.6h-1.5v.7h1.7v.5a5.8 5.8 0 0 0 1.3-1.4 16.9 16.9 0 0 1-.7-4.4h-6.3V63h2.6v-1h-2.1v-.7h2.1v-1.1h.8v1.1h2.1v.7H228v1h2.8v-2.8h.8V63h3.1v.7h-3a24.3 24.3 0 0 0 .5 3.5 11.8 11.8 0 0 0 1.2-2.8Zm-6.3 1h-1.6v.8h1.6Zm0 1.3h-1.6v.8h1.6Zm-1.6 2.1h1.6v-.7h-1.6Zm7.5-6.5-1.6-1.6.6-.4a6.1 6.1 0 0 1 1.6 1.6ZM246.3 69.3v.8h-10.1v-.8h4.6v-2h-3.6v-.8h3.6V65h.8v1.5h3.7v.8h-3.7v2Zm-1.2-4-.7-.8-7.2.4a2.4 2.4 0 0 0-.2-.8 2.5 2.5 0 0 0 .8-.5l1.7-2h-3v-.7h9.4v.7h-5.3a25.7 25.7 0 0 1-2.1 2.4l5.2-.2-1.4-1.2.6-.5a15.4 15.4 0 0 1 2.9 2.7ZM13.8 89.1c2.6-2.3 3.8-3.9 3.8-5.4a1.5 1.5 0 0 0-1.6-1.6 2.4 2.4 0 0 0-1.7 1l-.6-.6a3.1 3.1 0 0 1 2.5-1.3 2.3 2.3 0 0 1 2.4 2.5c0 1.7-1.3 3.3-3.3 5.2H19v.9h-5.2ZM20.3 85.5c0-2.9 1-4.3 2.6-4.3s2.6 1.4 2.6 4.3-1 4.3-2.6 4.3-2.6-1.4-2.6-4.3Zm4.2 0c0-2.4-.6-3.4-1.6-3.4s-1.6 1-1.6 3.4.7 3.5 1.6 3.5 1.6-1 1.6-3.5ZM26.8 89.1c2.6-2.3 3.8-3.9 3.8-5.4a1.4 1.4 0 0 0-1.5-1.6 2.4 2.4 0 0 0-1.8 1l-.6-.6a3.1 3.1 0 0 1 2.5-1.3 2.3 2.3 0 0 1 2.4 2.5c0 1.7-1.3 3.3-3.3 5.2H32v.9h-5.2ZM33.8 88.8h1.8v-6.2h-1.4V82a4.3 4.3 0 0 0 1.7-.6h.8v7.4h1.6v.9h-4.5ZM52.9 88h-4.1v2.6h-.9V88h-5.2v-.8h1.9v-3.1h3.3v-1.7h-2.7a9.8 9.8 0 0 1-1.7 2.2l-.7-.5a9.7 9.7 0 0 0 2.5-3.9l.8.2a6.1 6.1 0 0 1-.5 1.2h6.8v.8h-3.6v1.7h3.3v.8h-3.3v2.3h4.1Zm-5-.8v-2.3h-2.5v2.3ZM55.9 82.1v2.5c0 1.8-.1 4.3-1.1 6l-.7-.5a11.9 11.9 0 0 0 1-5.5v-3.2h4.5l-.5-1 .8-.2a4.5 4.5 0 0 1 .6 1.2h3.9v.7Zm5.7 4.4c.4 1.9 1.1 3.2 1.8 3.1s.4-.4.4-1.6a1.3 1.3 0 0 0 .7.4c-.1 1.6-.4 2-1.1 2s-2.2-1.6-2.7-3.9h-2.8v2.7l1.7-.5v.7l-2.6 1-.3-.7a.6.6 0 0 0 .4-.6v-5.8a43.2 43.2 0 0 0 5.9-.6l.6.6-2.4.4a12.3 12.3 0 0 0 .2 2h2.7v.8Zm-1-.8a11.1 11.1 0 0 1-.2-1.9h-2.5v1.8Zm-.5 2a9 9 0 0 1 1.2 2.4l-.7.3a17.4 17.4 0 0 0-1.1-2.5ZM66.8 90.3a2.2 2.2 0 0 0 1.4-1.7H68a.7.7 0 0 1-.8-.8.8.8 0 0 1 .8-.9c.6 0 1 .5 1 1.3a2.7 2.7 0 0 1-2 2.6ZM83.6 87.8a14 14 0 0 0 4.1 1.9 1.8 1.8 0 0 0-.5.7 14.2 14.2 0 0 1-4.4-2.3v2.5H82v-2.5a11.2 11.2 0 0 1-4.3 2.3 1.5 1.5 0 0 0-.5-.6 12 12 0 0 0 4.1-2h-3.9v-.6H82v-.8h.8v.8h4.7v.6ZM78.8 83l-1 .9-.6-.5a9.4 9.4 0 0 0 2.6-3.2l.9.2a6.1 6.1 0 0 1-.7 1h2.6l-.5-1 .7-.2a5.2 5.2 0 0 1 .7 1.2h3.3v.7h-3.6v.8h3.1v.6h-3.1v.7h3.2v.6h-3.2v.8h4v.7h-7.6v.3h-.8Zm3.5-.9h-2.7v.8h2.7Zm0 1.4h-2.7v.7h2.7Zm0 1.3h-2.7v.8h2.7ZM98.7 80.7v9.9h-.9v-.5h-7.6v.5h-.9v-9.9Zm-.9 8.6v-7.8h-7.6v7.8Zm-.7-5.1h-1.7v3.5c0 .5-.1.7-.4.8a2.8 2.8 0 0 1-1.5.2 2.4 2.4 0 0 0-.2-.8h1.1c.1 0 .2 0 .2-.2v-2.6a16.3 16.3 0 0 1-3.3 2.7 1.5 1.5 0 0 0-.5-.6 12.4 12.4 0 0 0 3.5-3h-3.4v-.8h3.7V82h.8v1.4h1.7ZM103.9 87.8l-3.3 1.3-.3-.9 1.5-.5v-3.9h-1.3V83h1.3v-2.6h.8V83h1.1v.8h-1.1v3.6l1.2-.4Zm5.4 2h.4a.2.2 0 0 0 .2-.2c0-.2.1-.5.1-1s.4.3.7.4-.1.9-.2 1.1-.2.3-.4.3h-1.5c-.2 0-.6 0-.7-.2s-.3-.3-.3-.9v-1.7h-1c-.2 1.7-.8 2.5-2.8 3l-.5-.7c1.9-.3 2.3-1 2.5-2.3h-1.2v-3.2h5.2v3.2h-1.4v1.8c0 .2 0 .3.1.3h.8Zm1.1-6h-6.3v-.7h1.6a7.6 7.6 0 0 0-.4-1.1h.7a4.9 4.9 0 0 1 .4 1.1h1.5a4.3 4.3 0 0 1 .5-1.2l.7.2a4.7 4.7 0 0 1-.5 1h1.8Zm-.3-2h-5.7v-.7h2.5c-.1-.3-.3-.5-.4-.8h.8a2.5 2.5 0 0 1 .4.9h2.4Zm-4.7 3.9h3.6V85h-3.6Zm0 1.4h3.6v-.8h-3.6ZM121.6 89.5c0 .5-.1.8-.5.9H119a2.4 2.4 0 0 0-.2-.8h1.8c.2 0 .2-.1.2-.3V83h-3.3a4.4 4.4 0 0 1-.2 1.5 23.9 23.9 0 0 1 3.2 3.1l-.7.5a22.6 22.6 0 0 0-2.7-2.8 6 6 0 0 1-2.8 3 1.7 1.7 0 0 0-.6-.6 5.3 5.3 0 0 0 3-4.7h-3.3v7.6h-.8v-8.4h4.1v-2h.9v2h4ZM128.4 81.9l.6.2c-.6 4.4-2.4 7.1-4.8 8.4a2.3 2.3 0 0 0-.7-.7 7.6 7.6 0 0 0 3.2-3.2l-1.8-1.4.5-.6 1.7 1.3a13.5 13.5 0 0 0 .9-3.2h-2.2a11.3 11.3 0 0 1-1.6 3.1 2 2 0 0 0-.7-.6 11 11 0 0 0 2.2-5l.8.2c-.1.5-.3 1-.4 1.6h2.3Zm2.7 1.7a24.4 24.4 0 0 1 2.8 2.6l-.7.6a18 18 0 0 0-2.4-2.4v6.2h-.9V80.2h.9v3.7ZM135.1 89.6a6.4 6.4 0 0 0 1.1-2.5l.7.2a5.5 5.5 0 0 1-1 2.6Zm8.7-3.5h-7.1v-3.6h2a14.5 14.5 0 0 0-1.2-1.9l.7-.3a6.7 6.7 0 0 1 1.2 1.9l-.7.3h2.4a25.3 25.3 0 0 0 1.2-2.3l.8.4-1.1 1.9h1.8Zm-.9-2.8h-5.3v2h5.3Zm-1 6.4c.6 0 .6-.2.7-1.2a1.3 1.3 0 0 0 .8.3c-.1 1.3-.4 1.6-1.4 1.6h-2.6c-1.3 0-1.6-.2-1.6-1.1V87h.8v2.3c0 .3.2.4.9.4Zm-2.1-3.5a7.6 7.6 0 0 1 2.1 1.8l-.6.5a9.4 9.4 0 0 0-2.1-1.8Zm4 .7a14.8 14.8 0 0 1 1.6 2.5l-.7.4a8.8 8.8 0 0 0-1.6-2.5ZM150.1 83.8l-3.1 1.1-.3-.8 3.3-1Zm2.2 2.8c-.4 2.3-1.4 3.5-5.2 4a2.5 2.5 0 0 0-.4-.7c3.6-.4 4.4-1.4 4.8-3.3Zm-2.8-4.2a10.7 10.7 0 0 0-2.4-1.2l.4-.6a10.7 10.7 0 0 1 2.4 1.2Zm5.1 6.2v-2.3H149v2.3h-.8v-3.1h7.3v3.1Zm-.8-6.7a1.4 1.4 0 0 0-.2.6 4.8 4.8 0 0 0 3.2 2l-.5.7a5.7 5.7 0 0 1-3-2 5.4 5.4 0 0 1-3 2.1 1.5 1.5 0 0 0-.5-.6c2-.6 2.8-1.6 3.1-2.8h-1.3a4.9 4.9 0 0 1-1.2 1.3 1.5 1.5 0 0 0-.6-.5 6.3 6.3 0 0 0 1.8-2.4h.8a3.6 3.6 0 0 1-.4.9h4l.6.2-.9 1.7-.8-.2a2.3 2.3 0 0 0 .5-1Zm-1.4 6.3a30 30 0 0 1 4.3 1.6l-.5.7-4.2-1.7ZM168.1 85.3H160v.7a8.3 8.3 0 0 1-1.2 4.7 2 2 0 0 0-.7-.6 6.9 6.9 0 0 0 1-4.1v-1.5h5.4c.4-.6.7-1.4 1-1.9l.9.2-1 1.7h2.7Zm-.2-2.9H159v-.8h4.2a7.5 7.5 0 0 0-.7-1.2l.8-.2a5.5 5.5 0 0 1 .9 1.4h3.7Zm-6.3 2a8.9 8.9 0 0 0-.9-1.6l.7-.3a7 7 0 0 1 1 1.6ZM173.1 88.8h1.8v-6.2h-1.5V82a3.4 3.4 0 0 0 1.7-.6h.8v7.4h1.7v.9h-4.5ZM179.4 89.1a.7.7 0 0 1 .7-.8.7.7 0 0 1 .8.8.7.7 0 0 1-.8.7.7.7 0 0 1-.7-.7ZM182.9 88.8h1.9v-6.2h-1.5V82a3.4 3.4 0 0 0 1.7-.6h.8v7.4h1.7v.9h-4.6ZM188.8 88.7l.5-.7a2.8 2.8 0 0 0 2.1 1 1.6 1.6 0 0 0 1.7-1.6c0-.9-.7-1.6-2.6-1.6V85c1.7 0 2.3-.7 2.3-1.6a1.3 1.3 0 0 0-1.4-1.3 2.5 2.5 0 0 0-1.8.8l-.5-.7a3.7 3.7 0 0 1 2.3-1 2.1 2.1 0 0 1 2.4 2.1 2 2 0 0 1-1.5 2 2.1 2.1 0 0 1 1.8 2.1c0 1.5-1.2 2.3-2.7 2.3a3.2 3.2 0 0 1-2.6-1ZM202.5 81.9c-.1.7-.1 1.5-.2 2.3h5.1s0 .3-.1.4c-.2 3.7-.3 5-.8 5.5a1 1 0 0 1-.9.4h-2a4.1 4.1 0 0 0-.3-.8h2.5c.3-.3.5-1.6.7-4.6h-4.3a7 7 0 0 1-3.4 5.6l-.6-.7c3.2-1.6 3.3-5.1 3.4-8h-3.1v-.8h9.9v.8ZM213.3 80.5a22.9 22.9 0 0 1-1 2.3v7.7h-.8v-6.4l-1.3 1.5-.4-.9a11.3 11.3 0 0 0 2.7-4.4Zm5.1 8.8c.6 0 .7-.4.8-2.3l.7.3c-.1 2.3-.4 2.8-1.6 2.8h-2.8c-1.3 0-1.9-.5-1.9-1.4s.2-1.5 4.5-6.5h-4.3v-.8h5.4l.5.3h-.1c-4.9 5.5-5.2 6.3-5.2 6.8s.4.6 1 .6ZM230.4 89.6c.4 0 .5-.3.5-2.1a3 3 0 0 0 .8.4c-.1 1.9-.3 2.5-1.3 2.5h-1.6c-1 0-1.3-.3-1.3-1.3v-4h-2.1c-.2 2.4-.8 4.4-3.4 5.4a1.5 1.5 0 0 0-.5-.6c2.4-.9 2.8-2.7 3-4.8h-2.9v-.8h9.9v.8h-3.1v4c0 .4.1.5.5.5Zm.2-7.7h-8v-.8h8ZM236.4 88.7a1.8 1.8 0 0 1-1.7 1.7 1.8 1.8 0 0 1-1.8-1.7 1.8 1.8 0 0 1 1.8-1.8 1.8 1.8 0 0 1 1.7 1.8Zm-.6 0a1.1 1.1 0 0 0-1.1-1.2 1.2 1.2 0 0 0-1.2 1.2 1.1 1.1 0 0 0 1.2 1.1 1.1 1.1 0 0 0 1.1-1.1Z"/></svg>